<svg width="91" height="12" viewBox="0 0 91 12" fill="none" xmlns="http://www.w3.org/2000/svg">
<path d="M7.12435 8.20933C6.59209 8.70097 6.07867 9.03099 5.32329 9.03099C4.18327 9.03099 3.35591 8.14752 3.35591 6.92577V6.89776C3.35591 5.73128 4.18226 4.82301 5.22971 4.82301C6.02804 4.82301 6.52023 5.16192 7.01217 5.67021L7.09094 5.75077L8.65507 4.10239L8.591 4.0322C7.71892 3.07754 6.69045 2.65437 5.24378 2.65437C4.02021 2.65437 2.89827 3.09407 2.08725 3.91191C1.28866 4.70334 0.849609 5.77631 0.849609 6.92577V6.95538C0.849609 8.10151 1.29143 9.16707 2.09089 9.95505C2.89827 10.7578 4.00865 11.1994 5.2135 11.1994C6.99509 11.1994 7.911 10.48 8.6361 9.703L8.70343 9.62639L7.20035 8.13531L7.12435 8.20933ZM29.1839 0.75H26.6769V2.79884H25.658V4.82301H26.6769V8.67704C26.6769 10.3972 27.429 11.1994 29.1365 11.1994C29.8654 11.1994 30.4684 11.0465 31.029 10.7184L31.0863 10.6885V8.67716L30.9226 8.7597C30.5837 8.9413 30.2169 9.03099 29.8258 9.03099C29.3752 9.03099 29.1839 8.83014 29.1839 8.3559V4.82301H31.1149V2.79897H29.1839V0.75ZM36.012 2.65437C34.7596 2.65437 33.604 3.09407 32.7605 3.9029C31.9233 4.69927 31.4619 5.77631 31.4619 6.92577V6.95538C31.4619 8.10496 31.9206 9.17398 32.7507 9.96245C33.5903 10.7601 34.7346 11.1994 35.9788 11.1994C37.2309 11.1994 38.3821 10.7568 39.2276 9.94752C40.0665 9.14918 40.527 8.0793 40.527 6.92577V6.89776C40.527 5.74769 40.0716 4.67694 39.2409 3.88699C38.401 3.08877 37.2556 2.65437 36.012 2.65437ZM38.0209 6.95538C38.0209 8.17578 37.1954 9.03099 36.012 9.03099C34.8454 9.03099 33.9689 8.12803 33.9689 6.92577V6.89776C33.9689 5.67576 34.7928 4.82301 35.9788 4.82301C37.1441 4.82301 38.0209 5.72733 38.0209 6.92565V6.95538ZM43.7516 4.05416V2.79897H41.2466V11.0222H43.7516V7.86081C43.7516 6.08338 44.5727 5.14304 46.1302 5.14304H46.3589V2.65622L46.2563 2.65437C45.1297 2.60305 44.3035 3.06163 43.7516 4.05416ZM66.2808 2.65437C65.2355 2.65437 64.3621 3.04337 63.6179 3.84171C63.1496 3.0752 62.3282 2.65437 61.2939 2.65437C60.1725 2.65437 59.4797 3.19598 58.9902 3.74659V2.79897H56.4884V11.0222H58.9902V6.34382C58.9902 5.36301 59.4517 4.82301 60.2889 4.82301C61.3191 4.82301 61.5535 5.65109 61.5535 6.34382V11.0222H64.0553V6.34382C64.0553 5.36301 64.5322 4.82301 65.3666 4.82301C66.3997 4.82301 66.6181 5.65109 66.6181 6.34382V11.0222H69.1189V5.69969C69.1189 3.76041 68.1077 2.65437 66.2808 2.65437ZM14.9979 3.76041C14.4614 3.1053 13.6314 2.6545 12.6623 2.6545C10.555 2.6545 8.70368 4.57898 8.70368 6.92589V6.9555C8.70368 9.27848 10.4946 11.1995 12.6623 11.1995C13.6314 11.1995 14.4612 10.7369 14.9979 10.0705V11.0223H17.5043V2.79897H14.9979V3.76041ZM15.0995 6.95538C15.0995 8.17578 14.3076 9.03099 13.1683 9.03099C12.0517 9.03099 11.2084 8.12803 11.2084 6.92577V6.89776C11.2084 5.67576 12.0009 4.82301 13.1419 4.82301C14.2575 4.82301 15.0995 5.72733 15.0995 6.92565V6.95538ZM52.9203 3.76041C52.382 3.1053 51.5529 2.6545 50.5826 2.6545C48.4762 2.6545 46.6245 4.57898 46.6245 6.92589V6.9555C46.6245 9.27848 48.4144 11.1995 50.5826 11.1995C51.5531 11.1995 52.382 10.7369 52.9203 10.0705V11.0223H55.4231V2.79897H52.9203V3.76041ZM53.0194 6.95538C53.0194 8.17578 52.2279 9.03099 51.0905 9.03099C49.9726 9.03099 49.1318 8.12803 49.1318 6.92577V6.89776C49.1318 5.67576 49.9223 4.82301 51.0627 4.82301C52.1755 4.82301 53.0194 5.72733 53.0194 6.92565V6.95538ZM76.0453 2.79897V3.76041C75.5087 3.1053 74.6806 2.6545 73.7078 2.6545C71.6013 2.6545 69.7512 4.57898 69.7512 6.92589V6.9555C69.7512 9.27848 71.5421 11.1995 73.7078 11.1995C74.6806 11.1995 75.5089 10.7369 76.0453 10.0705V11.0223H78.5501V2.79897H76.0453ZM76.1469 6.95538C76.1469 8.17578 75.3543 9.03099 74.2173 9.03099C73.0999 9.03099 72.2569 8.12803 72.2569 6.92577V6.89776C72.2569 5.67576 73.0527 4.82301 74.1878 4.82301C75.3058 4.82301 76.147 5.72733 76.147 6.92565V6.95538H76.1469ZM20.9613 5.2468C20.9613 4.90271 21.3395 4.82301 21.7118 4.82301C22.8611 4.82301 23.9308 5.5329 23.9308 5.5329L24.9747 3.65751L24.8913 3.60397C23.9902 3.00401 22.8172 2.65067 21.7574 2.65067C20.6028 2.65067 18.4571 3.33539 18.4571 5.19387C18.4571 8.08621 22.8003 7.55373 22.8003 8.63904C22.8003 8.95833 22.3801 9.03099 21.9266 9.03099C20.5536 9.03099 19.3728 8.12852 19.3728 8.12852L18.1832 9.89719L18.2665 9.95641C19.3011 10.7601 20.5822 11.2 21.8676 11.2C23.9095 11.2 25.3058 9.88905 25.3058 8.63904C25.3056 5.89734 20.9613 6.22341 20.9613 5.2468Z" fill="#0071B9"/>
<path d="M88.0045 4.82422C89.1875 4.82422 90.1494 5.76456 90.1494 6.92364C90.1494 8.0863 89.1875 9.02443 88.0045 9.02443H82.9976C81.8129 9.02443 80.8496 8.08322 80.8496 6.92364C80.8496 5.76172 81.8129 4.82422 82.9976 4.82422H88.0045Z" fill="#FFDD00"/>
</svg>
