<svg width="73" height="45" viewBox="0 0 73 45" fill="none" xmlns="http://www.w3.org/2000/svg">
<path fill-rule="evenodd" clip-rule="evenodd" d="M7.87109 44.4999H64.7825L36.4778 15.9834L7.87109 44.4999Z" fill="#7BB51C"/>
<path fill-rule="evenodd" clip-rule="evenodd" d="M61.5081 39.1419L59.9782 37.5877L66.4823 31.0894L68.7036 33.3444L66.8057 40.0917L71.1107 35.7896L72.6004 37.3027L66.0972 43.801L64.1548 41.8292L65.8272 34.7458L61.5083 39.1419H61.5081ZM6.78347 43.0974L11.2175 38.7396L9.74057 37.2136L6.95567 39.9519L2.04973 34.8841L0.400391 36.5054L6.78369 43.0976L6.78347 43.0974ZM12.1906 37.7469L16.7337 33.2801L15.486 31.9925L12.6014 34.8278L11.2162 33.397L13.5279 31.1248L12.2223 29.7775L9.91059 32.0486L8.72385 30.8231L11.5137 28.0802L10.2669 26.793L5.73813 31.2448L12.1908 37.7472L12.1906 37.7469ZM56.9064 34.4668L63.4101 27.9683L65.046 29.6296L58.5423 36.1278L56.9064 34.4668ZM57.811 22.2801L59.4868 23.9829L54.5657 28.9L57.3185 31.6955L55.7359 33.2779L51.3073 28.7794L57.811 22.2805V22.2801ZM23.2341 26.9377C23.2341 26.9377 19.1547 25.5353 18.9608 25.5694C18.8979 25.5797 19.837 23.0621 17.7272 21.9462C17.7272 21.9462 16.1616 21.0923 14.5947 22.5265L11.2552 25.8423L17.6932 32.3744L19.3965 30.7003L15.9128 27.1035L21.5442 28.5994L23.2343 26.9381L23.2341 26.9377ZM54.8721 19.2947L50.9222 15.2819L44.4051 21.7672L46.0809 23.4692L49.6339 19.9187L48.355 25.7794L50.0705 27.5224C50.0705 27.5224 51.4229 23.33 51.4644 23.1554C51.4644 23.1554 52.9298 23.9687 54.5377 22.5759C54.5377 22.5759 56.0799 21.0619 54.8721 19.2945V19.2947ZM16.9157 26.0407C15.9692 26.9696 15.8415 27.0428 15.8415 27.0428C15.8415 27.0428 14.3576 25.5106 14.3051 25.4562C14.2527 25.402 15.3663 24.4402 15.5418 24.2676C15.6162 24.1944 16.3095 23.7386 16.8836 24.3309C16.8836 24.3309 17.8621 25.1103 16.9161 26.0407H16.9157ZM27.0607 16.5717C25.2285 14.6795 22.05 14.9059 20.5193 16.4107C18.9881 17.9155 18.2067 20.9164 20.369 23.1493C22.744 25.6015 25.5694 24.7109 27.1006 23.2067C29.358 20.9879 28.5545 18.1141 27.0607 16.5715V16.5717ZM25.7141 21.911C24.7006 22.9072 23.4616 22.6369 22.0459 21.1747C20.8561 19.9463 20.9277 18.7119 21.7928 17.8615C22.3877 17.2766 23.5959 16.7535 25.0333 18.2382C26.6733 19.9318 26.7276 20.9149 25.7141 21.911ZM52.46 21.1954C52.46 21.1954 51.6298 21.757 50.8981 21.0141L49.7552 19.7981C49.7552 19.7981 51.136 18.4183 51.3102 18.2439C51.3102 18.2439 52.3742 19.3251 52.5073 19.4599C52.64 19.5949 53.4789 20.2305 52.46 21.1954ZM42.9422 20.2812L38.4332 15.7014L44.9368 9.20295L49.4587 13.7963L48.1449 15.1093L45.3118 12.2318L44.2524 13.2902L46.4869 15.56L45.1188 16.9268L42.898 14.6705L41.4766 16.0906L44.283 18.9411L42.9425 20.2814L42.9422 20.2812ZM32.1707 18.1434L33.8467 16.4952L31.3251 13.8913L29.8159 7.56462L27.8946 9.45357L28.8941 13.0429L25.5172 11.79L23.7054 13.5706L29.4626 15.4331L32.1707 18.1432V18.1434ZM31.6506 8.8114L30.1609 7.29827L36.6641 0.799805L38.7925 2.96166L36.4496 7.60723L41.2261 5.43379L43.2741 7.51437L36.7708 14.0128L35.2011 12.4184L38.6338 8.98838L33.9378 11.1349L32.9671 10.1486L35.1497 5.42199L31.6504 8.8114H31.6506Z" fill="black"/>
</svg>
