<svg width="89" height="22" viewBox="0 0 89 22" fill="none" xmlns="http://www.w3.org/2000/svg">
<g clip-path="url(#clip0)">
<path d="M71.3623 15.7476L71.8835 5.2987L67.265 2.94281L67.3863 0.599121H87.7513L87.6422 2.82074L82.2358 5.2987L81.7024 15.8819L86.7209 18.4942L86.5755 21.3749H65.5801L65.7134 18.7627L71.3623 15.7476Z" fill="#FF7313"/>
<path fill-rule="evenodd" clip-rule="evenodd" d="M66.998 0.186523H88.1825L88.0398 3.09214L82.633 5.57026L82.1257 15.6374L87.1442 18.2497L86.9656 21.7875H65.1494L65.3168 18.5078L70.9654 15.4929L71.4616 5.54566L66.8427 3.18952L66.998 0.186523ZM67.7759 1.01171L67.6888 2.69609L72.3068 5.05174L71.7605 16.0024L66.1113 19.0176L66.0121 20.9623H86.1867L86.299 18.7386L81.2805 16.1264L81.8399 5.02714L87.246 2.54933L87.3215 1.01171H67.7759Z" fill="black"/>
<path d="M58.5131 0.562271C58.5131 0.562271 62.4406 0.135036 63.2043 5.15199C63.2043 5.15199 63.5195 8.60649 60.0283 10.645C63.8347 11.7558 63.1437 16.3944 63.1437 16.3944C61.9921 21.6677 56.6342 21.3625 56.6342 21.3625H30.7051L30.8627 18.7503L35.6994 15.7474L36.16 5.15199L31.6264 2.93037L31.7839 0.574478L58.5131 0.562271Z" fill="#FF7313"/>
<path fill-rule="evenodd" clip-rule="evenodd" d="M58.5569 0.972961L58.5564 0.973011L58.5556 0.973097L58.5351 0.975337L32.1668 0.987379L32.0535 2.68141L36.5809 4.89997L36.099 15.9844L31.2586 18.9895L31.1403 20.9504H56.6456L56.6565 20.951L56.6568 20.951L56.6571 20.951L56.6578 20.9511C56.6593 20.9512 56.6621 20.9513 56.666 20.9514C56.674 20.9518 56.6868 20.9522 56.7042 20.9526C56.739 20.9535 56.7921 20.9541 56.8611 20.9532C56.9993 20.9514 57.2008 20.9433 57.4473 20.9178C57.9417 20.8667 58.6094 20.7465 59.308 20.472C60.6886 19.9296 62.1965 18.7862 62.7399 16.3217C62.7409 16.3148 62.7421 16.3051 62.7436 16.2927C62.7472 16.2625 62.7523 16.2165 62.7577 16.1566C62.7683 16.0367 62.7798 15.8619 62.7823 15.6478C62.7873 15.2181 62.7561 14.6386 62.6143 14.0311C62.3321 12.8218 61.6278 11.5419 59.9141 11.0418L58.993 10.773L59.8226 10.2886C61.4669 9.32845 62.2036 8.04558 62.5353 7.00809C62.7021 6.48631 62.767 6.02437 62.7901 5.69496C62.8017 5.53051 62.8028 5.39992 62.8012 5.31249C62.8004 5.26879 62.7989 5.23597 62.7977 5.21518C62.7974 5.20895 62.7971 5.2038 62.7968 5.19977C62.4318 2.82812 61.3405 1.80494 60.3949 1.34828C59.9092 1.1137 59.4431 1.01976 59.0977 0.984928C58.9255 0.967567 58.7853 0.965083 58.6902 0.966727C58.6427 0.967548 58.6067 0.969395 58.5839 0.970897C58.5725 0.971647 58.5644 0.972309 58.5598 0.972712L58.5569 0.972961ZM63.2041 5.15248C63.6121 5.11473 63.6122 5.11495 63.6122 5.11519L63.6122 5.11574L63.6123 5.11707L63.6126 5.12069C63.6129 5.12353 63.6132 5.1272 63.6135 5.13169C63.6142 5.14068 63.615 5.15295 63.6159 5.16836C63.6176 5.19917 63.6195 5.24255 63.6205 5.2973C63.6225 5.40674 63.621 5.56196 63.6075 5.75322C63.5807 6.13523 63.5061 6.66433 63.3153 7.26099C62.9834 8.29919 62.3009 9.53539 60.9256 10.5483C62.4562 11.2878 63.132 12.6425 63.4121 13.8423C63.5733 14.5333 63.6073 15.1829 63.6017 15.6576C63.5989 15.8957 63.5861 16.092 63.5739 16.2301C63.5677 16.2992 63.5617 16.354 63.5571 16.3922C63.5548 16.4114 63.5528 16.4265 63.5514 16.4372C63.5506 16.4425 63.55 16.4468 63.5496 16.45L63.549 16.4539L63.5488 16.4552L63.5488 16.4557C63.5487 16.4559 63.5487 16.4561 63.1435 16.3948L63.5487 16.4561L63.5467 16.4698L63.5437 16.4835C62.9326 19.2815 61.1892 20.6186 59.6058 21.2408C58.8209 21.5492 58.0772 21.6822 57.531 21.7387C57.2572 21.767 57.0311 21.7763 56.8718 21.7783C56.7921 21.7794 56.7289 21.7787 56.6847 21.7776C56.6625 21.7771 56.6451 21.7765 56.6327 21.7759C56.6296 21.7758 56.6268 21.7757 56.6243 21.7756C56.6242 21.7756 56.6241 21.7756 56.6241 21.7756H30.2695L30.4664 18.5119L35.2993 15.5114L35.7387 5.40498L31.1988 3.1803L31.4007 0.162543L58.4942 0.15017C58.5038 0.14936 58.5159 0.148423 58.5305 0.147466C58.5656 0.145159 58.6147 0.142726 58.6761 0.141664C58.7988 0.139541 58.9713 0.142874 59.1793 0.16385C59.5942 0.205691 60.1577 0.318501 60.7493 0.604238C61.9564 1.18721 63.2081 2.4555 63.6091 5.08996L63.611 5.1023L63.6121 5.11473L63.2041 5.15248Z" fill="black"/>
<path d="M10.6428 0.574707H21.7951C26.656 0.574707 30.3896 4.67616 30.1351 9.71753L30.0138 12.1955C29.7593 17.2491 25.6135 21.3383 20.7526 21.3383H9.6003C4.73936 21.3383 1.00576 17.2491 1.26033 12.1955L1.38155 9.71753C1.63611 4.66395 5.78185 0.574707 10.6428 0.574707Z" fill="#FF7313"/>
<path fill-rule="evenodd" clip-rule="evenodd" d="M1.79228 9.73812C1.79228 9.73822 1.79227 9.73832 1.79227 9.73843L1.67105 12.2164C1.42768 17.0478 4.98864 20.9257 9.60182 20.9257H20.7541C25.3854 20.9257 29.362 17.0204 29.6061 12.1747C29.6061 12.1747 29.6061 12.1747 29.6061 12.1747L29.7273 9.69722L29.7274 9.69657C29.9707 4.87705 26.4094 0.987295 21.7966 0.987295H10.6443C6.01312 0.987295 2.03653 4.89246 1.79228 9.73812ZM0.973858 9.69662C1.23889 4.43527 5.55371 0.162109 10.6443 0.162109H21.7966C26.9054 0.162109 30.8112 4.4749 30.5458 9.73782M30.5458 9.73848L30.4246 12.2164C30.1595 17.4777 25.8447 21.7509 20.7541 21.7509H9.60182C4.4932 21.7509 0.587029 17.4505 0.852623 12.1749C0.852628 12.1748 0.852633 12.1747 0.852638 12.1746L0.973858 9.69662" fill="black"/>
<path d="M83.1562 13.7211C83.1562 13.1963 83.3623 12.7202 83.6896 12.3662C84.0169 12.0244 84.4776 11.8047 84.9867 11.8047C85.4958 11.8047 85.9564 12.0244 86.2837 12.3662C86.611 12.708 86.8171 13.184 86.8171 13.7211C86.8171 14.246 86.611 14.7221 86.2837 15.0761C85.9564 15.4179 85.4958 15.6376 84.9867 15.6376C84.4776 15.6376 84.0169 15.4179 83.6896 15.0761C83.3623 14.7343 83.1562 14.246 83.1562 13.7211ZM84.9988 13.9531H84.5867V14.6733H84.2472V12.7568H85.1928C85.4594 12.769 85.6655 12.9155 85.7625 13.0986C85.7989 13.184 85.8231 13.2695 85.8231 13.3549C85.8231 13.4404 85.7989 13.538 85.7625 13.6113C85.7019 13.7333 85.5807 13.831 85.411 13.892L85.8958 14.6977H85.4473L84.9988 13.9531ZM84.5867 13.5991C84.7927 13.5991 84.9624 13.5869 85.1928 13.5869H85.2291C85.3625 13.5625 85.4352 13.5136 85.4716 13.4404C85.4837 13.416 85.4958 13.3794 85.4958 13.3549C85.4958 13.3183 85.4837 13.2939 85.4716 13.2573C85.4231 13.1718 85.3382 13.1108 85.1928 13.1108H84.5988V13.5991H84.5867ZM83.9563 12.6347C83.6896 12.9155 83.5199 13.2939 83.5199 13.7211C83.5199 14.1484 83.6896 14.5268 83.9563 14.8075C84.223 15.0883 84.5988 15.2592 84.9988 15.2592C85.4109 15.2592 85.7746 15.0883 86.0413 14.8075C86.308 14.5268 86.4777 14.1484 86.4777 13.7211C86.4777 13.2939 86.308 12.9155 86.0413 12.6347C85.7746 12.354 85.3988 12.1831 84.9988 12.1831C84.5866 12.1831 84.223 12.3662 83.9563 12.6347Z" fill="black"/>
<path d="M15.7458 3.41895H16.3519C17.746 3.41895 18.8127 4.59079 18.74 6.03118L18.2672 15.4914C18.1945 16.9318 17.0065 18.1036 15.6246 18.1036H15.0185C13.6245 18.1036 12.5577 16.9318 12.6305 15.4914L13.1032 6.03118C13.176 4.59079 14.3639 3.41895 15.7458 3.41895Z" fill="white"/>
<path fill-rule="evenodd" clip-rule="evenodd" d="M15.7464 3.83153C14.5945 3.83153 13.5752 4.81909 13.513 6.05213L13.0402 15.5123C12.9787 16.7303 13.8725 17.691 15.019 17.691H15.6251C16.777 17.691 17.7963 16.7035 17.8586 15.4704L18.3313 6.01022C18.3928 4.79229 17.499 3.83153 16.3525 3.83153H15.7464ZM12.6946 6.01022C12.7778 4.36248 14.1344 3.00635 15.7464 3.00635H16.3525C17.994 3.00635 19.2337 4.38928 19.1497 6.05213L18.677 15.5123C18.5938 17.1601 17.2371 18.5162 15.6251 18.5162H15.019C13.3776 18.5162 12.1379 17.1334 12.2218 15.4706C12.2218 15.4706 12.2218 15.4705 12.2218 15.4704L12.6946 6.01022Z" fill="black"/>
<path d="M49.3124 16.0286H46.2334L46.4152 12.1713H49.5063C51.1428 12.1102 51.8701 13.5751 51.458 14.5272C51.4459 14.5272 51.2883 15.9676 49.3124 16.0286Z" fill="white"/>
<path fill-rule="evenodd" clip-rule="evenodd" d="M51.0865 14.3526C51.3624 13.6929 50.8667 12.5334 49.5215 12.5836L49.5139 12.5839H46.8059L46.663 15.616H49.3059C50.177 15.5876 50.5924 15.2645 50.7998 14.9995C50.9096 14.8593 50.9727 14.7202 51.0088 14.6167C51.0267 14.5652 51.0378 14.5229 51.0447 14.4937C51.0476 14.4813 51.0497 14.4719 51.0518 14.4619C51.0523 14.4596 51.0528 14.4573 51.0534 14.4549L51.0535 14.4542C51.0545 14.4499 51.0571 14.4379 51.0601 14.4261L51.0602 14.4257C51.0615 14.4209 51.0665 14.4017 51.0753 14.379C51.0769 14.3747 51.0806 14.3652 51.0865 14.3526ZM51.8483 14.657C51.8465 14.6651 51.8443 14.6745 51.8419 14.6846C51.8302 14.7344 51.8115 14.8052 51.7821 14.8897C51.7235 15.0581 51.6214 15.283 51.4433 15.5104C51.0754 15.9803 50.4255 16.407 49.3249 16.441L49.3186 16.4412H45.8037L46.0244 11.7587H49.499C51.397 11.6927 52.3543 13.4149 51.8483 14.657Z" fill="black"/>
<path d="M49.6874 8.54589H46.6084L46.7902 4.9205H50.0268C51.2511 4.88387 52.1361 5.79938 51.8694 6.95902C51.8694 6.95902 51.7966 8.54589 49.6874 8.54589Z" fill="white"/>
<path fill-rule="evenodd" clip-rule="evenodd" d="M51.2084 5.77209C50.9572 5.49999 50.5487 5.31769 50.0402 5.3329L50.0342 5.33308H47.181L47.0406 8.13328H49.6887C50.6247 8.13328 51.0401 7.79008 51.2374 7.51238C51.4161 7.26084 51.452 7.01068 51.4591 6.96103C51.4607 6.95027 51.4609 6.94892 51.4609 6.95901V6.91186L51.4715 6.86592C51.5747 6.41683 51.4548 6.0389 51.2084 5.77209ZM52.2764 7.02246C52.4279 6.32323 52.238 5.67534 51.8085 5.21021C51.3792 4.74517 50.7355 4.48818 50.0222 4.50789H46.4019L46.1787 8.95847H49.6887C50.8618 8.95847 51.5374 8.50824 51.9038 7.9925C52.1917 7.58726 52.2612 7.1806 52.2764 7.02246Z" fill="black"/>
</g>
<defs>
<clipPath id="clip0">
<rect width="87.4" height="21.85" fill="white" transform="translate(0.799805 0.0498047)"/>
</clipPath>
</defs>
</svg>
