<svg width="86" height="19" viewBox="0 0 86 19" fill="none" xmlns="http://www.w3.org/2000/svg">
<path fill-rule="evenodd" clip-rule="evenodd" d="M16.0019 5.53441C16.1042 6.02673 16.2239 6.40535 16.3641 6.67161C16.5025 6.93396 16.7384 7.06546 17.0704 7.06546L16.1901 9.14984C15.8434 9.96493 15.4759 11.2032 15.0781 12.8558C14.6868 14.5154 14.5624 15.6947 14.7064 16.4014C14.8484 17.0988 15.1821 17.5548 15.7024 17.7736C16.2204 17.987 16.7175 18.0955 17.1983 18.0955C17.9311 18.0955 18.7753 18.0161 19.7299 17.8487C20.6818 17.6856 21.3992 17.5146 21.8821 17.3374C22.1086 17.2559 22.2497 17.125 22.318 16.9527C22.3806 16.7823 22.3578 16.4268 22.2482 15.8891C22.1895 15.6045 22.0589 15.462 21.8458 15.462C21.5523 15.462 21.2151 15.5251 20.8386 15.6529C20.4607 15.7775 20.0779 15.8791 19.6909 15.9534C19.3023 16.034 18.6904 16.0708 17.8529 16.0708C17.6402 16.0708 17.4992 16.0468 17.4279 15.9983C17.3587 15.9534 17.3104 15.8686 17.2851 15.747C17.2182 15.4205 17.2851 14.8514 17.4834 14.0355C17.678 13.2173 17.8789 12.544 18.0784 12.0092L19.7821 11.9678C20.505 11.9507 20.9867 11.9319 21.2306 11.9033C21.4748 11.8764 21.6304 11.8189 21.6959 11.7306C21.7611 11.6387 21.7847 11.4753 21.7588 11.2364C21.7396 11.0151 21.737 10.8512 21.7455 10.7425C21.7481 10.7151 21.7544 10.6762 21.7642 10.6314C21.7724 10.5784 21.7764 10.5353 21.7683 10.4965C21.7043 10.1849 21.2756 10.0276 20.4848 10.0276C19.8735 10.0276 19.1971 10.068 18.4534 10.1538C18.6622 9.48669 18.9567 8.68884 19.3387 7.7614C19.525 7.29419 19.6777 6.98204 19.7926 6.82036C19.9069 6.65629 20.0684 6.55764 20.2772 6.51444C20.4863 6.47277 20.8884 6.45304 21.4903 6.45304C21.6546 6.45304 22.1847 6.48705 23.0873 6.55764C23.1205 6.55764 23.1827 6.56262 23.2747 6.56903C23.3638 6.57574 23.433 6.57928 23.4742 6.57928C23.7377 6.57928 23.8513 6.49749 23.8167 6.33159C23.7936 6.22106 23.6808 6.00316 23.4783 5.68096C23.1173 5.10302 22.8137 4.73838 22.5609 4.58044C22.3087 4.42307 21.9449 4.34473 21.4706 4.34473C20.417 4.34473 19.2188 4.42307 17.8754 4.58044C16.5285 4.73848 15.9054 5.05427 16.0019 5.53441Z" fill="#ED1C24"/>
<path fill-rule="evenodd" clip-rule="evenodd" d="M66.1502 16.8411C66.3742 16.5093 66.5612 16.2501 66.7097 16.0652C66.8649 15.875 67.1599 15.5156 67.5864 14.9832C68.0163 14.4531 68.4402 13.9293 68.8584 13.4186C69.2733 12.9084 69.6725 12.4338 70.0476 11.9898C70.4292 11.5485 70.851 11.0689 71.3168 10.5527L70.7525 12.9262C70.5483 13.8162 70.4163 14.4075 70.3582 14.699C70.3033 14.9896 70.2644 15.2862 70.2433 15.5843C70.2228 15.8865 70.2347 16.1536 70.2822 16.3881C70.343 16.6902 70.5198 16.9706 70.8018 17.225C71.0868 17.4847 71.395 17.6882 71.7332 17.8426C72.0724 17.9967 72.3299 18.0735 72.5109 18.0735C72.7536 18.0735 72.91 17.8771 72.9725 17.481C73.0338 17.0859 73.1065 16.266 73.1823 15.0208C73.2654 13.7801 73.3956 12.5664 73.581 11.385C73.764 10.2011 74.0684 8.97298 74.4988 7.70102C75.4009 6.95288 75.8145 6.39898 75.7418 6.03588C75.6941 5.80409 75.534 5.52326 75.2626 5.19138C74.9871 4.86017 74.722 4.69485 74.4653 4.69485C74.22 4.69485 73.7247 5.04254 72.9724 5.74087C72.22 6.44045 71.3922 7.27297 70.4843 8.24352C69.5811 9.21578 68.7524 10.1286 67.9994 10.9868C67.244 11.841 66.7881 12.3807 66.623 12.5961C66.8813 11.4263 67.1135 10.4647 67.3191 9.71432C67.5295 8.96599 67.7467 8.24256 67.9692 7.53742C68.1947 6.8343 68.332 6.37494 68.3914 6.15972C68.446 5.94258 68.4598 5.76673 68.433 5.63312C68.4108 5.52316 68.2764 5.35986 68.0372 5.14435C67.7989 4.92798 67.5394 4.73259 67.262 4.55703C66.9868 4.38204 66.7942 4.29248 66.6829 4.29248C66.4877 4.29248 66.3105 4.47427 66.1497 4.83431C65.9885 5.19531 65.8182 5.72737 65.648 6.43059C65.4742 7.13093 65.3816 7.49825 65.3731 7.52804C64.4411 10.9473 63.8636 13.2495 63.6374 14.4323C63.4127 15.6137 63.3209 16.3154 63.3654 16.5444C63.4027 16.7109 63.6374 16.9486 64.081 17.2455C64.5188 17.5421 64.8795 17.6908 65.1627 17.6908C65.3468 17.6908 65.4999 17.6333 65.6255 17.5158C65.7477 17.3984 65.9225 17.1744 66.1502 16.8411Z" fill="#ED1C24"/>
<path fill-rule="evenodd" clip-rule="evenodd" d="M84.8932 5.82659C84.6504 5.61923 84.3949 5.42872 84.121 5.25622C83.8466 5.08343 83.6763 4.99714 83.6055 4.99714C83.3875 4.99714 83.1294 5.32308 82.8375 5.96624C82.5456 6.61324 82.2772 7.31196 82.0376 8.0646C81.7952 8.81753 81.6262 9.36683 81.5372 9.70551L80.8639 9.89793C80.6452 9.96938 80.3266 10.0371 79.9096 10.1125C79.4978 10.1885 79.1962 10.2263 79.0146 10.2263C78.7549 10.2263 78.5937 10.0693 78.5321 9.76527C78.4923 9.56902 78.5496 9.20189 78.6951 8.66418C78.8465 8.12379 79.0053 7.65006 79.1699 7.23811C79.3019 6.94397 79.4132 6.68661 79.5153 6.4803C79.6096 6.26872 79.6804 6.10713 79.718 5.98961C79.7582 5.87238 79.7678 5.76252 79.7485 5.66942C79.7299 5.57757 79.6087 5.41685 79.3801 5.18889C79.1562 4.96313 78.917 4.75424 78.6616 4.56957C78.4092 4.38577 78.2279 4.29248 78.1208 4.29248C77.9391 4.29248 77.6609 4.69485 77.2847 5.49519C76.9055 6.29544 76.5814 7.15938 76.3141 8.09333C76.0418 9.02326 75.954 9.69871 76.0367 10.1087C76.1264 10.55 76.3934 11.0167 76.8344 11.5192C77.2789 12.0212 77.7104 12.2717 78.1281 12.2717C78.3527 12.2717 78.8223 12.18 79.5402 11.9995C80.2553 11.8212 80.8016 11.6688 81.1829 11.5449C81.1163 11.7558 80.9901 12.2606 80.8057 13.0514C80.619 13.8425 80.4626 14.5859 80.3382 15.2768C80.2103 15.9691 80.1673 16.4223 80.2103 16.6325C80.2731 16.9384 80.5649 17.2053 81.0818 17.4367C81.3435 17.5544 81.5969 17.6899 81.8351 17.8415C82.0783 17.99 82.2318 18.0667 82.2998 18.0667C82.5023 18.0667 82.6474 17.9334 82.7244 17.671C82.8009 17.4017 82.8576 16.9739 82.8953 16.3874C82.9316 15.7997 82.9515 15.4824 82.958 15.4256C83.1295 14.1038 83.2872 13.061 83.4266 12.2932C83.5664 11.5271 83.7218 10.8588 83.8968 10.2802C84.0707 9.70551 84.3382 8.91934 84.6957 7.92821C84.8194 7.57698 84.9581 7.24194 85.0999 6.92596C85.2447 6.61314 85.3102 6.42302 85.299 6.35798C85.2675 6.21585 85.1327 6.03722 84.8932 5.82659Z" fill="#ED1C24"/>
<path fill-rule="evenodd" clip-rule="evenodd" d="M15.0894 3.29391C15.1031 3.26316 15.1179 3.21863 15.1302 3.19679C15.4305 2.37145 15.9045 2.9354 16.163 2.8924C16.5705 2.77047 16.8036 2.41944 16.8895 1.9232C16.9426 1.62609 16.9739 1.01635 16.8093 0.762818C16.7102 0.609761 16.3607 0.353644 15.7458 0.239761C14.3917 -0.0134819 12.002 -0.0101296 9.9349 0.225777C8.39939 0.404599 6.38555 0.824979 3.71282 1.7755C2.79941 2.10039 1.37138 2.27452 0.948426 3.33222C0.605809 4.18639 0.735856 4.64662 1.11725 4.86298C1.95788 5.33834 4.02074 4.63225 4.95274 4.34721C4.97849 4.36722 5.00574 4.38724 5.04481 4.41646C4.70279 6.28005 3.94716 8.52084 3.7161 10.5839C3.24205 11.931 2.32903 15.2739 3.09102 16.5962C4.66322 17.5185 5.62266 14.9036 5.50395 14.8155C5.90205 13.6637 7.14833 8.61748 7.29568 7.25232C7.33087 6.90866 7.3609 6.63301 7.41608 6.27641C7.52237 5.58306 7.53559 4.89315 7.65699 4.24175C7.69029 4.06015 7.79847 3.91016 7.95287 3.789C8.63721 3.24841 10.2429 3.24027 10.5162 3.24027C10.7289 3.19066 11.3206 3.1034 11.792 2.95782C12.0003 2.89422 12.0021 3.18424 11.9458 3.52053C11.8893 3.85461 11.7761 4.23534 11.7506 4.35324C11.691 4.63321 11.6332 4.87294 11.5646 5.16814C11.4789 5.53795 11.3016 6.29251 10.8952 7.97623C9.97467 12.0398 9.26289 15.6542 10.0466 17.6159C10.2349 17.8813 10.8732 18.165 11.0578 18.0858C11.5303 18.0016 11.87 17.8034 12.1153 17.5343C12.5444 17.0638 12.6783 16.374 12.7141 15.6925C12.7787 14.4445 12.9619 12.5332 13.2581 10.6472C13.4546 9.3955 14.0756 6.61021 14.5847 4.79814C14.7785 4.11005 14.9628 3.57167 15.0894 3.29391Z" fill="#ED1C24"/>
<path fill-rule="evenodd" clip-rule="evenodd" d="M27.7945 18.0954C27.9669 18.0954 28.0819 17.9704 28.1375 17.7214C28.1894 17.4724 28.3093 16.7427 28.492 15.5354C28.6754 14.3321 28.9244 13.0356 29.2401 11.6437C29.5556 10.2547 30.0158 8.60825 30.6247 6.69954C30.8552 6.63843 31.2928 6.59447 31.9308 6.56037C32.5695 6.52819 33.0405 6.46871 33.3434 6.38461C33.645 6.29525 33.7655 6.11087 33.7061 5.82813C33.6664 5.62785 33.5444 5.40267 33.3413 5.16504C33.1375 4.9231 32.8608 4.71765 32.5069 4.54936C32.1562 4.37772 31.7608 4.29248 31.3238 4.29248C31.2104 4.29248 31.0366 4.30522 30.8038 4.33242C30.5463 4.35914 30.1525 4.38491 29.6265 4.41431C29.0946 4.44065 28.6994 4.46718 28.4376 4.48969C26.9337 4.5985 25.8803 4.71985 25.2715 4.85481C24.6642 4.98698 24.3906 5.21303 24.4557 5.53427C24.6525 6.49562 25.0658 6.97462 25.702 6.97462C25.801 6.97462 26.5101 6.92165 27.8281 6.81639C27.6734 7.38322 27.4522 8.22666 27.1637 9.35179C26.8795 10.4812 26.6234 11.5335 26.3989 12.5126C26.1677 13.4907 25.9789 14.3995 25.8268 15.2356C25.6702 16.0759 25.6181 16.6064 25.6645 16.8334C25.7088 17.0482 25.8698 17.2479 26.1491 17.446C26.4307 17.638 26.739 17.7942 27.0785 17.9149C27.4188 18.036 27.6598 18.0954 27.7945 18.0954Z" fill="#ED1C24"/>
<path fill-rule="evenodd" clip-rule="evenodd" d="M50.3473 10.8978C50.1853 11.8123 49.9176 12.6629 49.549 13.4621C49.1755 14.2613 48.7668 14.9023 48.3217 15.388C47.8747 15.8769 47.469 16.1216 47.1063 16.1216C46.9517 16.1216 46.7885 16.0124 46.6125 15.7918C46.4396 15.5715 46.3132 15.2721 46.2343 14.8973C46.0541 14.0083 46.0437 13.0754 46.2039 12.1147C46.3631 11.1502 46.6277 10.2689 46.994 9.46203C47.3646 8.66112 47.7712 8.01345 48.2143 7.5198C48.6578 7.02653 49.0468 6.78085 49.3848 6.78085C49.8116 6.78085 50.1309 7.30564 50.3471 8.35797C50.5061 9.1404 50.5064 9.98681 50.3473 10.8978ZM52.2882 6.75164C52.0491 6.2282 51.8042 5.82554 51.5626 5.54251C51.3202 5.26312 51.1317 5.12165 51.0085 5.12165C50.9379 5.12165 50.7886 5.17615 50.5655 5.29166C50.3422 5.40277 50.1801 5.49194 50.0876 5.55467C49.8165 5.24942 49.4993 4.96285 49.1357 4.69313C48.7757 4.42523 48.4802 4.29248 48.2605 4.29248C47.9226 4.29248 47.4369 4.57522 46.8125 5.14339C46.1882 5.71204 45.5867 6.47915 45.0048 7.43915C44.4253 8.40443 43.9973 9.50858 43.7196 10.7555C43.4403 12.0043 43.4371 13.2824 43.7047 14.5859C43.8621 15.3652 44.1628 16.0194 44.5961 16.5484C45.0307 17.0788 45.515 17.4665 46.0438 17.7167C46.5727 17.9704 47.0599 18.0955 47.5044 18.0955C48.5517 18.0955 49.558 17.6439 50.5228 16.7425C51.4849 15.8383 52.1958 14.6461 52.6538 13.1687C53.1127 11.6947 53.1832 10.1617 52.859 8.57674C52.7176 7.88693 52.5286 7.27709 52.2882 6.75164ZM60.5844 8.34514C60.28 8.73726 59.8659 9.10152 59.3402 9.44135C58.8167 9.78501 58.2673 10.054 57.691 10.2467C58.0048 8.56773 58.1268 7.54221 58.0522 7.1747C58.0096 6.9683 57.8652 6.76467 57.6226 6.56353C58.1148 6.41833 58.6643 6.34726 59.2717 6.34726C59.7519 6.34726 60.137 6.43355 60.4279 6.6163C60.7151 6.79608 60.8851 7.02069 60.9394 7.29031C61.0051 7.60543 60.885 7.95685 60.5844 8.34514ZM59.5535 14.1186C59.22 14.5698 58.7484 14.9401 58.1424 15.2289C57.5347 15.5235 56.8985 15.6662 56.2356 15.6662C56.5168 14.7484 56.7348 14.0402 56.8931 13.551C57.0464 13.0577 57.1822 12.5731 57.2906 12.0808C57.7077 11.9631 58.0914 11.9031 58.4434 11.9031C59.3109 11.9031 59.8043 12.2021 59.9253 12.7883C60.0125 13.2216 59.8905 13.6666 59.5535 14.1186ZM62.706 9.39844C63.1689 8.69799 63.3254 7.96662 63.1689 7.21091C62.9949 6.34927 62.4852 5.6494 61.6391 5.10786C60.7987 4.56555 59.7624 4.29258 58.5402 4.29258C58.0075 4.29258 57.279 4.37169 56.3623 4.52915C55.4821 4.67579 54.8295 4.82464 54.4001 4.97262C53.9747 5.12175 53.7939 5.35507 53.8612 5.67555C53.9299 6.01298 54.1009 6.34927 54.3784 6.68929C54.6535 7.02567 55.0185 7.23169 55.4759 7.31014C55.2875 8.8818 55.0623 10.2178 54.7892 11.3212C54.5168 12.4267 54.2582 13.2879 54.01 13.9092C53.763 14.5259 53.5575 15.0633 53.3937 15.513C53.2284 15.9603 53.1785 16.3478 53.2462 16.6762C53.2648 16.7679 53.4036 16.9322 53.6637 17.1658C53.9241 17.3956 54.2033 17.61 54.4993 17.8037C54.7962 17.9959 55.0102 18.0956 55.1441 18.0956C55.3415 18.0956 55.4898 18.01 55.593 17.8406C55.6983 17.6684 55.8114 17.3616 55.9323 16.9103C56.6426 17.7035 57.3315 18.0956 58.0038 18.0956C58.6425 18.0956 59.3364 17.8087 60.0818 17.2252C60.8253 16.6423 61.4249 15.9453 61.8766 15.1386C62.3278 14.3264 62.4911 13.609 62.3633 12.9897C62.2964 12.6614 62.1355 12.3169 61.8825 11.9631C61.6302 11.6056 61.2692 11.2939 60.7988 11.0188C61.6046 10.6342 62.24 10.0976 62.706 9.39844ZM40.3628 8.80805C39.9681 9.30428 39.4502 9.77112 38.8142 10.2121C38.1711 10.6487 37.572 10.953 37.0085 11.116C37.0829 10.5502 37.2336 9.74277 37.4641 8.6889C37.6 8.06192 37.7052 7.64556 37.7816 7.43561C37.8504 7.22317 37.9676 7.07471 38.1224 6.98831C38.2806 6.89972 38.5484 6.84369 38.9324 6.81696C39.0321 6.8048 39.1849 6.79618 39.3897 6.79618C40.2603 6.79618 40.7448 7.04722 40.848 7.55093C40.9197 7.89516 40.7576 8.31602 40.3628 8.80805ZM42.5707 5.93483C42.1498 5.46435 41.5831 5.07117 40.8564 4.75884C40.1366 4.44669 39.3116 4.29258 38.3792 4.29258C37.8456 4.29258 37.2844 4.34832 36.6911 4.46C36.0962 4.56775 35.6017 4.73355 35.2039 4.94762C34.8055 5.16427 34.634 5.41052 34.6907 5.69413C34.8716 6.56908 35.2021 7.11618 35.6902 7.32834C35.2385 9.16195 34.8758 10.5803 34.6107 11.5809C34.3463 12.5842 34.0699 13.5928 33.7868 14.6163C33.5022 15.6336 33.3359 16.2714 33.2857 16.518C33.2402 16.7676 33.2299 16.9733 33.2612 17.1306C33.311 17.3717 33.4163 17.529 33.5826 17.6054C33.7438 17.6824 34.0179 17.7596 34.3975 17.8403C34.5896 17.8829 34.7959 17.9352 35.0075 18.0004C35.218 18.0627 35.3641 18.0953 35.4443 18.0953C35.6788 18.0953 35.8557 17.9702 35.9695 17.7246C36.0794 17.4789 36.1741 17.1002 36.2515 16.5943C36.3269 16.087 36.4267 15.4065 36.5552 14.5563C36.6831 13.7086 36.8531 12.8833 37.0552 12.0805C37.6728 12.962 38.1818 13.4024 38.5815 13.4024C39.0525 13.4024 39.7061 13.0248 40.5346 12.2687C41.3666 11.5125 42.0725 10.654 42.6542 9.69191C43.2353 8.72998 43.4662 7.9511 43.3414 7.34759C43.2487 6.88142 42.9896 6.40999 42.5707 5.93483Z" fill="#ED1C24"/>
</svg>
