<svg width="12" height="12" viewBox="0 0 12 12" fill="none" xmlns="http://www.w3.org/2000/svg">
<path fill-rule="evenodd" clip-rule="evenodd" d="M6 10.6667C8.57733 10.6667 10.6667 8.57733 10.6667 6C10.6667 3.42267 8.57733 1.33333 6 1.33333C3.42267 1.33333 1.33333 3.42267 1.33333 6C1.33333 8.57733 3.42267 10.6667 6 10.6667ZM6 12C9.31371 12 12 9.31371 12 6C12 2.68629 9.31371 0 6 0C2.68629 0 0 2.68629 0 6C0 9.31371 2.68629 12 6 12ZM6 2C6.36819 2 6.66667 2.29848 6.66667 2.66667V5.33333L7.66667 5.33333C8.03486 5.33333 8.33333 5.63181 8.33333 6C8.33333 6.36819 8.03486 6.66667 7.66667 6.66667H6C5.63181 6.66667 5.33333 6.36819 5.33333 6V2.66667C5.33333 2.29848 5.63181 2 6 2Z" fill="black"/>
</svg>
