<svg width="65" height="65" viewBox="0 0 65 65" fill="none" xmlns="http://www.w3.org/2000/svg">
<circle cx="32.5" cy="32.5" r="32.5" fill="#FDD900"/>
<path fill-rule="evenodd" clip-rule="evenodd" d="M21.6547 28.5201C22.4175 27.8266 23.5825 27.8266 24.3454 28.5201L35.3454 38.5201C36.1627 39.2631 36.2229 40.528 35.4799 41.3453C34.7369 42.1627 33.472 42.2229 32.6547 41.4799L23 32.7029L13.3454 41.4799C12.528 42.2229 11.2631 42.1627 10.5201 41.3453C9.77712 40.528 9.83735 39.2631 10.6547 38.5201L21.6547 28.5201Z" fill="black"/>
<path fill-rule="evenodd" clip-rule="evenodd" d="M41.6547 10.5201C42.4175 9.82663 43.5825 9.82663 44.3454 10.5201L55.3454 20.5201C56.1627 21.2631 56.2229 22.528 55.4799 23.3453C54.7369 24.1627 53.472 24.2229 52.6547 23.4799L43 14.7029L33.3454 23.4799C32.528 24.2229 31.2631 24.1627 30.5201 23.3453C29.7771 22.528 29.8374 21.2631 30.6547 20.5201L41.6547 10.5201Z" fill="black"/>
<path fill-rule="evenodd" clip-rule="evenodd" d="M23 28C24.1046 28 25 28.8954 25 30V53C25 54.1046 24.1046 55 23 55C21.8954 55 21 54.1046 21 53V30C21 28.8954 21.8954 28 23 28Z" fill="black"/>
<path fill-rule="evenodd" clip-rule="evenodd" d="M43 10C44.1046 10 45 10.8954 45 12V53C45 54.1046 44.1046 55 43 55C41.8954 55 41 54.1046 41 53V12C41 10.8954 41.8954 10 43 10Z" fill="black"/>
</svg>
