<svg width="65" height="65" viewBox="0 0 65 65" fill="none" xmlns="http://www.w3.org/2000/svg">
<circle cx="32.5" cy="32.5" r="32.5" fill="#FDD900"/>
<path fill-rule="evenodd" clip-rule="evenodd" d="M26.1 9C24.9402 9 24 9.94022 24 11.1V18C24 22.2832 26.992 25.8675 31 26.777V29H28C26.8954 29 26 29.8954 26 31C26 32.1046 26.8954 33 28 33H38C39.1046 33 40 32.1046 40 31C40 29.8954 39.1046 29 38 29H35V26.777C39.008 25.8675 42 22.2832 42 18V11.1C42 9.94019 41.0598 9 39.9 9H26.1ZM28 18V13H38V18C38 20.7614 35.7614 23 33 23C30.2386 23 28 20.7614 28 18ZM27.6957 42.9V39H38.3043V45.9C38.3043 47.0598 39.2445 48 40.4043 48H52V51H14V45H25.5957C26.7554 45 27.6957 44.0598 27.6957 42.9ZM25.7957 35C24.6359 35 23.6957 35.9402 23.6957 37.1V41H12.1C10.9402 41 10 41.9402 10 43.1V52.9C10 54.0597 10.9402 55 12.1 55H53.9C55.0598 55 56 54.0598 56 52.9V46.1C56 44.9402 55.0598 44 53.9 44H42.3043V37.1C42.3043 35.9402 41.3641 35 40.2043 35H25.7957Z" fill="black"/>
</svg>
