<svg width="65" height="65" viewBox="0 0 65 65" fill="none" xmlns="http://www.w3.org/2000/svg">
<circle cx="32.5" cy="32.5" r="32.5" fill="#FDD900"/>
<path fill-rule="evenodd" clip-rule="evenodd" d="M52.0341 14.8504C54.4932 16.9973 56 20.2636 56 24.5133C56 31.8346 51.7694 37.5774 47.1338 42.0198C44.7995 44.2568 42.2879 46.2346 40.0301 47.9672C39.6577 48.2529 39.2945 48.5304 38.941 48.8004C37.1072 50.2012 35.5387 51.3993 34.3514 52.4876C33.5868 53.1886 32.4132 53.1886 31.6486 52.4876C30.4366 51.3767 28.8209 50.1692 26.9223 48.7503C26.6178 48.5227 26.306 48.2897 25.9875 48.0508C23.7313 46.3587 21.2154 44.4261 18.8768 42.2174C14.2174 37.8168 10 32.0745 10 24.5134C10 20.2636 11.5068 16.9973 13.9659 14.8504C16.3874 12.7364 19.5452 11.8703 22.5951 12.0156C26.5475 12.2038 30.6437 14.1483 33 17.667C35.3563 14.1483 39.4525 12.2038 43.4049 12.0156C46.4548 11.8703 49.6126 12.7364 52.0341 14.8504ZM43.5951 16.011C39.1298 16.2237 35 19.3419 35 24.5133C35 25.6179 34.1046 26.5133 33 26.5133C31.8954 26.5133 31 25.6179 31 24.5133C31 19.3419 26.8702 16.2237 22.4049 16.011C20.2048 15.9063 18.1126 16.5402 16.5966 17.8637C15.1182 19.1543 14 21.263 14 24.5134C14 30.4522 17.2826 35.2098 21.6232 39.3093C23.7846 41.3506 26.1437 43.168 28.3875 44.8508C28.6912 45.0786 28.9946 45.3052 29.296 45.5303C30.6054 46.5081 31.8795 47.4597 32.9964 48.3729C34.0705 47.4859 35.2922 46.5531 36.5535 45.5903C36.8984 45.3269 37.2463 45.0613 37.5949 44.7938C39.8371 43.0733 42.2005 41.2073 44.3662 39.1318C48.7306 34.9492 52 30.192 52 24.5133C52 21.263 50.8818 19.1542 49.4034 17.8636C47.8874 16.5401 45.7952 15.9063 43.5951 16.011Z" fill="black"/>
</svg>
