<svg width="110" height="110" viewBox="0 0 110 110" fill="none" xmlns="http://www.w3.org/2000/svg">
<path fill-rule="evenodd" clip-rule="evenodd" d="M106.333 3.60225C106.829 4.89093 106.186 6.33741 104.897 6.83306C96.0385 10.2402 86.7678 17.4171 79.1808 28.4872L99.1044 39.481C99.7427 39.8332 100.202 40.422 100.396 41.1036L108.986 54.4657C109.839 55.7917 109.379 57.563 107.988 58.3065L100.5 62.312V81.1543C100.5 82.1377 99.9654 83.0432 99.1044 83.5183L56.3044 107.135C55.4925 107.583 54.5075 107.583 53.6956 107.135L10.8956 83.5183C10.0346 83.0432 9.5 82.1376 9.5 81.1543V44.0818L3.11204 43.2833C-0.0515499 42.8878 -0.870903 38.681 1.91304 37.1272L42.5484 14.447C43.1729 14.0984 43.8938 13.9622 44.6025 14.0588L55.3378 15.5227L55.3343 15.5488C55.6699 15.5907 55.9994 15.6958 56.3044 15.8641L74.7847 26.0615C82.9228 14.033 93.0687 6.02539 103.102 2.16633C104.391 1.67069 105.837 2.31357 106.333 3.60225ZM67.5945 38.9809C68.9857 35.9089 70.4959 33.0128 72.1055 30.2937L57.5 22.2345V60.8277L93.0148 41.8314L76.4846 32.7101C74.828 35.4973 73.2755 38.4945 71.8535 41.7034L79.4983 39.1205C79.6661 39.0638 79.3648 39.1656 79.5324 39.109L79.6313 39.0755L79.6943 39.0543L80.3729 38.825C81.681 38.383 83.0996 39.0852 83.5416 40.3932C83.9836 41.7013 83.2814 43.12 81.9734 43.5619L68.0885 48.2532C66.7804 48.6951 65.3617 47.993 64.9198 46.685L60.2285 32.8001C59.7865 31.492 60.4887 30.0733 61.7967 29.6314C63.1048 29.1894 64.5235 29.8915 64.9654 31.1996L67.5945 38.9809ZM47.184 19.4571L44.4895 19.0897L8.87911 38.9652L11.2852 39.266L47.184 19.4571ZM97.1451 45.2925L58.5682 65.9267L64.8557 75.7072L103.433 55.0731L97.1451 45.2925ZM57.5 73.5112V100.765L95.5 79.7965V64.9864L65.3423 81.1172C64.1013 81.781 62.5587 81.3803 61.7976 80.1965L57.5 73.5112ZM14.5 46.172L52.5 66.4976V100.765L14.5 79.7965V46.172ZM52.5 60.8273L16.9856 41.8312L52.5 22.2345V60.8273Z" fill="white"/>
</svg>
