<svg width="65" height="65" viewBox="0 0 65 65" fill="none" xmlns="http://www.w3.org/2000/svg">
<circle cx="32.5" cy="32.5" r="32.5" fill="#FDD900"/>
<path fill-rule="evenodd" clip-rule="evenodd" d="M25 10C23.8954 10 23 10.8954 23 12C23 13.1046 23.8954 14 25 14H31.0979L28.4312 21H26C24.8954 21 24 21.8954 24 23C24 24.1046 24.8954 25 26 25H26.9074L24.131 32.288C23.7378 33.3202 24.2558 34.4758 25.288 34.869C26.3202 35.2622 27.4758 34.7442 27.869 33.712L31.1878 25H33C34.1046 25 35 24.1046 35 23C35 21.8954 34.1046 21 33 21H32.7116L35.7657 12.9832C36.3142 11.5432 35.2507 10 33.7098 10H25ZM16 32.9999V16.929L13.4346 19.5699C12.6649 20.3622 11.3987 20.3805 10.6064 19.6109C9.81414 18.8412 9.79579 17.575 10.5654 16.7828L16.3937 10.7831C17.7076 9.43055 20 10.3607 20 12.2463V32.9999C20 34.1044 19.1046 34.9999 18 34.9999C16.8954 34.9999 16 34.1044 16 32.9999ZM38.5 38C39.3284 38 40 37.3284 40 36.5C40 35.6716 39.3284 35 38.5 35C37.6716 35 37 35.6716 37 36.5C37 37.3284 37.6716 38 38.5 38ZM38.5 42C41.5376 42 44 39.5376 44 36.5C44 33.4624 41.5376 31 38.5 31C35.4624 31 33 33.4624 33 36.5C33 39.5376 35.4624 42 38.5 42ZM55.4142 35.4142C56.1953 34.6332 56.1953 33.3668 55.4142 32.5858C54.6332 31.8047 53.3668 31.8047 52.5858 32.5858L33.5858 51.5858C32.8047 52.3668 32.8047 53.6332 33.5858 54.4142C34.3668 55.1953 35.6332 55.1953 36.4142 54.4142L55.4142 35.4142ZM52 49.5C52 50.3284 51.3284 51 50.5 51C49.6716 51 49 50.3284 49 49.5C49 48.6716 49.6716 48 50.5 48C51.3284 48 52 48.6716 52 49.5ZM56 49.5C56 52.5376 53.5376 55 50.5 55C47.4624 55 45 52.5376 45 49.5C45 46.4624 47.4624 44 50.5 44C53.5376 44 56 46.4624 56 49.5Z" fill="black"/>
</svg>
