<svg width="110" height="110" viewBox="0 0 110 110" fill="none" xmlns="http://www.w3.org/2000/svg">
<path fill-rule="evenodd" clip-rule="evenodd" d="M61.9999 6.5C57.8578 6.5 54.4999 9.85787 54.4999 14V35.3061C54.4999 39.4482 57.8578 42.8061 61.9999 42.8061H66.4999V48.8375L74.1312 42.8061H96.9999C101.142 42.8061 104.5 39.4482 104.5 35.3061V14C104.5 9.85786 101.142 6.5 96.9999 6.5H61.9999ZM49.4999 14C49.4999 7.09645 55.0963 1.5 61.9999 1.5H96.9999C103.903 1.5 109.5 7.09644 109.5 14V35.3061C109.5 42.2096 103.903 47.8061 96.9999 47.8061H75.8686L65.7121 55.8333C64.0073 57.1807 61.4999 55.9665 61.4999 53.7935V47.7962C54.8281 47.5338 49.4999 42.0422 49.4999 35.3061V14ZM3.53551 52.6853C0.424488 45.1807 2.37019 36.6424 8.03778 30.9748L16.366 22.6466C18.1234 20.8892 20.9726 20.8892 22.73 22.6466L37.0701 36.9867C38.8275 38.7441 38.8275 41.5933 37.0701 43.3507L29.3702 51.0507C32.0832 58.0952 35.4593 63.5666 39.9764 68.0786C44.5083 72.6054 50.2978 76.2755 57.9817 79.5636L65.6324 71.9129C67.3897 70.1556 70.239 70.1556 71.9963 71.9129L86.5294 86.446C88.2868 88.2034 88.2868 91.0526 86.5294 92.81L78.2011 101.138C72.5336 106.806 63.9953 108.752 56.4907 105.641C41.9428 99.6098 31.6842 93.7674 23.5464 85.6296C15.4087 77.4918 9.56627 67.2332 3.53551 52.6853ZM11.5733 34.5103C7.25842 38.8252 5.85919 45.234 8.15436 50.7706C14.0802 65.0653 19.618 74.63 27.082 82.094C34.546 89.558 44.1107 95.0959 58.4054 101.022C63.942 103.317 70.3507 101.918 74.6656 97.6027L82.6403 89.628L68.8144 75.802L61.2719 83.3445C59.992 84.6244 58.0504 85.0234 56.3586 84.3068C48.1106 80.8133 41.6196 76.787 36.4428 71.6161C31.2564 66.4355 27.5015 60.2184 24.5713 52.5C23.9398 50.8366 24.3671 48.9826 25.5972 47.7526L33.181 40.1687L19.548 26.5357L11.5733 34.5103ZM79.4999 27C80.8806 27 81.9999 25.8807 81.9999 24.5C81.9999 23.1193 80.8806 22 79.4999 22C78.1192 22 76.9999 23.1193 76.9999 24.5C76.9999 25.8807 78.1192 27 79.4999 27ZM95.9999 24.5C95.9999 25.8807 94.8806 27 93.4999 27C92.1192 27 90.9999 25.8807 90.9999 24.5C90.9999 23.1193 92.1192 22 93.4999 22C94.8806 22 95.9999 23.1193 95.9999 24.5ZM65.4999 27C66.8806 27 67.9999 25.8807 67.9999 24.5C67.9999 23.1193 66.8806 22 65.4999 22C64.1192 22 62.9999 23.1193 62.9999 24.5C62.9999 25.8807 64.1192 27 65.4999 27Z" fill="white"/>
</svg>
