<svg width="176" height="47" viewBox="0 0 176 47" fill="none" xmlns="http://www.w3.org/2000/svg">
<path d="M1.32951 44.1806H2.67218C3.79305 44.1806 3.93767 44.6444 3.93767 45.0479C3.93767 45.4336 3.80471 45.9515 2.67218 45.9515H1.32951V44.1806ZM2.76263 43.4161H1.32951V42.1151H4.47866V41.332H0.503906V46.716H2.66674C3.99796 46.716 4.76237 46.1022 4.76237 45.0363C4.76237 44.4333 4.49725 43.4161 2.76263 43.4161Z" fill="#1D1D1E"/>
<path d="M12.8944 45.9272V46.7165H9.0332V41.3325H12.7916V42.1217H9.85881V43.5974H12.4785V44.3742H9.85881V45.9272H12.8944Z" fill="#1D1D1E"/>
<path d="M19.0654 44.3193H17.8903V42.1217H19.0654C19.9812 42.1217 20.4497 42.489 20.4497 43.2233C20.4497 44.1269 19.6968 44.3193 19.0654 44.3193ZM19.0654 41.3325H17.0654V46.7165H17.8903V45.1087H19.0654C20.4328 45.1087 21.2816 44.3859 21.2816 43.2233C21.2816 42.0553 20.4328 41.3325 19.0654 41.3325Z" fill="#1D1D1E"/>
<path d="M29.262 45.9272V46.7165H25.4023V41.3325H29.1601V42.1217H26.2272V43.5974H28.8532V44.3742H26.2272V45.9272H29.262Z" fill="#1D1D1E"/>
<path d="M38.9098 46.7165H38.0903L38.0849 43.139L36.3921 46.0602H35.946L34.2538 43.1512V46.7165H33.4414V41.3325H34.1092L36.1756 44.9039L38.2411 41.3325H38.9035L38.9098 46.7165Z" fill="#1D1D1E"/>
<path d="M52.4108 45.1089C52.4108 46.1872 51.351 46.7531 50.3028 46.7531C49.5739 46.7531 48.8634 46.488 48.3579 46.0241L48.2188 45.8981L48.6107 45.2294L48.8208 45.4281C49.1889 45.7713 49.7122 45.97 50.2603 45.97C50.8988 45.97 51.5798 45.6871 51.5798 45.0664C51.5798 44.4464 50.9536 44.3143 50.4225 44.3143H49.1764V43.5365H50.4056C50.7666 43.5365 51.3687 43.4523 51.3687 42.8563C51.3687 42.3029 50.7897 42.0555 50.2185 42.0555C49.7724 42.0555 49.3149 42.1938 48.9352 42.4467L48.7003 42.5973L48.3756 41.8568L48.5503 41.7548C49.062 41.4355 49.6403 41.2661 50.2246 41.2661C51.3687 41.2661 52.1997 41.9171 52.1997 42.8145C52.1997 43.2597 52.0134 43.6331 51.688 43.8805C52.1448 44.1394 52.4108 44.5794 52.4108 45.1089Z" fill="#1D1D1E"/>
<path d="M57.7849 44.5667L58.7126 42.5189L59.6455 44.5667H57.7849ZM59.0434 41.3325H58.387L55.9111 46.7165H56.8093L57.4355 45.3313H59.9888L60.6211 46.7165H61.5186L59.0434 41.3325Z" fill="#1D1D1E"/>
<path d="M66.2082 44.1811H67.551C68.672 44.1811 68.8164 44.6449 68.8164 45.0484C68.8164 45.4341 68.6833 45.952 67.551 45.952H66.2082V44.1811ZM67.6413 43.4166H66.2082V42.1156H69.3575V41.3325H65.3896V46.7165H67.5456C68.8766 46.7165 69.6413 46.1027 69.6413 45.0368C69.6413 44.4338 69.3814 43.4166 67.6413 43.4166Z" fill="#1D1D1E"/>
<path d="M76.255 45.9582C75.1164 45.9582 74.2924 45.1458 74.2924 44.0255C74.2924 42.9047 75.1164 42.0922 76.255 42.0922C77.3937 42.0922 78.2177 42.9047 78.2177 44.0255C78.2177 45.1458 77.3937 45.9582 76.255 45.9582ZM76.255 41.2969C74.6648 41.2969 73.4668 42.4719 73.4668 44.0255C73.4668 45.5794 74.6648 46.7536 76.255 46.7536C77.845 46.7536 79.0494 45.5794 79.0494 44.0255C79.0494 42.4719 77.845 41.2969 76.255 41.2969Z" fill="#1D1D1E"/>
<path d="M86.8355 41.3325V42.1217H85.0652V46.7165H84.2397V42.1217H82.4688V41.3325H86.8355Z" fill="#1D1D1E"/>
<path d="M95.4277 46.7165H96.2532V41.3325H95.4277V46.7165Z" fill="#1D1D1E"/>
<path d="M92.8939 45.952H91.5928V43.8982H92.8939C94.0139 43.8982 94.1585 44.4338 94.1585 44.9039C94.1585 45.3499 94.0255 45.952 92.8939 45.952ZM92.978 43.1336H91.5928V41.3325H90.7734V46.7165H92.8875C94.2242 46.7165 94.9894 46.0541 94.9894 44.8976C94.9894 43.7597 94.2728 43.1336 92.978 43.1336Z" fill="#1D1D1E"/>
<path d="M110.725 41.3325V46.7165H109.906V44.3742H107.081V46.7165H106.256V41.3325H107.081V43.5974H109.906V41.3325H110.725Z" fill="#1D1D1E"/>
<path d="M116.473 44.5667L117.4 42.5189L118.333 44.5667H116.473ZM117.731 41.3325H117.075L114.6 46.7165H115.497L116.123 45.3313H118.677L119.31 46.7165H120.213L117.731 41.3325Z" fill="#1D1D1E"/>
<path d="M133.197 45.2717L133.746 45.8259L133.589 45.9891C133.131 46.4824 132.445 46.7536 131.667 46.7536C130.084 46.7536 128.886 45.5794 128.886 44.0255C128.886 42.4719 130.084 41.2969 131.667 41.2969C132.451 41.2969 133.131 41.562 133.589 42.0497L133.746 42.2129L133.197 42.7725L133.035 42.6102C132.68 42.2608 132.24 42.0922 131.686 42.0922C130.56 42.0922 129.71 42.9233 129.71 44.0255C129.71 45.1272 130.56 45.9582 131.686 45.9582C132.234 45.9582 132.674 45.7843 133.035 45.4348L133.197 45.2717Z" fill="#1D1D1E"/>
<path d="M141.651 45.9272V46.7165H137.791V41.3325H141.549V42.1217H138.616V43.5974H141.236V44.3742H138.616V45.9272H141.651Z" fill="#1D1D1E"/>
<path d="M146.649 44.1811H147.992C149.112 44.1811 149.256 44.6449 149.256 45.0484C149.256 45.4341 149.124 45.952 147.992 45.952H146.649V44.1811ZM148.083 43.4166H146.649V42.1156H149.799V41.3325H145.824V46.7165H147.985C149.317 46.7165 150.082 46.1027 150.082 45.0368C150.082 44.4338 149.817 43.4166 148.083 43.4166Z" fill="#1D1D1E"/>
<path d="M155.918 44.3981C155.087 44.3981 154.665 44.0187 154.665 43.2719C154.665 42.5066 155.105 42.1217 155.984 42.1217H157.219V44.3981H155.918ZM155.953 41.3325C154.648 41.3325 153.834 42.0792 153.834 43.2781C153.834 44.0728 154.196 44.6688 154.84 44.9702L153.617 46.7165H154.574L155.652 45.1627C155.731 45.169 155.809 45.169 155.888 45.169H157.219V46.7165H158.044V41.3325H155.953Z" fill="#1D1D1E"/>
<path d="M165.792 44.1811C165.792 45.0066 165.126 45.6692 164.302 45.6692C163.481 45.6692 162.813 45.0066 162.813 44.1811C162.813 43.3562 163.481 42.6938 164.302 42.6938C165.126 42.6938 165.792 43.3562 165.792 44.1811Z" fill="#1D1D1E"/>
<path d="M170.896 44.1811C170.896 45.0066 170.23 45.6692 169.407 45.6692C168.584 45.6692 167.918 45.0066 167.918 44.1811C167.918 43.3562 168.584 42.6938 169.407 42.6938C170.23 42.6938 170.896 43.3562 170.896 44.1811Z" fill="#1D1D1E"/>
<path d="M176.001 44.1811C176.001 45.0066 175.334 45.6692 174.511 45.6692C173.689 45.6692 173.021 45.0066 173.021 44.1811C173.021 43.3562 173.689 42.6938 174.511 42.6938C175.334 42.6938 176.001 43.3562 176.001 44.1811Z" fill="#1D1D1E"/>
<path d="M77.3338 20.5032C77.3338 27.5975 71.5852 33.3447 64.4937 33.3447C57.4018 33.3447 51.6533 27.5975 51.6533 20.5032C51.6533 13.4127 57.4018 7.66553 64.4937 7.66553C71.5852 7.66553 77.3338 13.4127 77.3338 20.5032Z" fill="#FAD818"/>
<path d="M3.83266 5.16563H12.8804C16.1033 5.16563 19.9428 6.02027 19.9428 10.0727C19.9428 14.1602 16.1033 15.0185 12.8804 15.0185H3.83266V5.16563ZM13.7952 28.8241H3.83266V18.564H13.7952C20.7192 18.564 21.5169 21.4783 21.5169 23.6727C21.5169 25.8853 20.7192 28.8241 13.7952 28.8241ZM20.4889 16.3478C22.6368 14.9334 23.8146 12.6644 23.8146 9.9093C23.8146 4.72243 19.7585 1.62744 12.9656 1.62744H0V32.3696H13.7952C21.2471 32.3696 25.3496 29.3384 25.3496 23.8356C25.3496 20.2869 23.6262 17.642 20.4889 16.3478Z" fill="#1D1D1E"/>
<path d="M44.4716 16.3937L30.6304 21.2257C29.9678 17.3789 31.8432 14.1033 35.4629 12.8378C36.328 12.536 37.1931 12.3909 38.0368 12.3909C40.678 12.3909 43.0817 13.8302 44.4716 16.3937ZM47.0673 22.6333L46.7232 23.5835C45.9496 25.7073 44.1671 27.3488 41.7065 28.2065C37.4907 29.6779 33.5734 28.1856 31.6657 24.3989L49.1661 18.2905L48.8822 17.4749C48.8644 17.418 48.8503 17.358 48.8357 17.3012L48.8217 17.2374C48.7934 17.1205 48.7652 17.0103 48.7329 16.9147C46.9603 11.8411 42.8123 8.82764 38.1327 8.82764C36.8808 8.82764 35.5907 9.04371 34.2965 9.49425C31.3253 10.5332 29.0208 12.5997 27.8012 15.3156C26.5815 18.0315 26.5106 21.2471 27.6023 24.3775C29.3789 29.4617 33.5201 32.3905 38.384 32.3905C39.8239 32.3905 41.3269 32.1353 42.8515 31.6032C46.2582 30.4119 48.8357 28.0332 49.9247 25.0693L50.1723 24.3849L47.0673 22.6333Z" fill="#1D1D1E"/>
<path d="M56.1216 20.5029L56.1113 20.5317L56.1247 20.521C56.1215 20.5174 56.1216 20.5136 56.1216 20.5029Z" fill="#1D1D1E"/>
<path d="M70.5219 11.1425L52.9319 17.2301C52.7276 18.0775 52.6233 18.9535 52.6133 19.85L72.3836 13.0075C71.8249 12.3021 71.2009 11.6782 70.5219 11.1425ZM72.852 22.6333L72.507 23.5871C71.7306 25.711 69.9467 27.3451 67.4875 28.2065C63.2735 29.6779 59.3521 28.1856 57.4449 24.4025L74.9471 18.2905L74.6645 17.4749C74.6449 17.418 74.6285 17.358 74.6189 17.3012L74.6026 17.2374C74.5771 17.1205 74.5475 17.0103 74.5116 16.9185C74.3914 16.578 74.2618 16.2408 74.1184 15.9186L53.0325 23.2185C53.1335 23.6085 53.2504 23.9984 53.3837 24.3849C55.1603 29.4653 59.3002 32.3905 64.17 32.3905C65.6067 32.3905 67.1075 32.1353 68.6343 31.6032C72.0396 30.4119 74.6189 28.0332 75.7043 25.0656L75.9574 24.3885L72.852 22.6333ZM63.9133 8.82764C62.6627 8.82764 61.3726 9.04744 60.0766 9.49798C58.0233 10.2137 56.2848 11.4229 55.0084 13.0007L66.2889 9.09698C65.5183 8.92 64.7225 8.82764 63.9133 8.82764Z" fill="#1D1D1E"/>
<path d="M56.1216 20.5029L56.1113 20.5317L56.1247 20.521C56.1215 20.5174 56.1216 20.5136 56.1216 20.5029ZM56.1216 20.5029L56.1113 20.5317L56.1247 20.521C56.1215 20.5174 56.1216 20.5136 56.1216 20.5029ZM56.1216 20.5029L56.1113 20.5317L56.1247 20.521C56.1215 20.5174 56.1216 20.5136 56.1216 20.5029Z" fill="#1D1D1E"/>
<path d="M105.278 25.8883L107.855 28.5436L107.274 29.1607C104.575 32.0359 100.576 33.6173 96.0137 33.6173C86.6855 33.6173 79.6514 26.7288 79.6514 17.5958C79.6514 8.46295 86.6855 1.57764 96.0137 1.57764C100.605 1.57764 104.604 3.14492 107.274 5.99147L107.855 6.60854L105.278 9.26394L104.643 8.63682C102.399 6.42784 99.6051 5.35339 96.0988 5.35339C88.9718 5.35339 83.601 10.615 83.601 17.5958C83.601 24.5767 88.9718 29.8415 96.0988 29.8415C99.5696 29.8415 102.367 28.753 104.643 26.5159L105.278 25.8883Z" fill="#1D1D1E"/>
<path d="M112.347 33.4048H116.25V0H112.347V33.4048Z" fill="#1D1D1E"/>
<path d="M144.728 9.37793V33.405H140.909V30.6112C139.09 32.5221 136.478 33.5752 133.396 33.5752C127.022 33.5752 123.218 29.7211 123.218 23.2687V9.37793H127.121V23.0984C127.121 27.5373 129.351 29.8841 133.567 29.8841C138.112 29.8841 140.824 26.9807 140.824 22.1164V9.37793H144.728Z" fill="#1D1D1E"/>
<path d="M163.913 12.8982C168.689 12.8982 172.021 16.3905 172.021 21.3895C172.021 26.3922 168.689 29.884 163.913 29.884C159.166 29.884 155.847 26.3922 155.847 21.3895C155.847 16.3905 159.166 12.8982 163.913 12.8982ZM164.041 9.20756C160.779 9.20756 157.928 10.4131 155.89 12.5897V0H151.986V33.4049H155.805V30.0865C157.85 32.3091 160.772 33.5751 164.041 33.5751C170.929 33.5751 175.928 28.4518 175.928 21.3895C175.928 14.3303 170.929 9.20756 164.041 9.20756Z" fill="#1D1D1E"/>
</svg>
