<svg width="134" height="26" viewBox="0 0 134 26" fill="none" xmlns="http://www.w3.org/2000/svg">
<path d="M15.0696 12.8253C17.0603 14.1066 18.0557 15.9471 18.0557 18.3468C18.0557 20.4668 17.3034 22.1909 15.7987 23.5188C14.2941 24.8468 12.4306 25.5108 10.2084 25.5108H0V1.04839H9.51396C11.6899 1.04839 13.507 1.70072 14.9654 3.00537C16.4469 4.28674 17.1876 5.96416 17.1876 8.03763C17.1876 9.99462 16.4816 11.5905 15.0696 12.8253ZM9.51396 6.29032H5.5556V10.6237H9.51396C10.139 10.6237 10.6482 10.4256 11.0417 10.0296C11.4353 9.61021 11.632 9.08602 11.632 8.45699C11.632 7.82795 11.4353 7.31541 11.0417 6.91936C10.6482 6.5 10.139 6.29032 9.51396 6.29032ZM10.2084 20.2688C10.9029 20.2688 11.4584 20.0591 11.8751 19.6398C12.2918 19.1971 12.5001 18.6263 12.5001 17.9274C12.5001 17.2285 12.2918 16.6694 11.8751 16.25C11.4584 15.8073 10.9029 15.586 10.2084 15.586H5.5556V20.2688H10.2084Z" fill="#252524"/>
<path d="M25.6382 18.871C26.2401 20.5018 27.629 21.3172 29.8049 21.3172C31.217 21.3172 32.3281 20.8746 33.1383 19.9892L37.305 22.4005C35.592 24.8002 33.0688 26 29.7355 26C26.8188 26 24.4808 25.1263 22.7215 23.379C20.9854 21.6317 20.1173 19.4301 20.1173 16.7742C20.1173 14.1416 20.9738 11.9516 22.6868 10.2043C24.4229 8.43369 26.6452 7.54839 29.3535 7.54839C31.8767 7.54839 33.9716 8.43369 35.6383 10.2043C37.3281 11.9516 38.173 14.1416 38.173 16.7742C38.173 17.5197 38.1036 18.2186 37.9647 18.871H25.6382ZM25.534 14.957H32.9994C32.4901 13.1165 31.2632 12.1962 29.3188 12.1962C27.3049 12.1962 26.0433 13.1165 25.534 14.957Z" fill="#252524"/>
<path d="M45.6104 18.871C46.2123 20.5018 47.6012 21.3172 49.7771 21.3172C51.1892 21.3172 52.3003 20.8746 53.1105 19.9892L57.2772 22.4005C55.5642 24.8002 53.041 26 49.7077 26C46.791 26 44.453 25.1263 42.6937 23.379C40.9576 21.6317 40.0895 19.4301 40.0895 16.7742C40.0895 14.1416 40.946 11.9516 42.659 10.2043C44.3951 8.43369 46.6174 7.54839 49.3257 7.54839C51.8489 7.54839 53.9438 8.43369 55.6105 10.2043C57.3003 11.9516 58.1452 14.1416 58.1452 16.7742C58.1452 17.5197 58.0758 18.2186 57.9369 18.871H45.6104ZM45.5062 14.957H52.9716C52.4623 13.1165 51.2355 12.1962 49.291 12.1962C47.2771 12.1962 46.0155 13.1165 45.5062 14.957Z" fill="#252524"/>
<path d="M72.8703 26C69.236 26 66.2151 24.7885 63.8077 22.3656C61.4234 19.9194 60.2313 16.8907 60.2313 13.2796C60.2313 9.66846 61.4234 6.65143 63.8077 4.22849C66.2151 1.78226 69.236 0.559138 72.8703 0.559138C75.0462 0.559138 77.0601 1.07168 78.912 2.09677C80.7638 3.09857 82.2222 4.47312 83.287 6.22043L78.4953 9.01613C77.9629 8.06093 77.199 7.32706 76.2036 6.81452C75.2082 6.27867 74.0971 6.01075 72.8703 6.01075C70.7175 6.01075 68.9929 6.67473 67.6966 8.00269C66.4235 9.33064 65.7869 11.0896 65.7869 13.2796C65.7869 15.4695 66.4235 17.2285 67.6966 18.5565C68.9929 19.8844 70.7175 20.5484 72.8703 20.5484C74.0971 20.5484 75.2082 20.2805 76.2036 19.7446C77.2222 19.2088 77.986 18.4749 78.4953 17.543L83.287 20.3387C82.2453 22.086 80.7986 23.4722 78.9467 24.4973C77.0948 25.4991 75.0694 26 72.8703 26Z" fill="#252524"/>
<path d="M86.0561 25.5108V0H91.2645V25.5108H86.0561Z" fill="#252524"/>
<path d="M106.291 8.03763H111.5V25.5108H106.291V23.8683C105.25 25.2894 103.594 26 101.326 26C99.474 26 97.9231 25.3593 96.6731 24.078C95.4462 22.7966 94.8328 21.026 94.8328 18.7661V8.03763H100.041V17.9973C100.041 19.0224 100.319 19.8145 100.874 20.3737C101.453 20.9095 102.182 21.1774 103.062 21.1774C104.057 21.1774 104.844 20.8746 105.423 20.2688C106.002 19.6631 106.291 18.7661 106.291 17.578V8.03763Z" fill="#252524"/>
<path d="M125.701 7.54839C127.993 7.54839 129.949 8.44534 131.569 10.2392C133.19 12.0099 134 14.1882 134 16.7742C134 19.3602 133.19 21.5502 131.569 23.3441C129.949 25.1147 127.993 26 125.701 26C123.479 26 121.755 25.2894 120.528 23.8683V25.5108H115.319V1.04839H120.528V9.68011C121.755 8.25896 123.479 7.54839 125.701 7.54839ZM121.674 19.8844C122.461 20.6532 123.456 21.0376 124.66 21.0376C125.863 21.0376 126.847 20.6532 127.611 19.8844C128.398 19.1156 128.792 18.0789 128.792 16.7742C128.792 15.4695 128.398 14.4328 127.611 13.664C126.847 12.8952 125.863 12.5108 124.66 12.5108C123.456 12.5108 122.461 12.8952 121.674 13.664C120.91 14.4328 120.528 15.4695 120.528 16.7742C120.528 18.0789 120.91 19.1156 121.674 19.8844Z" fill="#252524"/>
</svg>
