<svg width="18" height="18" viewBox="0 0 18 18" fill="none" xmlns="http://www.w3.org/2000/svg">
<path fill-rule="evenodd" clip-rule="evenodd" d="M4.94436 5C4.94436 3.34315 6.30607 2 7.98583 2H10.0135C11.6932 2 13.0549 3.34315 13.0549 5V7H4.94436V5ZM2.91672 7V5C2.91672 2.23858 5.18623 0 7.98583 0H10.0135C12.8131 0 15.0826 2.23858 15.0826 5V7H16.4786C17.4515 7 18.1742 7.88862 17.9632 8.8254L16.1608 16.8254C16.0062 17.5117 15.3891 18 14.6763 18H3.3237C2.61093 18 1.9938 17.5117 1.83918 16.8254L0.0368304 8.8254C-0.174218 7.88863 0.548463 7 1.52135 7H2.91672ZM3.73033 16L2.15327 9H15.8467L14.2697 16H3.73033Z" fill="black"/>
</svg>
