<svg width="14" height="12" viewBox="0 0 14 12" fill="none" xmlns="http://www.w3.org/2000/svg">
<path fill-rule="evenodd" clip-rule="evenodd" d="M0 1.33344C0 0.903887 0.35964 0.555664 0.803279 0.555664H13.1967C13.6404 0.555664 14 0.903887 14 1.33344C14 1.763 13.6404 2.11122 13.1967 2.11122H0.803279C0.35964 2.11122 0 1.763 0 1.33344ZM0 6.00011C0 5.57055 0.35964 5.22233 0.803279 5.22233H13.1967C13.6404 5.22233 14 5.57055 14 6.00011C14 6.42966 13.6404 6.77789 13.1967 6.77789H0.803279C0.35964 6.77789 0 6.42966 0 6.00011ZM0 10.6668C0 10.2372 0.35964 9.889 0.803279 9.889H13.1967C13.6404 9.889 14 10.2372 14 10.6668C14 11.0963 13.6404 11.4446 13.1967 11.4446H0.803279C0.35964 11.4446 0 11.0963 0 10.6668Z" fill="black"/>
</svg>
