<svg width="18" height="18" viewBox="0 0 18 18" fill="none" xmlns="http://www.w3.org/2000/svg">
<g clip-path="url(#clip0)">
<path fill-rule="evenodd" clip-rule="evenodd" d="M4.70014 2.88227C3.92272 2.88227 3.1939 3.19662 2.64864 3.76792C1.51671 4.9538 1.51671 6.88415 2.64954 8.07192L9.00109 14.727L15.3535 8.07192C16.4864 6.88415 16.4864 4.9538 15.3535 3.76792C14.263 2.62439 12.3411 2.62627 11.2505 3.76792L9.63813 5.45733C9.29981 5.81215 8.70236 5.81215 8.36404 5.45733L6.75164 3.76698C6.20637 3.19662 5.47845 2.88227 4.70014 2.88227ZM8.99961 17C8.76116 17 8.53172 16.9012 8.36346 16.7233L1.37397 9.40094C-0.457988 7.48094 -0.457988 4.35718 1.37397 2.43718C2.25935 1.51106 3.43986 1 4.69866 1C5.95745 1 7.13886 1.51106 8.02334 2.43718L8.99961 3.46024L9.97587 2.43812C10.8613 1.51106 12.0418 1 13.3015 1C14.5594 1 15.7408 1.51106 16.6252 2.43718C18.4581 4.35718 18.4581 7.48094 16.6261 9.40094L9.63665 16.7242C9.46749 16.9012 9.23895 17 8.99961 17Z" fill="#231F20"/>
</g>
<defs>
<clipPath id="clip0">
<rect width="18" height="18" fill="white"/>
</clipPath>
</defs>
</svg>
