<svg width="1920" height="580" viewBox="0 0 1920 580" fill="none" xmlns="http://www.w3.org/2000/svg">
<g clip-path="url(#clip0)">
<rect width="1920" height="580" fill="#EEEEEE"/>
<path d="M1416.36 401.928L1373.2 442.053L1373.1 442.153L1373 442.212L1358.59 452.683L1358.55 452.703L1329.36 472.926L1329.08 473.126L1328.76 473.225L1319.31 476.063L1318.83 476.203L1318.35 476.123L1264.36 466.551L1264.22 466.531L1264.04 466.471L1210.88 447.848L1210.2 447.608L1209.82 447.008L1192.78 420.951L1154.13 361.703L1154.03 361.543L1153.95 361.363L1139.63 326.653L1125.34 308.289L1125.1 307.969L1124.98 307.55L1113.83 266.685L1113.75 266.406V266.126L1114.33 211.833V211.374L1114.51 210.974L1127.84 182.219L1133.29 161.057L1129.15 139.656L1129.01 138.957L1129.33 138.317L1141.66 113.998L1141.94 113.459L1142.46 113.139L1166.08 98.6918L1166.66 98.3521L1167.32 98.3921L1179.85 99.2114L1197.1 90.2392L1218.04 73.4738L1218.28 73.294L1218.5 73.194L1233.62 66.5199L1233.94 66.38L1234.3 66.36L1257.24 64.5815H1257.4H1265.16H1265.72L1266.22 64.8613L1285.7 75.9916L1313.41 82.9256L1341.35 83.6249L1342.11 83.6449L1342.67 84.1245C1342.73 84.1845 1363.23 101.849 1365.35 103.967C1367.57 106.185 1427.13 160.138 1427.29 160.298L1427.59 160.558L1427.77 160.918L1434.83 175.025L1434.97 175.325L1435.03 175.625L1437.85 191.831L1437.87 191.951V192.13L1439.28 243.586V243.745L1439.26 243.865L1431.15 319.639L1431.13 319.779V319.819L1429.45 328.212L1435.69 355.968L1435.77 356.327L1435.73 356.667L1432.91 380.626L1432.85 381.206L1432.47 381.685L1416.6 401.768L1416.48 401.908L1416.38 402.008L1416.36 401.928ZM1370.42 438.875L1413.39 398.93L1428.75 379.467L1431.47 356.427L1425.22 328.591L1425.12 328.132L1425.2 327.712L1426.96 318.94L1435.03 243.426L1433.63 192.31L1430.87 176.504L1424.14 163.056C1419.68 159.019 1364.25 108.803 1362.31 106.865C1360.41 104.966 1343.73 90.5589 1340.43 87.7214L1312.99 87.042H1312.73L1312.53 86.982L1284.34 79.9282L1284.06 79.8482L1283.8 79.7084L1264.56 68.7179H1257.4L1234.94 70.4564L1220.38 76.8908L1199.47 93.6162L1199.27 93.7761L1199.13 93.856L1181.23 103.168L1180.71 103.428L1180.13 103.388L1167.68 102.568L1145.14 116.356L1133.41 139.496L1137.51 160.638L1137.59 161.097L1137.47 161.557L1131.83 183.418L1131.77 183.638L1131.71 183.778L1118.5 212.273L1117.94 265.806L1128.89 305.971L1143.1 324.235L1143.26 324.435L1143.38 324.715L1157.75 359.525L1196.28 418.613L1212.94 444.071L1265.24 462.395L1318.61 471.847L1327.28 469.249L1356.16 449.246L1370.48 438.855L1370.42 438.875Z" fill="#DADADA"/>
<path d="M-104.093 -87.386L-63.868 -82.3504H-63.8281L-36.352 -77.8543L-25.8012 -77.4946L-21.1053 -79.5728L-20.8855 -79.6727H-20.6457L6.69048 -78.8335H6.85034L6.99022 -78.7935L28.0918 -71.9594L65.779 -74.4972L81.3055 -78.7335L106.064 -85.5876L106.164 -85.6076H106.264L111.759 -86.0272L112.039 -86.0472L112.298 -85.9073L133.24 -75.4364L156.3 -74.0376L156.5 -74.0177L156.68 -73.9377L181.118 -62.5676L190.83 -62.0481L191.05 -62.0281L191.23 -61.9482L206.357 -54.7744L236.131 -41.6059L316.261 -42.3053H316.381L316.481 -42.2853L407.801 -23.0621L467.409 -18.1863L502.379 -17.4669H502.518L502.618 -17.447L513.209 -14.7893L513.409 -14.7493L513.569 -14.6294L523.44 -7.57555L523.52 -7.5156L523.56 -7.47564L544.002 12.9665L572.857 41.8214L617.179 74.9126L617.238 74.9725L617.318 75.0524L636.981 96.8335L656.464 111.441C657.483 111.681 660.781 112.72 670.032 117.116C680.403 122.051 683.261 123.19 686.198 124.349C686.358 124.409 686.578 124.489 687.417 124.829C689.036 125.469 693.352 126.608 698.328 127.906C703.923 129.365 710.337 131.064 714.853 132.562C723.446 135.42 745.127 143.113 745.187 143.133L745.407 143.213L745.567 143.373L760.234 157.341L771.164 162.117L787.55 163.156H787.67L787.81 163.196L804.375 168.471L822.659 174.106L832.851 176.184C834.589 176.064 852.833 174.766 855.531 174.766C858.408 174.766 879.21 177.243 879.27 177.243L879.69 177.283L879.97 177.603L887.283 186.435L887.323 186.495L887.363 186.575L893.777 197.106L902.19 209.036C902.61 209.535 908.225 216.169 909.144 215.77C910.663 215.11 913.62 215.41 915.379 215.59C915.858 215.63 916.238 215.67 916.418 215.67C916.717 215.67 917.837 215.75 919.315 215.85C922.193 216.05 926.509 216.349 928.847 216.349C932.024 216.349 942.255 215.17 943.994 214.97C944.913 214.371 948.61 212.073 949.989 212.533C951.008 212.872 960.759 215.69 960.779 215.71H960.799L990.493 224.862L990.573 224.882L990.633 224.902L999.565 229.018L1014.67 228.339L1022.96 225.681L1030.26 216.749L1030.4 216.569L1030.6 216.469L1037.47 213.032L1045.09 204.719L1045.21 204.58L1045.35 204.5L1065.79 193.229L1066.05 193.09L1066.35 193.11L1076.92 193.809L1077.12 193.829L1077.32 193.929L1084.25 197.386L1096.12 200.183L1096.24 200.203L1096.36 200.263L1107.33 205.898C1108.03 206.178 1121.02 211.534 1122.44 212.253C1123.7 212.872 1128.43 213.552 1128.45 213.552L1128.99 213.632L1129.23 214.131L1134.75 225.182L1142.02 230.477L1160.74 230.137L1168.6 225.022L1168.82 224.882L1169.06 224.862L1175.41 224.163L1175.63 224.143L1175.85 224.222L1199.05 231.956L1229.33 238.29L1228.89 240.348L1198.57 233.994H1198.53L1198.45 233.974L1175.41 226.301L1169.54 226.96L1161.64 232.116L1161.38 232.275H1161.08L1141.7 232.635H1141.34L1141.06 232.435L1133.31 226.8L1133.11 226.66L1132.99 226.421L1127.59 215.63C1126.23 215.41 1122.72 214.831 1121.48 214.191C1120.12 213.512 1106.51 207.917 1106.47 207.897L1106.39 207.857L1095.5 202.262L1083.63 199.464L1083.53 199.444L1083.41 199.384L1076.56 195.967L1066.51 195.288L1046.48 206.338L1038.85 214.671L1038.71 214.811L1038.53 214.891L1031.68 218.308L1024.32 227.32L1024.12 227.56L1023.82 227.659L1015.11 230.457L1014.97 230.497H1014.83L999.326 231.196L999.066 231.216L998.826 231.116L989.714 226.92L960.1 217.788C959.68 217.668 950.328 214.951 949.249 214.591C948.71 214.411 944.873 216.929 944.873 216.949L944.673 217.089L944.413 217.109C944.373 217.109 932.364 218.527 928.787 218.527C926.429 218.527 922.033 218.228 919.115 218.008C917.697 217.908 916.638 217.828 916.358 217.828C916.118 217.828 915.678 217.788 915.099 217.728C913.54 217.568 910.923 217.308 909.883 217.748C907.486 218.787 900.492 210.414 900.472 210.395L900.412 210.315L891.959 198.325L891.919 198.265L885.525 187.774L878.531 179.322C875.573 178.982 857.989 176.904 855.451 176.904C852.633 176.904 832.851 178.322 832.791 178.322H832.651L832.511 178.282L822.12 176.144L822.06 176.124L822.02 176.104L803.696 170.469L787.27 165.214L770.825 164.155L770.645 164.135L770.465 164.055L759.195 159.119L759.015 159.039L758.875 158.919L744.228 144.972C741.97 144.172 722.007 137.098 714.154 134.481C709.738 133.002 703.343 131.323 697.768 129.865C692.713 128.546 688.317 127.387 686.598 126.707L685.379 126.228C682.422 125.049 679.524 123.91 669.093 118.934C657.483 113.399 655.945 113.379 655.945 113.379L655.605 113.359L655.345 113.159L635.602 98.3521L635.523 98.2922L635.463 98.2122L615.8 76.4512L571.478 43.3601L571.418 43.3201L571.358 43.2601L542.464 14.3653L522.061 -6.0369L512.45 -12.9109L502.159 -15.4887L467.269 -16.208H467.209L407.561 -21.0838H407.501L407.421 -21.1038L316.121 -40.307L235.871 -39.6076H235.631L235.431 -39.6876L205.457 -52.936L205.437 -52.956L190.47 -60.0498L180.759 -60.5694L180.539 -60.5894L180.359 -60.6693L155.92 -72.0394L132.861 -73.4382L132.641 -73.4581L132.441 -73.5581L111.559 -84.0089L106.424 -83.6093L81.7651 -76.7952L66.1187 -72.5389L65.9988 -72.499H65.8989L27.932 -69.9412L27.7321 -69.9212L27.5323 -69.9812L6.37076 -76.8352L-20.5858 -77.6745L-25.2817 -75.5963L-25.5015 -75.4964H-25.7413L-36.6118 -75.856H-36.6917L-36.7517 -75.876L-64.2477 -80.3921L-104.473 -85.4277L-104.213 -87.5259L-104.093 -87.386Z" fill="#DADADA"/>
<path d="M999.708 -154.748C999.708 -151.011 1013.8 -131.008 1014.93 -129.39L1043.03 -105.511L1043.27 -105.291L1043.35 -104.971L1051.08 -76.8755L1075 -26.9191L1075.02 -26.8991L1078.46 -19.3257L1092.31 -6.17712L1101.34 -1.30138L1101.4 -1.2814L1101.46 -1.24142L1111.33 5.81242L1111.37 5.8324L1111.43 5.89235L1119.46 13.2659L1125.36 11.7073L1131.87 5.89235L1132.23 5.57263L1132.71 5.63258L1137.65 6.33197H1137.71L1137.77 6.35194L1156.09 11.2876L1156.39 11.3676L1156.61 11.6074L1171.42 28.5326L1171.62 28.7524L1171.66 29.0522L1175.18 50.7932L1177.89 58.2867L1191.12 72.874L1196.46 77.7098L1199.37 79.4083L1199.63 79.5482L1199.77 79.8079L1201.85 83.6046L1204.47 86.8818L1202.83 88.2006L1200.15 84.8436L1200.09 84.7636L1200.05 84.6837L1198.08 81.0668L1195.34 79.4682L1195.26 79.4083L1195.18 79.3284L1189.72 74.3727L1189.68 74.3327L1189.64 74.2928L1176.25 59.5056L1176.11 59.3458L1176.05 59.146L1173.24 51.3727L1173.2 51.2728L1173.18 51.1729L1169.7 29.6117L1155.31 13.166L1137.35 8.33023L1132.97 7.71077L1126.64 13.3658L1126.44 13.5457L1126.2 13.6056L1119.5 15.3641L1118.94 15.504L1118.52 15.1243L1110.13 7.43102L1100.36 0.457092L1091.25 -4.45863L1091.13 -4.51857L1091.03 -4.61848L1076.92 -18.0068L1076.76 -18.1467L1076.68 -18.3265L1073.16 -26.0798L1049.2 -76.1162L1049.16 -76.1961L1049.14 -76.296L1041.47 -104.172L1013.52 -127.931L1013.42 -128.011L1013.34 -128.111C1013.3 -128.171 997.63 -150.252 997.63 -154.808H999.748L999.708 -154.748Z" fill="#DADADA"/>
<path d="M1223.89 -155.448C1223.89 -150.732 1217.78 -127.752 1216.9 -124.535L1222.29 -113.404C1223.11 -112.545 1228.17 -107.19 1228.87 -106.49C1229.71 -105.651 1232.94 -98.8171 1232.94 -98.7971L1233.04 -98.5773V-98.3375V-89.9448L1234.08 -82.6312L1235.84 -69.6625L1237.24 -64.0674L1237.28 -63.9275V-63.8076V-54.6356V-54.4158L1237.18 -54.196L1229.11 -36.2916L1227.37 -29.6973L1225.25 -20.5453L1225.23 -20.4254L1225.17 -20.3055L1222.51 -14.9902L1223.11 -11.9928L1228.65 -2.98062L1228.81 -2.72086V-2.42111V10.7674L1233.66 22.5571L1233.7 22.677L1233.72 22.7769L1237.24 42.5197L1237.28 42.6996L1237.24 42.8994L1235.84 50.5727L1235.46 68.4771L1234.96 98.2512L1238.08 107.963L1238.14 108.163L1238.12 108.362L1237.26 121.271L1246.09 130.103L1246.21 130.223L1246.29 130.383L1251.23 140.255L1251.29 140.374L1251.31 140.494L1254.83 156.001L1254.87 156.141V156.281L1254.17 174.365L1261.12 190.351L1261.18 190.491L1261.2 190.631L1263.32 208.255L1261.22 208.495L1259.12 191.01L1252.13 174.944L1252.03 174.725V174.485L1252.73 156.301L1249.25 141.054L1244.45 131.462L1235.4 122.41L1235.06 122.07L1235.1 121.591L1235.96 108.402L1232.84 98.7307L1232.78 98.5709V98.391L1233.28 68.4371L1233.66 50.4528V50.3729L1233.68 50.293L1235.06 42.7395L1231.59 23.2765L1226.71 11.4068L1226.63 11.207V11.0072V-2.08141L1221.15 -10.9936L1221.05 -11.1535L1221.01 -11.3333L1220.32 -14.8503L1220.26 -15.19L1220.42 -15.5097L1223.17 -21.0249L1225.27 -30.077V-30.117L1227.03 -36.8111L1227.05 -36.8911L1227.09 -36.971L1235.1 -54.7355V-63.5478L1233.72 -69.063L1233.7 -69.103V-69.1829L1231.95 -82.2116L1230.89 -89.6051L1230.87 -89.6851V-89.745V-97.9778C1230.31 -99.1368 1227.81 -104.352 1227.29 -104.852C1226.63 -105.511 1220.6 -111.906 1220.58 -111.926L1220.46 -112.046L1220.38 -112.185L1214.74 -123.815L1214.56 -124.175L1214.66 -124.555C1214.68 -124.635 1221.67 -150.512 1221.67 -155.308H1223.79L1223.89 -155.448Z" fill="#DADADA"/>
<path d="M941.197 -153.349C941.197 -150.851 966.335 -112.444 966.395 -112.344L966.455 -112.244L966.495 -112.125L978.724 -79.6528L1006.3 -60.4496L1042.25 -35.0717L1042.27 -35.0517L1068.95 -15.3888L1080.08 -11.2125L1080.34 -11.1126L1080.52 -10.8927L1113.65 29.2922L1129.79 48.9551L1133.95 52.4121L1134.27 52.6719L1134.33 53.0715L1134.99 57.6875L1145.36 69.4373L1145.4 69.4772L1145.42 69.4972L1163.04 93.4563L1163.06 93.4763L1172.18 106.805L1178.47 113.799L1178.61 113.958L1178.69 114.158L1190.3 146.15L1194.86 154.923L1194.88 154.943C1194.88 154.943 1196.39 157.98 1196.39 159.639C1196.39 160.098 1198.45 164.215 1200.51 168.331C1202.69 172.667 1204.85 177.024 1204.85 177.963C1204.85 179.022 1208.7 187.394 1209.52 189.173L1226.11 197.466L1226.21 197.506L1226.27 197.546L1249.89 214.811L1248.65 216.509L1225.09 199.284L1208.26 190.871L1207.94 190.712L1207.78 190.372C1207.76 190.332 1202.75 179.581 1202.75 177.943C1202.75 177.483 1200.69 173.367 1198.63 169.25C1196.45 164.914 1194.3 160.558 1194.3 159.619C1194.3 158.52 1193.12 156.102 1193 155.862L1188.42 147.05L1188.4 147.01L1188.38 146.93L1176.81 115.057L1170.6 108.164L1170.56 108.124L1170.52 108.064L1161.37 94.6753L1143.78 70.7561L1133.25 58.8265L1133.03 58.5867L1132.99 58.287L1132.35 53.7509L1128.43 50.4938L1128.35 50.4338L1128.29 50.3539L1112.09 30.6111L1079.14 -9.3541L1068.13 -13.4905L1067.99 -13.5504L1067.87 -13.6304L1041.09 -33.3532L1005.14 -58.7311L977.305 -78.1142L977.046 -78.294L976.926 -78.5938L964.636 -111.265C963.318 -113.284 939.139 -150.291 939.139 -153.349H941.257H941.197Z" fill="#DADADA"/>
<path d="M1498.11 -151.93C1498.11 -150.232 1489 -139.721 1488.06 -138.642L1478.31 -121.237L1471.3 -90.3839L1471.28 -90.3239L1462.14 -58.7314L1461.79 -40.1876V-40.0277L1461.75 -39.8879L1455.75 -21.2041L1455.67 -20.9444L1455.47 -20.7645L1438.67 -4.65855L1429.57 12.1068L1429.49 12.2667L1429.37 12.3866L1419.76 21.3188L1417 35.0868L1416.94 35.4265L1416.68 35.6663L1410.53 41.1415L1402.88 60.6445L1402.74 60.9842L1402.42 61.1641L1382.13 73.0537L1356.42 102.248V104.666V105.006L1356.2 105.286L1347.74 116.556L1347.66 116.676L1347.58 116.756L1331.44 130.084L1325.88 137.038L1315.33 150.386L1310.08 157.74L1299.89 177.603L1296.49 201.961L1297.19 208.176L1295.09 208.416L1294.39 202.061L1294.37 201.941L1294.39 201.802L1297.83 177.143L1297.85 176.963L1297.93 176.803L1308.24 156.701L1308.28 156.621L1308.32 156.561L1313.61 149.167L1313.65 149.127L1324.23 135.739L1329.86 128.685L1329.94 128.585L1330 128.525L1346.13 115.197L1354.28 104.306V101.829V101.429L1354.54 101.129L1380.62 71.5151L1380.72 71.3952L1380.88 71.2953L1401 59.5055L1408.61 40.1024L1408.71 39.8626L1408.89 39.7028L1414.97 34.3075L1417.72 20.5595L1417.78 20.2198L1418.04 19.98L1427.79 10.9279L1436.87 -5.83752L1436.95 -5.9774L1437.07 -6.09731L1453.79 -22.1233L1459.65 -40.4074L1459.99 -58.9313V-59.0711L1460.03 -59.211L1469.18 -90.8834L1476.23 -121.876L1476.27 -122.036L1476.35 -122.156L1486.22 -139.781L1486.26 -139.861L1486.34 -139.961C1486.36 -140.001 1495.96 -150.931 1495.96 -151.95H1498.07L1498.11 -151.93Z" fill="#DADADA"/>
<path d="M1339.85 260.53L1357.14 254.535V254.515L1391.69 243.245L1433.19 227.778L1444.42 222.163L1444.44 222.143L1474.05 208.735L1474.11 208.715L1474.15 208.695L1482.71 205.898L1482.85 205.858L1483.03 205.838L1509.9 205.478L1522.79 200.962L1522.87 200.922L1522.95 200.902L1552.09 195.986L1577.86 189.652L1578.02 189.612H1578.2L1587.1 190.311L1596.47 186.195L1596.57 186.155L1596.69 186.115L1631.48 179.76L1688.57 167.791L1688.63 167.771H1688.69L1802.97 156.501L1803.13 156.481L1803.29 156.521L1812.36 158.259L1812.48 158.279L1812.6 158.339L1829.12 166.092L1834.62 168.35L1844.71 162.295L1880.66 138.336L1887.69 133.421L1887.75 133.361H1887.77L1892.71 130.543L1892.97 130.383L1893.27 130.403L1925 131.822L1924.9 133.92L1893.49 132.521L1888.83 135.179L1881.84 140.075L1881.82 140.095L1845.87 164.054L1845.83 164.074L1835.26 170.428L1834.8 170.708L1834.32 170.488L1828.32 168.03L1828.28 168.011L1811.84 160.317L1803.03 158.619L1688.95 169.869L1631.9 181.838H1631.88L1597.21 188.173L1587.69 192.349L1587.45 192.449L1587.2 192.429L1578.2 191.73L1552.55 198.064H1552.47L1523.39 202.98L1510.44 207.536L1510.28 207.576H1510.1L1483.23 207.956L1474.87 210.693L1445.32 224.062L1434.07 229.677L1434.01 229.717H1433.97L1392.38 245.243H1392.34L1357.79 256.533L1340.55 262.508L1339.85 260.53Z" fill="#DADADA"/>
<path d="M1341.69 294.92L1348.92 301.174L1359.89 307.349L1369.15 307.689H1369.27L1369.37 307.709L1383.81 311.585L1402.1 315.802L1402.26 315.842L1402.4 315.922C1402.44 315.942 1415.21 323.755 1418.1 326.652C1420.7 329.25 1426.74 330.589 1426.76 330.609L1427.09 330.689L1427.31 330.949L1432.87 337.183L1436.99 339.921L1437.05 339.981L1463.84 361.122C1463.86 361.142 1470.96 366.817 1472.04 367.896C1472.66 368.516 1477.23 373.531 1481.05 377.828C1483.67 380.745 1485.92 383.323 1486.34 383.922C1487.24 385.221 1495.95 396.411 1497.03 397.81L1503.25 401.947L1507.48 404.764L1507.56 404.824L1507.64 404.904L1526.69 423.947L1526.83 424.087L1526.91 424.287L1532.44 437.436L1549.87 452.083L1550.01 452.203L1550.11 452.363L1557.08 464.552L1572.11 477.821L1572.17 477.881L1600.72 507.135L1619.71 524.72L1619.77 524.78L1619.81 524.82L1634.61 543.144L1634.65 543.204L1634.69 543.264L1652.28 572.098L1669.16 592.481L1669.24 592.581L1669.3 592.7L1675.66 606.089L1675.68 606.169L1694.02 653.408L1692.06 654.167L1673.74 606.988L1667.47 593.74L1650.62 573.397L1650.58 573.337L1650.54 573.257L1632.96 544.423L1618.23 526.198L1599.26 508.634L1599.22 508.594L1570.69 479.359L1555.58 465.991L1555.44 465.871L1555.36 465.731L1548.41 453.562L1530.92 438.874L1530.72 438.715L1530.62 438.475L1525.07 425.286L1506.25 406.463L1502.11 403.705L1495.76 399.469L1495.62 399.389L1495.5 399.249C1495.48 399.209 1485.6 386.52 1484.62 385.121C1484.27 384.582 1482.07 382.084 1479.51 379.226C1475.75 375.01 1471.2 370.034 1470.56 369.395C1469.52 368.356 1462.56 362.781 1462.54 362.781L1435.83 341.699L1431.59 338.882L1431.49 338.802L1431.39 338.702L1425.98 332.607C1424.58 332.267 1419.26 330.809 1416.64 328.171C1414.07 325.593 1402.9 318.699 1401.48 317.84L1383.31 313.644H1383.27L1368.93 309.787L1359.53 309.447H1359.27L1359.05 309.327L1347.78 302.973L1347.7 302.933L1347.62 302.853L1340.31 296.519L1341.69 294.92Z" fill="#DADADA"/>
<path d="M1430.57 309.108L1444.74 318.081L1444.88 318.16L1444.98 318.28L1452.69 327.392L1470.2 343.498L1477.15 347.675L1477.41 347.835L1477.55 348.114L1487.38 367.757L1490.1 371.834C1491.28 372.753 1499.43 379.127 1500.17 381.385C1500.51 382.404 1500.85 383.983 1501.11 385.542C1501.43 387.44 1501.65 389.358 1501.65 390.178C1501.65 390.857 1502.05 392.556 1502.63 394.294C1503.11 395.733 1503.71 397.172 1504.29 398.051C1505.63 400.069 1507.67 402.107 1507.69 402.107L1507.83 402.247L1507.91 402.447L1509.8 407.163L1507.85 407.942L1506.03 403.426C1505.51 402.887 1503.77 401.048 1502.51 399.19C1501.83 398.151 1501.15 396.532 1500.61 394.934C1499.95 392.975 1499.51 391.017 1499.51 390.158C1499.51 389.418 1499.31 387.66 1499.01 385.881C1498.77 384.403 1498.45 382.924 1498.17 382.025C1497.57 380.226 1488.68 373.392 1488.66 373.372L1488.52 373.252L1488.42 373.113L1485.61 368.876L1485.59 368.856L1485.55 368.756L1475.81 349.293L1469.02 345.217L1468.92 345.157L1468.84 345.097L1451.22 328.891L1451.18 328.851L1451.14 328.791L1443.48 319.739L1429.45 310.867L1430.57 309.088V309.108Z" fill="#DADADA"/>
<path d="M1486.46 367.259H1498.33L1515.82 363.062L1516.14 362.982L1516.46 363.102C1516.48 363.122 1525.93 366.959 1526.97 367.299C1527.17 367.359 1527.47 367.479 1527.83 367.618C1529.69 368.318 1533.84 369.876 1534.62 369.477C1535.86 368.857 1540.58 364.061 1540.6 364.061L1540.92 363.742H1541.36H1549.99H1550.19L1550.39 363.822L1559.72 367.638L1574.65 370.756L1587.2 370.056H1587.28H1587.36L1601.46 371.475H1601.56L1601.64 371.495L1609.14 373.493L1611.61 371.375L1611.89 371.135L1612.25 371.115L1618.25 370.756L1618.53 370.736L1618.79 370.856L1625.84 374.372L1625.92 374.412L1626 374.472L1637.15 382.825L1644.39 385.243H1644.41L1653.14 388.38L1666.47 391.178L1666.61 391.198L1666.73 391.258C1666.75 391.258 1672.24 393.995 1672.24 395.734H1693.26L1703.19 391.238L1703.47 391.118L1703.77 391.158L1712.95 392.577L1713.11 392.597L1713.27 392.677L1724.26 398.172L1728.87 397.512L1729.35 397.452L1729.71 397.772L1734.19 401.609L1735.43 401.189L1740.16 395.094L1740.44 394.715L1740.92 394.675L1760.92 393.276L1761.5 393.236L1761.84 393.716L1764.1 396.833L1774.17 397.512L1774.37 397.532L1774.57 397.632L1781.39 401.049H1787.5H1788.08L1788.4 401.549L1791.78 406.964L1797.87 410.361L1798.03 410.461L1798.15 410.601L1814.78 430.004L1825.61 430.683H1825.71L1825.81 430.703L1851.13 437.038L1857.4 437.737L1857.6 437.757L1857.78 437.857L1882.9 451.126L1898.82 450.426L1899.08 450.406L1899.32 450.526L1922.94 461.896L1922.02 463.795L1898.64 452.544L1882.7 453.244L1882.42 453.264L1882.16 453.124L1856.96 439.815L1850.81 439.136H1850.73L1850.67 439.116L1825.37 432.802L1814.2 432.102L1813.76 432.082L1813.46 431.743L1796.65 412.14L1790.48 408.703L1790.24 408.563L1790.1 408.323L1786.88 403.187H1781.13H1780.89L1780.65 403.067L1773.79 399.65L1763.42 398.951L1762.92 398.911L1762.62 398.511L1760.4 395.474L1741.46 396.793L1736.83 402.768L1736.63 403.008L1736.31 403.107L1734.19 403.807L1733.63 403.987L1733.17 403.607L1728.59 399.69L1724.14 400.33L1723.82 400.37L1723.52 400.23L1712.39 394.675L1703.67 393.336L1693.82 397.792L1693.6 397.892H1693.38C1693.32 397.892 1670.02 397.892 1670.02 395.774C1670.02 395.414 1666.49 393.616 1665.79 393.256L1652.54 390.458L1652.48 390.438L1652.4 390.419L1643.59 387.241L1636.21 384.783L1636.05 384.723L1635.91 384.624L1624.7 376.211L1617.99 372.854L1612.63 373.174L1610 375.432L1609.58 375.791L1609.04 375.651L1601.08 373.533L1587.16 372.134L1574.55 372.834H1574.41L1574.27 372.814L1559.12 369.637L1559.02 369.617L1558.92 369.577L1549.69 365.8H1541.7C1540.58 366.919 1536.8 370.636 1535.48 371.315C1533.88 372.114 1529.15 370.336 1527.01 369.557C1526.63 369.417 1526.35 369.317 1526.23 369.277C1525.27 368.957 1517.56 365.82 1515.9 365.141L1498.59 369.297L1498.45 369.337H1498.35H1486.36V367.219L1486.46 367.259Z" fill="#DADADA"/>
<path d="M1739.34 658.245L1775.21 592.822L1777.99 579.593L1778.01 579.473L1778.07 579.354L1780.89 573.718L1781.05 573.379L1781.37 573.219L1793.06 567.724L1797.79 559.611L1809.04 529.397L1809.08 529.297L1809.12 529.217L1818.03 514.13L1813.26 500.502L1813.22 500.402L1813.2 500.282L1811.8 489.792L1806.88 472.227L1806.84 472.127V472.027L1806.14 461.596L1800.55 446.23L1800.51 446.13L1800.49 446.05L1798.39 434.12L1792.78 415.896L1789.96 408.163L1789.94 408.083L1789.92 408.003L1787.62 397.072L1787.54 396.653L1787.76 396.293L1792.84 388.24L1804.33 364.401L1806.86 356.688L1806.94 356.468L1807.08 356.308L1835.54 324.616C1835.74 324.376 1836.58 323.257 1836.84 322.497C1837.12 321.678 1837.64 318.101 1837.8 317.002L1836.54 314.484L1825.27 291.924L1824.97 291.325L1825.37 290.805L1834.54 278.815L1834.7 278.596L1834.94 278.496L1851.7 271.122L1849.23 263.069L1843.01 255.476L1842.95 255.396L1842.89 255.296L1837.96 246.124L1837.86 245.924L1837.84 245.704L1836.78 231.257L1832.46 197.147V197.087L1830.78 172.408V172.328V172.248L1832.46 147.59V147.45L1832.5 147.33L1834.36 141.675L1834.48 141.315L1834.78 141.115C1834.78 141.115 1836.6 139.896 1836.84 139.197C1837.24 138.018 1841.39 135.94 1843.23 135.081L1840.71 127.527L1840.63 127.307L1840.65 127.088L1841.33 121.033L1830.88 98.033L1830.78 97.8331V97.6133V84.5447L1826.85 78.6499C1826.33 78.3102 1824.79 77.4109 1823.53 77.1512C1821.29 76.7116 1819.29 73.1147 1819.29 73.1147L1819.21 72.9548L1819.17 72.795L1818.11 67.4996L1818.05 67.1998L1818.17 66.9001C1818.17 66.9001 1819.33 64.0026 1818.41 63.1034C1816.85 61.5448 1815.98 59.2468 1815.98 59.2468L1815.9 59.027L1815.92 58.7872L1816.69 46.2381L1815.32 40.7629L1815.3 40.683V40.603L1814.6 32.2103L1813.26 25.5361L1802.31 14.5857L1789.06 7.61177L1788.5 7.31203V6.67259V-0.0415649L1783.06 -7.51505L1783.02 -7.575L1782.98 -7.63495L1778.11 -16.6871L1754.59 -42.9841L1745.94 -42.3247L1745.42 -42.2848L1745.08 -42.6644L1739.06 -49.3386C1736.84 -49.2187 1728.11 -48.839 1727.57 -50.4376C1727.31 -51.237 1723.98 -55.7131 1723.28 -56.6522L1694.56 -72.7582L1694.44 -72.8181L1694.34 -72.9181L1677.6 -88.9641L1661.83 -94.4393L1655.71 -93.7599L1655.38 -93.7199L1655.08 -93.8798L1648.72 -97.3967L1648.7 -97.4167L1603.58 -124.213L1603.56 -124.233L1592.51 -131.147L1580.1 -131.847H1579.96L1579.82 -131.887C1579.78 -131.907 1565.19 -136.762 1563.93 -136.762C1562.38 -136.762 1553.08 -139.62 1553.06 -139.64H1553.04L1546.69 -141.758L1546.43 -141.838L1546.25 -142.038L1536.38 -152.609L1537.92 -154.047L1547.61 -143.676L1553.66 -141.658C1553.78 -141.618 1562.68 -138.881 1563.93 -138.881C1565.41 -138.881 1578.84 -134.424 1580.34 -133.925L1592.89 -133.226L1593.17 -133.206L1593.39 -133.066L1604.66 -126.012L1649.76 -99.2351L1655.77 -95.898L1661.79 -96.5575L1662.03 -96.5774L1662.25 -96.4975L1678.46 -90.8624L1678.67 -90.7825L1678.83 -90.6226L1695.66 -74.5167L1724.46 -58.3707L1724.65 -58.2708L1724.79 -58.091C1724.81 -58.071 1729.13 -52.316 1729.53 -51.0971C1729.63 -50.8173 1739.36 -51.4568 1739.38 -51.4767L1739.88 -51.5167L1740.22 -51.137L1746.22 -44.4828L1754.87 -45.1423L1755.39 -45.1822L1755.75 -44.7826L1779.71 -17.9859L1779.79 -17.886L1779.85 -17.7861L1784.74 -8.69402L1790.34 -1.00073L1790.54 -0.720963V-0.381271V6.03314L1803.37 12.7873L1803.51 12.8672L1803.61 12.9671L1814.88 24.2373L1815.1 24.4571L1815.16 24.7768L1816.57 31.8307L1816.59 31.8906V31.9506L1817.29 40.3233L1818.67 45.8784L1818.71 46.0383L1818.69 46.1982L1817.91 58.6673C1818.13 59.2068 1818.79 60.6056 1819.79 61.6047C1821.39 63.2033 1820.47 66.3806 1820.13 67.3597L1821.09 72.1955C1821.43 72.775 1822.71 74.8332 1823.81 75.053C1825.77 75.4527 1828.04 76.9514 1828.04 76.9713L1828.24 77.0912L1828.36 77.2711L1832.6 83.6255L1832.78 83.8853V84.205V97.3736L1843.25 120.433L1843.37 120.693L1843.33 120.973L1842.65 127.088L1845.39 135.32L1845.69 136.22L1844.83 136.619C1844.81 136.619 1838.9 139.277 1838.7 139.857C1838.34 140.956 1836.78 142.174 1836.12 142.654L1834.42 147.85L1832.76 172.308L1834.44 196.927L1838.76 231.037V231.097L1839.79 245.325L1844.57 254.197L1850.86 261.87L1850.98 262.03L1851.04 262.23L1853.86 271.402L1854.14 272.301L1853.28 272.681L1835.9 280.334L1827.31 291.584L1838.3 313.545L1839.71 316.363L1839.85 316.662L1839.81 316.982C1839.81 317.002 1839.1 322.018 1838.72 323.157C1838.3 324.416 1837.06 325.934 1837.06 325.954L1837 326.014L1808.68 357.567L1806.2 365.12L1806.18 365.18L1806.14 365.24L1794.59 389.199L1794.57 389.239L1794.53 389.299L1789.66 397.052L1791.84 407.483L1794.63 415.177L1794.65 415.217L1800.29 433.541L1800.31 433.621V433.661L1802.41 445.57L1808 460.977L1808.06 461.117V461.256L1808.76 471.727L1813.66 489.252L1813.68 489.312L1813.7 489.392L1815.1 499.863L1819.99 513.871L1820.15 514.33L1819.91 514.75L1810.78 530.196L1799.53 560.41L1799.49 560.51L1799.45 560.57L1794.51 569.023L1794.35 569.302L1794.05 569.442L1782.4 574.937L1779.81 580.113L1777.01 593.381L1776.97 593.541L1776.89 593.681L1740.96 659.244L1739.1 658.225L1739.34 658.245Z" fill="#DADADA"/>
<path d="M757.52 661.542L800.482 616.481L859.651 539.688L859.75 539.548L859.87 539.468L871.86 530.996L871.94 530.956L872.04 530.896L884.729 525.261L884.749 525.241L901.674 518.207L901.694 518.187L941.839 502.7L985.501 480.879L985.541 480.839L1029.24 461.816L1029.3 461.796L1044.05 456.161L1095.49 432.222L1095.52 432.202L1125.08 419.533L1155.39 404.726L1155.43 404.706L1166.6 399.83L1182.67 387.96L1194.62 376.71L1194.66 376.67L1206.57 366.879L1219.88 350.033L1219.9 350.013L1234.34 332.748L1234.4 332.689L1234.42 332.669L1259.08 308.01L1260.58 309.489L1235.92 334.147L1221.52 351.372L1208.15 368.258L1208.07 368.357L1207.99 368.417L1196.04 378.269L1184.07 389.539L1184.03 389.559L1183.97 389.599L1167.76 401.588L1167.66 401.668L1167.56 401.708L1156.31 406.624L1126 421.431L1125.96 421.451L1096.38 434.12V434.14L1044.93 458.099L1044.85 458.119L1030.04 463.774L986.38 482.778L942.738 504.599L942.678 504.639L942.638 504.659L902.473 520.145L885.568 527.199L872.999 532.774L861.229 541.087L802.121 617.8L802.081 617.86L802.061 617.88L759.058 663.001L757.52 661.542Z" fill="#DADADA"/>
<path d="M1228.15 272.72L1217.76 276.956L1217.64 277.016L1217.48 277.036L1211.06 277.715L1176.03 288.926L1168.4 293.781L1168.24 293.881L1168.04 293.921L1154.21 296.739L1140.7 301.635L1140.58 301.675L1140.44 301.695L1132.81 302.394L1113.41 308.628L1096.06 325.274L1069.35 369.575L1069.17 369.855L1068.85 369.995L1028.1 386.86L1002.84 407.203L1002.6 407.382L1002.32 407.422L950.25 415.176L917.918 425.706L917.858 425.726L917.798 425.746L881.19 433.5L854.753 440.194L854.673 440.214L714.735 464.533L629.449 480.738H629.43L499.123 501.161L432.461 523.581L432.441 523.601L360.364 546.961L310.048 567.203L280.713 582.13L237.911 610.286L237.571 610.505L237.191 610.445L205.619 606.089L140.735 599.195L104.007 601.353H103.987H103.907L35.0675 599.175L3.61488 603.531H3.55494H3.495L-26.1192 603.971H-26.1791H-26.2191L-117 595.299L-116.8 593.2L-26.0792 601.873L3.39508 601.433L34.8676 597.077H34.9476H35.0475L103.927 599.235L140.695 597.077H140.775H140.875L205.839 603.991L205.879 604.011L237.091 608.307L279.634 580.312L279.714 580.272L279.734 580.252L309.129 565.305L309.149 565.285L309.209 565.265L359.605 544.982L359.665 544.963L431.802 521.583L498.524 499.142L498.604 499.122L498.703 499.102L629.07 478.66L714.375 462.454V462.434L854.274 438.136L880.671 431.441H880.711L917.299 423.688L949.69 413.137L949.77 413.097H949.85L1001.74 405.384L1026.9 385.122L1027 385.022L1027.16 384.962L1067.71 368.177L1094.32 324.075L1094.4 323.955L1094.5 323.855L1112.13 306.93L1112.29 306.77L1112.53 306.69L1132.27 300.336L1132.37 300.316L1132.49 300.296L1140.1 299.616L1153.55 294.741L1153.63 294.701L1153.71 294.681L1167.44 291.903L1175.03 287.067L1175.15 286.987L1175.27 286.947L1210.52 275.677L1210.62 275.637L1210.74 275.617L1217.1 274.958L1227.37 270.761L1228.15 272.72Z" fill="#DADADA"/>
<path d="M963.18 -116.161L957.245 -106.949L957.105 -106.749L956.905 -106.629L890.103 -65.8448L885.487 -59.89L884.808 -51.0977V-44.0638V-43.904L884.748 -43.7241L880.512 -31.0352L880.452 -30.8553L880.332 -30.7154L864.885 -11.752L831.914 46.4773L829.117 87.1219V87.1418L826.299 120.273V120.353L826.279 120.433L824.86 126.068L824.82 126.208L824.74 126.348L814.989 143.073L811.672 171.648L810.793 180.101L813.61 208.196L813.63 208.356L813.61 208.496L812.191 215.55L812.171 215.67L812.111 215.79L802.939 235.533L802.919 235.572L784.595 270.822L781.998 276.677L784.635 282.592L784.735 282.811V283.031V289.366V289.705L784.515 289.985C784.515 290.005 781.898 293.482 781.038 294.841C780.379 295.92 779.04 298.298 778.501 299.297C779.1 300.756 780.879 305.232 781.198 306.77C781.518 308.369 783.916 312.825 783.916 312.825V312.845L786.034 317.081L786.174 317.341L786.154 317.621L785.475 326.453L797.124 346.336L827.138 361.683C827.178 361.703 840.447 367.977 841.965 368.736C843.144 369.316 851.337 369.316 851.357 369.316H851.777L852.077 369.616L856.493 373.852L856.713 374.072L856.772 374.392C856.772 374.411 858.031 380.146 858.031 381.645C858.031 382.704 862.028 388.04 862.048 388.06L862.288 388.379L862.268 388.759L861.928 394.094L863.926 397.511H868.962H869.861L870.001 398.391L870.58 401.828L879.313 402.807L880.452 402.927L880.232 404.046L878.474 412.858L878.454 412.998L878.394 413.118C878.394 413.118 876.955 415.995 875.496 418.173C874.877 419.113 873.858 420.411 872.858 421.73C871.56 423.429 870.261 425.107 869.921 425.827C869.361 426.926 868.322 429.963 867.983 430.982L872.079 441.913L872.219 442.252L872.099 442.612L869.302 450.985L862.967 483.377L862.947 483.496L862.887 483.636L859.51 490.39L860.869 500.641L860.909 501.001L860.729 501.301L858.071 505.957L858.751 514.09L858.791 514.449L858.591 514.749L853.096 523.002L852.476 527.918L858.491 534.612L865.545 542.365L894.36 573.278C895.379 573.938 902.493 578.574 902.493 580.432C902.493 581.331 908.068 586.327 908.467 586.667L940.659 609.866L939.42 611.585L907.169 588.325L907.109 588.285L907.089 588.265C907.069 588.245 900.394 582.31 900.394 580.432C900.394 579.613 893.161 574.997 893.141 574.977L893.021 574.897L892.941 574.797L864.046 543.784L856.992 536.031L850.638 528.977L850.318 528.617L850.378 528.138L851.077 522.502L851.117 522.243L851.257 522.043L856.693 513.89L856.013 505.797L855.993 505.477L856.153 505.198L858.791 500.562L857.432 490.35L857.392 490.031L857.532 489.731L860.989 482.817L867.303 450.525V450.485L867.323 450.405L870.021 442.292L865.924 431.362L865.785 431.022L865.905 430.682C865.905 430.662 867.343 426.386 868.083 424.907C868.542 424.008 869.881 422.25 871.24 420.471C872.219 419.192 873.198 417.914 873.798 417.034C874.997 415.236 876.216 412.878 876.495 412.338L878.014 404.785L869.641 403.846L868.842 403.766L868.702 402.987L868.143 399.649H863.387H862.787L862.487 399.13L860.03 394.914L859.87 394.634L859.89 394.314L860.209 389.039C859.29 387.78 855.993 383.184 855.993 381.665C855.993 380.526 855.114 376.35 854.854 375.171L850.978 371.434C849.219 371.414 842.485 371.334 841.066 370.615C839.767 369.975 826.319 363.601 826.279 363.581L826.259 363.561L795.945 348.054L795.666 347.915L795.506 347.655L783.516 327.213L783.356 326.933L783.376 326.613L784.056 317.741L782.078 313.804C782.078 313.784 779.54 309.088 779.16 307.17C778.82 305.512 776.402 299.617 776.402 299.597L776.223 299.137L776.462 298.697C776.462 298.697 778.401 295.201 779.32 293.722C780.079 292.503 782.038 289.865 782.677 288.986V283.191L779.959 277.056L779.78 276.637L779.959 276.217L782.777 269.863L782.797 269.803L801.121 234.553L810.213 214.97L811.572 208.176L808.774 180.141L808.754 180.041L808.774 179.941L809.654 171.368V171.348L812.991 142.554L813.011 142.334L813.13 142.134L822.922 125.349L824.281 119.933L827.098 86.8821L829.916 46.0177L829.936 45.7779L830.056 45.5581L863.187 -12.9509L863.227 -13.0309L863.287 -13.0908L878.673 -31.9743L882.79 -44.3036V-51.1976V-51.2775L883.489 -60.4495L883.509 -60.7693L883.709 -61.029L888.645 -67.3835L888.765 -67.5234L888.924 -67.6233L955.686 -108.388L961.481 -117.4L963.26 -116.261L963.18 -116.161Z" fill="#DADADA"/>
<path d="M983.979 409.002C983.979 408.942 982.78 391.317 983.999 389.279C984.978 387.64 985.638 385.002 985.638 384.982L985.698 384.703L985.897 384.503L994.71 375.331L995.03 375.011H995.469H1007.86L1011.26 372.853L1014.97 366.778L1016.63 363.142L1016.97 349.274V348.914L1017.19 348.634L1020.55 344.418L1020.57 344.378L1020.61 344.338L1033.82 330.93L1034.02 330.73L1034.3 330.65L1052.6 325.714L1063.61 321.578L1070.9 314.744L1076.72 307.11L1087.29 290.904L1087.41 290.705L1087.59 290.585C1087.59 290.585 1089.95 289.006 1092.38 289.006C1094.08 289.006 1097.84 288.007 1098.88 287.707L1104.33 282.252L1104.65 281.932H1105.09H1111.37L1119.92 280.693L1120.22 282.792L1111.59 284.03L1111.51 284.05H1111.45H1105.53L1100.2 289.386L1100 289.586L1099.72 289.666C1099.7 289.666 1094.64 291.124 1092.38 291.124C1090.93 291.124 1089.43 291.944 1088.91 292.243L1078.46 308.249L1078.42 308.309L1072.52 316.083L1072.46 316.162L1072.4 316.222L1064.91 323.256L1064.75 323.396L1064.55 323.476L1053.28 327.712L1053.22 327.732H1053.2L1035.15 332.588L1022.19 345.737L1019.09 349.633L1018.75 363.381V363.601L1018.67 363.781L1016.91 367.658L1016.89 367.718L1016.85 367.777L1012.97 374.132L1012.85 374.332L1012.65 374.472L1008.78 376.93L1008.52 377.089H1008.22H995.969L987.656 385.722C987.436 386.521 986.777 388.759 985.858 390.318C984.978 391.797 986.117 408.782 986.137 408.822L984.039 408.962L983.979 409.002Z" fill="#DADADA"/>
<path d="M1199.93 427.106L1185.71 458.299L1185.65 458.419L1185.57 458.519L1174.36 472.527L1162.07 496.046L1161.95 496.266L1161.75 496.406L1154.35 501.701L1154.25 501.761L1154.15 501.801L1144.42 505.978L1132.17 516.189L1130.81 524.961L1130.79 525.141L1130.71 525.301L1125.08 535.872L1124.88 536.251L1124.46 536.371L1115.47 539.129L1107.16 545.363L1093.31 556.454L1086.35 573.818L1081.42 586.487L1081.34 586.687L1081.2 586.827L1071.47 597.258C1071.01 598.357 1068.45 604.352 1066.19 608.708C1067.65 603.872 1069.59 596.279 1069.59 596.259L1069.67 596.079L1069.81 595.939L1079.54 585.508L1084.39 573.019V572.999L1091.45 555.375L1091.55 555.115L1091.77 554.935L1105.88 543.665L1105.9 543.645L1114.35 537.29L1114.49 537.17L1114.67 537.11L1123.42 534.413L1128.78 524.382L1130.16 515.389L1130.22 514.99L1130.53 514.73L1143.22 504.159L1143.34 504.059L1143.48 503.999L1153.25 499.823L1160.37 494.747L1172.58 471.348L1172.62 471.268L1172.68 471.188L1183.87 457.2L1198.04 426.127L1199.95 427.006L1199.93 427.106ZM1066.17 608.768C1065.45 610.167 1064.75 611.386 1064.17 612.245H1064.57C1064.57 613.664 1065.29 611.725 1066.19 608.768H1066.17ZM1064.17 612.245C1063.15 613.724 1062.45 614.083 1062.45 612.245H1064.17Z" fill="#DADADA"/>
<path d="M1286.62 313.984L1287.32 328.012L1291.53 352.63L1291.59 352.95L1291.45 353.25L1286.62 363.601L1287.32 402.847V402.987L1287.28 403.146L1271.11 461.536L1270.43 471.027L1273.11 476.403L1273.13 476.443L1276.67 484.196L1276.75 484.416V484.635V507.036L1278.8 513.211L1278.84 513.29V513.33L1280.26 520.384L1280.28 520.504V520.664L1278.16 550.158L1283.78 590.803L1288.67 603.392L1288.77 603.612L1288.75 603.852L1283.82 658.844L1281.72 658.664L1286.62 603.931L1281.76 591.462L1281.72 591.342L1281.7 591.223L1276.07 550.338L1276.05 550.218V550.118L1278.16 520.664L1276.79 513.77L1274.69 507.515L1274.65 507.356V507.196V484.855L1271.21 477.322V477.302L1268.41 471.707L1268.27 471.447L1268.29 471.167L1269.01 461.296V461.196L1269.03 461.096L1285.22 402.727L1284.52 363.401L1284.5 363.161L1284.62 362.941L1289.39 352.67L1285.24 328.312L1285.22 328.272V328.192L1284.52 314.084L1286.62 313.984Z" fill="#DADADA"/>
<path d="M1334.48 467.45L1335.97 479.58L1336.01 479.859L1335.89 480.119L1330.32 493.368L1329.68 499.702L1338.41 507.096L1338.69 507.335L1338.77 507.695L1343.67 530.116L1361.93 564.526L1378.86 596.957L1378.88 597.017L1381.51 602.952C1383.73 603.751 1393.78 607.508 1393.78 609.426C1393.78 609.626 1394.76 612.384 1396.26 616.42C1397.78 620.537 1399.82 625.932 1401.9 631.387C1406.59 643.737 1410.63 654.128 1410.65 654.167L1408.69 654.927C1408.67 654.887 1403.87 642.498 1399.94 632.147C1397.88 626.731 1395.84 621.336 1394.28 617.16C1392.72 612.903 1391.69 609.926 1391.69 609.446C1391.69 608.787 1380.44 604.81 1380.42 604.81L1380 604.651L1379.82 604.231L1377.02 597.936L1360.11 565.525L1341.79 530.975L1341.73 530.855L1341.69 530.715L1336.83 508.514L1327.94 501.001L1327.52 500.641L1327.58 500.082L1328.28 493.028L1328.3 492.868L1328.36 492.728L1333.9 479.6L1332.44 467.75L1334.54 467.49L1334.48 467.45Z" fill="#DADADA"/>
<path d="M1272.61 475.983L1271.07 481.738L1271.03 481.878L1270.95 482.017L1265.78 490.31L1259.82 523.581L1253.59 560.969L1265.72 569.042L1265.74 569.082L1273.47 574.697L1281.84 579.692L1280.76 581.511L1272.33 576.475L1272.27 576.435L1272.25 576.415L1264.54 570.8V570.82L1251.85 562.347L1251.29 561.968L1251.39 561.288L1257.74 523.221L1263.74 489.731L1263.78 489.531L1263.88 489.371L1269.07 481.038L1270.57 475.443L1272.61 475.983Z" fill="#DADADA"/>
<path d="M1235.48 232.436L1230.15 239.77L1226.63 256.295L1228.77 271.322C1229.69 272.501 1233.92 277.836 1234.86 278.756C1235.96 279.855 1238.66 287.748 1239.24 289.426L1246.55 294.822L1255.71 298.998L1256.04 299.158L1256.2 299.478L1260.64 308.01L1275.33 315.863L1279.7 316.483L1285.02 313.166L1285.1 313.126L1285.2 313.086L1288.72 311.667L1289.06 311.527L1289.42 311.627L1298.87 314.425H1311.18L1321.27 304.853L1321.39 304.753L1321.55 304.673L1334.48 298.339L1340.45 294.882L1346.97 289.846L1337.61 275.159L1337.45 274.899V274.599V268.245V267.825L1337.73 267.525L1339.37 265.747L1339.21 261.87L1334.78 254.697L1334.62 254.437V254.137V238.051L1332.52 237.552L1332.08 237.452L1331.84 237.052L1326.76 228.439L1319.23 223.644L1319.07 223.544L1318.95 223.384L1308.34 209.016L1296.21 209.356H1296.13L1280.72 208.657L1275.89 209.356H1275.81L1266.3 210.055L1266.14 210.075L1265.98 210.035L1261.6 209.016L1257.94 209.676H1257.9L1255.81 209.976L1250.11 216.35L1246.99 220.147L1242.12 229.558L1241.94 229.918L1241.56 230.058L1235.5 232.416L1235.48 232.436ZM1228.31 238.711L1233.94 230.957L1234.12 230.717L1234.42 230.598L1240.4 228.28L1245.15 219.108L1245.21 219.008L1245.27 218.928L1248.45 215.051L1248.49 215.011L1254.49 208.317L1254.75 208.037L1255.13 207.977L1257.58 207.618L1261.42 206.918L1261.64 206.878L1261.84 206.918L1266.26 207.937L1275.59 207.238L1280.48 206.539L1280.58 206.519H1280.68L1296.17 207.218L1308.82 206.858L1309.38 206.838L1309.7 207.278L1320.51 221.925L1328.1 226.761L1328.32 226.901L1328.44 227.121L1333.42 235.553L1335.9 236.133L1336.71 236.333V237.172V253.797L1341.13 260.931L1341.27 261.171L1341.29 261.451L1341.47 266.047L1341.49 266.486L1341.19 266.806L1339.53 268.604V274.24L1349.22 289.486L1349.74 290.306L1348.98 290.885L1341.67 296.54L1341.63 296.58L1341.55 296.62L1335.48 300.137L1335.42 300.177L1322.61 306.471L1312.32 316.243L1312.02 316.543H1311.6H1298.73H1298.59L1298.43 316.503L1289.18 313.765L1286.08 315.004L1280.5 318.481L1280.18 318.681L1279.8 318.621L1274.87 317.921L1274.69 317.902L1274.53 317.802L1259.38 309.689L1259.08 309.529L1258.94 309.249L1254.53 300.756L1245.61 296.7L1245.51 296.66L1245.43 296.6L1237.76 290.945L1237.5 290.745L1237.4 290.425C1237.4 290.405 1234.3 281.154 1233.42 280.254C1232.35 279.175 1227.01 272.421 1227.01 272.401L1226.83 272.181L1226.79 271.902L1224.59 256.415L1224.57 256.235L1224.61 256.055L1228.23 239.13L1228.27 238.91L1228.41 238.73L1228.31 238.711Z" fill="#DADADA"/>
<path d="M576.758 -178.727C576.758 -177.228 568.725 -168.855 568.705 -168.835L568.645 -168.775L561.751 -162.581L557.614 -153.628L555.516 -148.053L555.396 -147.754L555.137 -147.574L550.301 -144.117L546.864 -140L546.764 -139.86L546.644 -139.78L542.508 -137.023L533.715 -127.551V-119.578L534.395 -115.442L534.415 -115.322V-115.202L533.715 -104.631V-104.571L533.695 -104.511L531.597 -93.3609L532.297 -80.7919V-80.7519V-80.692L531.597 -61.6486L531.577 -61.2889L531.337 -61.0091L525.702 -54.315L525.642 -54.235L521.426 -50.0187L517.37 -44.9631L516.051 -41.3263L515.371 -37.5496V-37.5096L514.672 -34.3324L514.612 -34.0326L514.392 -33.8128L498.286 -18.0666L494.23 -10.6131L493.55 -6.21689L488.295 47.816L492.092 60.9646L494.21 66.9594L494.29 67.1592L494.27 67.379L493.91 73.3738L493.89 73.6935L493.69 73.9533L485.437 84.624L485.098 91.3381L485.078 91.7578L484.778 92.0575L479.183 97.2929L472.549 106.025L472.509 106.065L462.997 117.335L454.564 127.886L454.484 127.986L454.384 128.066L446.271 134.421L446.212 134.461L446.152 134.5L429.946 144.012L429.906 144.032L422.332 148.089L419.455 155.143L419.315 155.482L418.995 155.662L414.879 157.98L412.721 161.937L412.661 162.036L412.581 162.116L408.025 167.372L402.39 174.765L402.31 174.885L402.19 174.985L398.673 177.623L389.161 203.76L389.141 203.8L389.101 203.86L375.014 232.055L372.276 238.23L368.779 259.611L368.679 260.171L368.16 260.411L356.25 265.666L350.695 269.483L345.459 273.419L344.8 279.654L344.78 279.754L344.74 279.854L343.321 284.43L343.301 284.51L343.261 284.57L340.444 290.565L332.251 307.65L337.187 314.903L337.426 315.243L337.366 315.643L336.028 324.975L340.843 329.471L350.295 335.785L350.575 335.965L350.695 336.285L351.634 338.802L357.729 343.199L357.948 343.359L358.068 343.598L360.047 347.895L367.18 352.311L367.24 352.351L373.515 356.887L379.45 360.024L379.51 360.064L379.59 360.124L396.495 372.813L405.667 379.507L405.887 379.667L406.007 379.907L407.865 383.923L411.482 384.223L411.821 384.243L412.081 384.483L414.899 386.941L415.079 387.08L415.179 387.28L424.351 407.023L424.371 407.063L434.242 430.682L446.931 459.577L446.971 459.657L446.991 459.717L447.69 462.175L447.73 462.315V462.455V473.785L450.388 478.121L450.508 478.321L450.528 478.561L451.567 487.533L455.324 494.707L457.781 498.943L457.801 499.003L462.737 508.874L462.777 508.954L462.797 509.014L463.796 511.972L461.798 512.631L460.819 509.753L455.943 500.022L453.485 495.786L453.465 495.746L449.589 488.352L449.489 488.172L449.469 487.992L448.43 479.06L445.732 474.684L445.572 474.424V474.125V462.635L444.933 460.377L432.284 431.542V431.522L422.412 407.922L413.36 388.399L410.982 386.321L407.086 386.001L406.466 385.941L406.206 385.382L404.208 381.046L395.256 374.511L378.411 361.882L372.476 358.745L372.416 358.705L372.356 358.665L366.041 354.109L358.668 349.553L358.388 349.393L358.248 349.113L356.25 344.777L350.135 340.361L349.875 340.181L349.756 339.882L348.816 337.384L339.584 331.229L339.524 331.189L339.445 331.129L334.149 326.193L333.75 325.814L333.829 325.274L335.188 315.803L330.133 308.389L329.793 307.889L330.053 307.35L338.505 289.725L341.303 283.79L342.662 279.394L343.361 272.8L343.401 272.34L343.761 272.061L349.396 267.824L349.436 267.804L355.071 263.928L355.171 263.868L355.251 263.828L366.721 258.772L370.158 237.83L370.178 237.711L370.238 237.571L373.055 231.216L373.075 231.176L387.143 203.041L396.755 176.644L396.855 176.344L397.114 176.164L400.771 173.427L406.326 166.133L406.366 166.093L410.882 160.897L413.14 156.761L413.28 156.481L413.54 156.341L417.596 154.063L420.474 147.01L420.614 146.65L420.954 146.47L428.847 142.254L444.973 132.782L452.926 126.547L461.298 116.077L461.318 116.057L470.83 104.786L477.484 96.014L477.544 95.9341L477.604 95.8941L482.94 90.8985L483.279 84.2842L483.299 83.9445L483.499 83.6848L491.752 73.0141L492.072 67.5588L490.033 61.7639L490.013 61.7039L486.137 48.3156L486.077 48.1158L486.097 47.9159L491.392 -6.35677V-6.41672L492.092 -10.9927L492.112 -11.1726L492.211 -11.3324L496.448 -19.0857L496.528 -19.2256L496.628 -19.3255L512.614 -34.9718L513.253 -37.8094L513.952 -41.666L513.972 -41.7659L513.992 -41.8458L515.411 -45.7225L515.471 -45.8823L515.591 -46.0222L519.827 -51.3176L519.887 -51.3975L524.124 -55.6338L529.479 -61.9883L530.158 -80.6121L529.459 -93.261V-93.3809L529.479 -93.5008L531.577 -104.711L532.277 -115.102L531.597 -119.218L531.577 -119.318V-119.398V-127.851V-128.271L531.857 -128.57L541.029 -138.442L541.129 -138.542L541.229 -138.602L545.345 -141.339L548.762 -145.436L548.862 -145.535L548.962 -145.615L553.638 -148.953L555.636 -154.288L555.656 -154.368L559.892 -163.54L559.992 -163.74L560.152 -163.88L567.186 -170.214C567.746 -170.813 574.6 -178.027 574.6 -178.607H576.718L576.758 -178.727Z" fill="#DADADA"/>
<path d="M436.279 521.923L433.302 528.936L432.962 537.889L432.942 538.108L432.842 538.308L429.085 546.181L429.765 560.469L434.581 569.421L434.701 569.641L434.72 569.881L435.06 575.995L436.359 578.633L436.499 578.913L436.479 579.213L432.962 610.865V640.179L439.177 652.649L437.298 653.588L430.964 640.899L430.844 640.659V640.419V610.825V610.785V610.705L434.341 579.293L433.062 576.755L432.982 576.555L432.962 576.335L432.622 570.22L427.807 561.268L427.687 561.048L427.667 560.809L426.967 546.022L426.947 545.742L427.067 545.502L430.864 537.609L431.204 528.657V528.457L431.283 528.277L434.321 521.103L436.279 521.923Z" fill="#DADADA"/>
<path d="M1149.43 10.3285L1149.17 20.7994L1149.15 21.0192L1149.07 21.219L1134.25 53.6508L1132.33 52.7716L1147.08 20.5396L1147.32 10.2886L1149.43 10.3285Z" fill="#DADADA"/>
</g>
<defs>
<clipPath id="clip0">
<rect width="1920" height="580" fill="white"/>
</clipPath>
</defs>
</svg>
