<svg width="1920" height="520" viewBox="0 0 1920 520" fill="none" xmlns="http://www.w3.org/2000/svg">
<path fill-rule="evenodd" clip-rule="evenodd" d="M1239.6 134.432L1243.06 130.97H1277.67L1293.98 148.774L1294.48 156.192L1296.46 166.083L1297.44 171.029L1296.95 175.974L1302.88 184.382L1301.89 186.854L1298.93 189.822L1288.54 193.284L1279.15 201.691L1263.33 200.207C1263.33 200.207 1258.88 203.175 1257.89 203.669C1256.9 204.164 1254.43 204.164 1254.43 204.164L1247.01 198.724C1247.01 198.724 1242.56 193.284 1241.08 192.295C1239.6 191.305 1237.12 189.822 1234.65 188.338C1232.18 186.854 1231.19 186.36 1229.71 182.898C1228.22 179.436 1224.27 172.512 1224.27 172.512L1223.28 164.105C1223.28 164.105 1222.78 156.686 1224.27 153.719C1225.75 150.752 1233.66 143.334 1233.66 143.334L1238.5 136L1239.6 134.432Z" stroke="#E3E3E3" stroke-width="3" stroke-miterlimit="22.9256"/>
<path fill-rule="evenodd" clip-rule="evenodd" d="M1159 109.209C1159 109.209 1161.97 89.4274 1159.99 86.4599C1158.01 83.4924 1166.42 69.1502 1173.84 65.1938C1181.25 61.2374 1187.68 57.7756 1187.68 57.7756L1201.03 55.7975L1214.38 45.9063L1220.81 40.4661L1226.25 38.9824L1244.05 36.0151L1259.87 42.4445L1270.75 45.9063C1270.75 45.9063 1294.48 48.379 1295.47 48.379C1296.46 48.379 1305.85 54.8086 1306.84 55.7975C1307.83 56.7864 1316.23 64.2049 1316.23 64.2049L1335.52 82.0089L1357.27 103.769C1357.27 103.769 1360.73 112.176 1361.23 123.057C1361.72 133.937 1363.2 145.312 1362.71 149.763C1362.21 154.214 1361.23 169.051 1361.23 169.051C1361.23 169.051 1361.72 183.392 1360.73 185.371C1359.74 187.349 1357.76 200.702 1357.76 200.702C1357.76 200.702 1355.79 217.022 1356.78 220.484C1357.76 223.946 1360.73 236.805 1360.73 236.805C1360.73 236.805 1363.7 246.696 1351.83 253.125C1339.97 259.554 1336.5 268.456 1336.5 268.456L1324.64 280.82L1311.78 290.711L1300.41 298.129L1292.01 303.57L1286.57 307.031C1286.57 307.031 1252.95 304.559 1251.96 304.064C1250.97 303.57 1241.08 299.119 1241.08 299.119L1220.81 290.217L1212.4 286.755L1192.13 257.576L1188.67 252.136L1177.79 234.826C1177.79 234.826 1170.38 219.495 1170.38 218.506C1170.38 217.517 1169.39 213.56 1169.39 213.56L1160.98 201.197C1160.98 201.197 1158.01 196.746 1157.52 195.756C1157.03 194.767 1155.54 191.8 1155.54 191.8L1150.1 171.029V167.567L1149.61 153.225V135.421L1150.6 131.464L1157.03 118.606L1159 109.209V109.209Z" stroke="#E3E3E3" stroke-width="3" stroke-miterlimit="22.9256"/>
<path fill-rule="evenodd" clip-rule="evenodd" d="M1266 146.795L1254.43 146.3C1254.43 146.3 1249.98 151.246 1248.99 154.213C1248 157.181 1247.01 161.631 1247.01 162.621C1247.01 163.61 1246.52 173.501 1246.52 173.501L1258.88 181.414L1271.73 179.436C1271.73 179.436 1275.2 173.995 1276.18 173.006C1277.17 172.017 1278.16 170.039 1278.16 170.039C1278.16 170.039 1279.64 155.697 1279.64 154.708C1279.64 153.719 1269.76 146.795 1269.76 146.795H1266Z" stroke="#E3E3E3" stroke-width="2" stroke-miterlimit="22.9256"/>
<path d="M1263.33 200.207L1264.81 222.462L1265.3 227.408C1265.3 227.408 1262.34 233.342 1262.34 234.331C1262.34 235.32 1261.84 248.673 1261.84 251.641C1261.84 254.608 1258.38 267.467 1258.38 268.456C1258.38 269.445 1251.95 297.14 1251.95 297.14C1251.95 297.14 1249.48 306.537 1254.92 312.966C1260.36 319.395 1256.9 355.003 1256.9 355.003L1258.38 378.247L1261.35 402.48L1255.91 462.321C1255.91 462.321 1254.92 470.234 1250.97 479.136C1247.01 488.038 1241.08 493.973 1241.08 493.973C1241.08 493.973 1231.19 508.809 1230.2 519.69C1229.21 530.57 1220.31 566.178 1220.31 566.178L1224.27 622.557C1224.27 622.557 1250.97 677.948 1249.98 681.904C1248.99 685.86 1238.11 711.577 1238.11 711.577L1231.19 764" stroke="#E3E3E3" stroke-width="2" stroke-miterlimit="22.9256"/>
<path d="M1280.63 261.532C1280.63 261.532 1277.67 263.51 1279.15 269.939C1280.63 276.368 1282.12 277.852 1282.12 277.852C1282.12 277.852 1285.58 285.271 1285.58 286.26C1285.58 287.249 1287.06 296.151 1287.06 296.151L1294.48 310.987L1290.52 323.846L1295.47 328.791C1295.47 328.791 1298.43 332.748 1298.93 337.199C1299.42 341.65 1300.41 346.595 1300.41 346.595L1312.28 366.378L1323.15 392.094L1333.04 399.018L1339.96 403.964L1341.94 410.888V418.8L1339.96 435.615L1334.03 446.001L1333.04 460.343L1335.51 470.729L1342.93 478.147L1347.38 486.555C1347.38 486.555 1348.86 494.962 1348.86 495.951C1348.86 496.94 1348.86 507.82 1348.86 507.82L1372.6 539.472L1374.57 572.112L1375.56 584.971C1375.56 584.971 1380.51 590.905 1380.51 593.873C1380.51 596.84 1383.47 605.742 1383.47 605.742C1383.47 605.742 1389.41 615.634 1391.39 619.59C1393.36 623.546 1402.26 637.394 1402.26 637.394L1404.24 657.176L1400.29 670.034L1399.3 675.969L1400.29 683.882C1400.29 683.882 1404.24 691.795 1404.24 693.773C1404.24 695.751 1404.24 700.696 1403.25 704.653C1402.26 708.61 1402.26 713.555 1402.26 713.555L1414.13 754.109" stroke="#E3E3E3" stroke-width="2" stroke-miterlimit="22.9256"/>
<path d="M1204.5 275.5L1195.59 295.162L1177.79 323.846L1159.99 333.737L1156.04 348.574L1134.28 357.476L1131.32 367.367L1127.36 379.236L1118.46 390.116L1115.49 402.975L1111.54 417.811L1103.63 432.648C1103.63 432.648 1080.88 454.408 1079.89 456.387C1078.91 458.365 1072.97 467.267 1072.97 467.267L1069.02 480.125L1062.09 487.049L1035.4 542.439L1024.52 557.276L998.808 573.102L971.119 591.895L958.264 595.851L949.364 599.808L937.993 614.15L918.71 628.492L887.066 650.253L814.879 697.73L747.381 747.68" stroke="#E3E3E3" stroke-width="2" stroke-miterlimit="22.9256"/>
<path d="M1296.65 167.061L1359.74 142.838L1383.48 131.958L1437.86 123.056L1481.37 113.165L1551.58 103.274L1586.19 98.3283H1610.91L1623.77 103.274L1629.7 102.285L1663.32 79.5352L1696.95 80.5243L1730.57 83.4916L1739.47 86.4591L1819.56 82.5024L1844.29 72.6115L1876.92 59.7531L1904.61 45.9055L1929.33 39.9708L1968.88 30.0796L1996.57 27.1124L2050.96 20.1887L2102.38 10.2975L2136 4.36279" stroke="#E3E3E3" stroke-width="2" stroke-miterlimit="22.9256"/>
<path d="M1269.76 129.98L1270.75 110.198L1273.96 104.071L1285.58 85.4704L1300.41 72.6119L1325.13 37.9931L1338.98 34.0364L1344.91 22.1672L1348.87 6.34154L1355.79 -3.54961L1373.59 -23.332L1376.55 -39.1576L1378.53 -50.038C1378.53 -50.038 1388.42 -81.6895 1388.42 -84.6568C1388.42 -87.624 1390.4 -95.5368 1390.4 -95.5368L1417.1 -125.21L1437.86 -147.96L1439.84 -164.775L1444.79 -181.59L1469.51 -209.285L1483.35 -228.078L1490.27 -246.871L1487.31 -255.773L1497.2 -294.348L1493.24 -301.272L1491.26 -309.185L1485.94 -320.559L1483.35 -324.021" stroke="#E3E3E3" stroke-width="2" stroke-miterlimit="22.9256"/>
<path d="M778.291 751.141L787.191 740.261L808.946 720.479L811.912 712.566L817.845 690.806L830.701 646.296L835.645 622.557L837.623 610.688L838.611 597.829L839.6 578.047L842.567 542.439L848.5 514.744L852.456 501.885L867.289 479.136L892.999 448.473L913.765 426.713L932.553 406.931C932.553 406.931 948.375 385.17 951.342 384.181C954.308 383.192 978.041 356.486 978.041 356.486L981.008 350.551L1013.64 334.726L1045.28 318.9C1045.28 318.9 1062.09 314.944 1065.06 312.965C1068.03 310.987 1080.88 303.074 1083.85 303.074C1086.82 303.074 1125.38 284.281 1125.38 284.281C1125.38 284.281 1146.15 271.423 1156.04 270.433C1165.93 269.444 1185.7 254.608 1185.7 254.608C1185.7 254.608 1208.45 235.815 1210.42 234.825C1212.4 233.836 1228.22 217.021 1228.22 217.021C1228.22 217.021 1247.01 195.261 1248.99 193.283C1250.97 191.305 1258.88 181.413 1258.88 181.413L1263.04 167.566C1263.04 167.566 1255.91 161.631 1253.93 161.631C1251.96 161.631 1252.94 162.62 1247.01 162.62C1241.08 162.62 1234.16 163.61 1231.19 165.588C1228.22 167.566 1219.32 173.501 1217.35 174.49C1215.37 175.479 1204.49 176.468 1202.51 178.446C1200.54 180.424 1184.71 186.359 1184.71 186.359L1156.53 193.777C1156.53 193.777 1151.09 197.239 1142.19 203.174C1133.29 209.109 1132.3 214.054 1130.33 217.021C1128.35 219.989 1123.4 231.858 1122.42 233.836C1121.43 235.815 1102.64 243.727 1102.64 243.727C1102.64 243.727 1079.89 259.553 1077.92 260.542C1075.94 261.531 1071.98 264.499 1067.04 264.499C1062.09 264.499 1055.17 264.499 1055.17 264.499L1029.46 272.412C1029.46 272.412 929.587 294.172 927.609 294.172C925.632 294.172 874.21 302.085 874.21 302.085L808.946 314.943L755.547 322.856L735.77 324.835L708.082 334.726L682.371 343.628L652.705 354.508L634.906 360.443C634.906 360.443 623.039 366.377 618.095 367.366C613.151 368.355 605.24 371.323 605.24 371.323L562.719 397.04L510.309 392.094C510.309 392.094 478.665 391.105 476.688 391.105C474.71 391.105 416.367 390.116 416.367 390.116L379.779 394.072L337.258 388.138C337.258 388.138 311.547 386.159 309.57 386.159C307.592 386.159 292.759 381.213 288.804 380.225C284.848 379.236 266.026 369.967 260.126 369.345C258.888 369.214 241.136 376.898 219.089 370.828C205.049 366.963 188.835 361.637 173.601 365.883C162.515 368.972 157.833 360.647 144.911 361.141C116.817 362.215 93.059 364.349 61.8594 374.785C50.3544 378.633 50.2995 387.953 38.1266 392.589C33.3933 394.391 -19.5355 435.205 -24.1718 437.099C-34.2817 441.228 -48.3705 458.434 -57.7931 462.815C-75.6136 471.102 -72.3214 475.234 -87.4589 484.576C-97.5368 490.795 -119.365 509.722 -128.002 513.26C-160.234 526.466 -217 562.716 -217 562.716" stroke="#E3E3E3" stroke-width="2" stroke-miterlimit="22.9256"/>
<path d="M1225.51 151.882L1187.68 142.838L1184.71 141.849C1184.71 141.849 1179.77 144.816 1179.27 145.806C1178.78 146.795 1177.79 146.795 1174.33 146.795C1170.87 146.795 1165.43 145.806 1165.43 145.806L1160.98 140.86C1160.98 140.86 1159 135.915 1157.03 134.925C1155.05 133.936 1150.1 132.947 1149.11 131.958C1148.13 130.969 1144.17 128.496 1141.2 127.507C1138.24 126.518 1134.28 124.045 1130.82 123.551C1127.36 123.056 1122.42 122.067 1120.44 122.067C1118.46 122.067 1115 121.572 1112.03 122.561C1109.07 123.551 1098.68 130.969 1097.2 131.958C1095.72 132.947 1091.27 139.376 1090.28 140.365C1089.29 141.355 1082.86 143.827 1082.86 143.827C1082.86 143.827 1070.99 143.827 1066.05 143.827C1061.11 143.827 1057.15 143.333 1052.21 140.86C1047.26 138.387 1044.79 136.903 1042.32 135.914C1039.85 134.926 1040.34 134.925 1035.4 135.914C1030.45 136.904 1032.43 136.904 1027.98 136.904C1023.53 136.904 1020.56 137.893 1018.09 136.904C1015.62 135.914 1011.66 134.925 1011.66 134.925C1011.66 134.925 997.324 120.089 995.346 117.616C993.369 115.143 993.863 111.681 989.908 111.187C985.952 110.692 979.03 111.187 975.075 110.692C971.119 110.198 967.163 110.197 961.725 109.208C956.286 108.22 954.309 108.219 949.364 107.23C944.42 106.241 936.014 104.757 926.126 101.79C916.237 98.8229 907.832 92.3933 903.876 91.4044C899.921 90.4155 898.932 86.9537 891.516 84.9753C884.099 82.997 880.144 79.5349 873.716 78.546C867.289 77.5571 859.378 72.6115 854.434 71.1278C849.489 69.644 845.039 65.1933 841.578 63.7095C838.117 62.2258 832.184 58.7639 829.712 54.8075C827.24 50.8511 806.473 37.9927 803.012 36.0144C799.551 34.036 792.135 26.6178 787.191 23.156C782.246 19.6941 773.347 9.30837 769.886 4.85737C766.425 0.406374 763.458 -2.56057 758.514 -6.51726C753.569 -10.474 742.692 -18.3868 741.703 -18.3868C740.714 -18.3868 739.725 -19.376 730.331 -19.376C720.937 -19.376 697.204 -19.8703 693.743 -20.8594C690.282 -21.8486 691.765 -22.3435 678.91 -23.3324C666.055 -24.3213 662.099 -23.3321 656.166 -25.805C650.233 -28.2779 655.177 -28.278 639.356 -30.7506C623.534 -33.2233 615.128 -34.2124 611.173 -34.707C607.218 -35.2016 595.846 -36.1908 583.485 -36.1908C571.124 -36.1908 570.135 -33.7181 562.719 -36.1908C555.302 -38.6634 555.797 -37.6742 547.886 -42.1252C539.975 -46.5762 533.053 -50.0381 528.109 -51.0272C523.164 -52.0164 528.109 -51.0275 516.242 -53.5002C504.376 -55.9728 504.376 -59.9292 496.465 -60.9184C488.554 -61.9076 492.015 -59.4349 483.115 -63.3914C474.216 -67.3478 475.699 -68.8315 470.26 -67.3477C464.821 -65.864 462.35 -62.4022 458.888 -61.413C455.427 -60.4238 457.9 -57.9512 449.989 -57.9512C442.077 -57.9512 440.594 -58.4458 436.144 -57.9512C431.694 -57.4566 423.784 -56.4674 419.334 -57.4566C414.884 -58.4458 411.423 -60.9184 408.456 -61.9076C405.49 -62.8968 392.14 -59.9293 383.24 -60.4238C374.34 -60.9184 371.868 -59.9293 364.452 -61.9076C357.035 -63.8859 360.496 -64.3802 350.608 -64.3802C340.719 -64.3802 336.269 -63.3911 328.853 -64.3802C321.436 -65.3694 300.176 -66.3586 291.276 -66.8532C282.376 -67.3478 267.049 -69.8204 265.071 -70.8096C263.093 -71.7988 267.049 -70.315 259.138 -74.766C251.227 -79.217 251.722 -79.7116 246.283 -83.668C240.844 -87.6244 246.676 -93.364 242.822 -91.0862C241.244 -90.1537 222.399 -99.6162 179.535 -116.803C168.241 -121.332 145.228 -118.241 130.091 -122.738C120.996 -125.44 111.825 -131.604 101.414 -134.607C89.9874 -137.903 79.9454 -150.066 66.804 -153.4C61.7422 -154.685 51.3417 -150.118 46.038 -151.422C30.8731 -155.151 -91.4028 -162.526 -105.258 -166.259C-110.185 -167.586 -118.909 -176.524 -123.058 -179.117C-178.434 -213.736 -212.441 -213.242 -213.044 -213.242" stroke="#E3E3E3" stroke-width="2" stroke-miterlimit="22.9256"/>
<path d="M1300.41 188.338L1314.25 198.229L1335.02 201.196L1347.88 208.12L1381.5 235.815C1381.5 235.815 1392.37 247.685 1395.34 250.652C1398.31 253.619 1396.33 254.608 1404.24 260.543C1412.15 266.478 1417.1 271.423 1421.05 276.369C1425.01 281.314 1426 285.27 1427.97 287.249C1429.95 289.227 1428.96 291.205 1432.92 292.194C1436.87 293.184 1436.87 293.184 1439.84 297.14C1442.81 301.096 1446.76 308.02 1448.74 309.998C1450.72 311.977 1451.71 312.966 1458.63 316.922C1465.55 320.879 1471.48 329.781 1475.44 333.737C1479.39 337.693 1491.26 351.541 1491.26 351.541C1491.26 351.541 1492.25 355.498 1494.23 359.454C1496.21 363.41 1498.18 365.388 1502.14 371.323C1506.09 377.258 1511.04 381.214 1514 385.171C1516.97 389.127 1517.96 390.116 1520.93 395.062C1523.89 400.007 1524.88 402.975 1526.86 408.909C1528.84 414.844 1529.83 422.757 1534.77 428.692C1539.71 434.626 1540.7 436.605 1541.69 440.561C1542.68 444.517 1549.6 460.343 1551.58 459.354C1553.56 458.365 1562.46 457.376 1569.38 457.376C1576.3 457.376 1578.28 457.376 1583.22 462.321C1588.17 467.267 1589.16 468.256 1593.11 469.245C1597.07 470.234 1597.07 471.223 1602.01 472.213C1606.96 473.202 1608.94 470.234 1610.91 470.234C1612.89 470.234 1615.86 474.191 1620.8 479.136C1625.75 484.082 1627.72 488.038 1630.69 491.995C1633.66 495.951 1637.61 511.777 1638.6 514.744C1639.59 517.712 1639.59 517.712 1644.53 524.635C1649.48 531.559 1649.48 530.57 1653.43 536.505C1657.39 542.439 1657.39 543.428 1661.35 549.363C1665.3 555.298 1664.31 557.276 1668.27 562.222C1672.22 567.167 1668.27 569.145 1676.18 572.113C1684.09 575.08 1688.04 580.026 1696.94 582.004C1705.84 583.982 1718.7 588.928 1720.68 591.895C1722.65 594.862 1726.61 598.818 1729.58 602.775C1732.54 606.732 1733.53 604.753 1733.53 609.699C1733.53 614.645 1732.54 615.634 1733.53 619.59C1734.52 623.547 1734.52 625.525 1738.48 628.492C1742.43 631.459 1744.41 634.427 1750.34 638.383C1756.28 642.339 1758.25 643.329 1763.2 645.307C1768.14 647.285 1775.06 648.275 1777.04 650.253C1779.02 652.231 1782.98 658.165 1787.92 660.143C1792.86 662.122 1794.84 664.1 1803.74 666.078C1812.64 668.057 1811.65 668.056 1824.51 673.991C1837.36 679.926 1838.35 679.926 1839.34 683.882C1840.33 687.839 1841.32 684.871 1841.32 693.773C1841.32 702.675 1841.32 702.676 1841.32 708.61C1841.32 714.545 1836.37 717.512 1843.3 726.414C1850.22 735.316 1851.96 736.8 1856.15 742.24C1860.34 747.68 1862.08 755.098 1862.08 755.098" stroke="#E3E3E3" stroke-width="2" stroke-miterlimit="22.9256"/>
<path d="M1252.52 148.586C1252.52 148.586 1240.09 140.86 1236.14 135.915C1232.18 130.969 1227.24 127.013 1221.3 124.045C1215.37 121.078 1214.38 119.1 1205.48 116.132C1196.58 113.165 1180.76 107.23 1175.81 105.252C1170.87 103.274 1158.02 94.3718 1155.05 91.4045C1152.08 88.4373 1139.23 77.5572 1136.26 71.6225C1133.29 65.6877 1132.31 60.7424 1125.38 55.7968C1118.46 50.8513 1114.51 47.8835 1104.62 42.9382C1094.73 37.9929 1090.77 37.0034 1084.84 35.0253C1078.91 33.0473 1074.46 29.5854 1073.96 28.5963C1073.47 27.6071 1071 24.145 1069.02 21.1777C1067.04 18.2105 1071 16.2324 1064.57 14.7487C1058.14 13.2649 1060.12 12.7703 1052.7 12.2757C1045.29 11.7812 1043.8 12.7701 1043.31 11.7812C1042.81 10.7923 1036.88 0.900827 1034.41 -1.57183C1031.94 -4.04448 1029.96 -4.5388 1028.47 -7.01173C1026.99 -9.48466 1027.98 -11.9576 1025.01 -13.9356C1022.05 -15.9137 1020.07 -17.8921 1018.59 -18.3866C1017.1 -18.8812 1005.24 -26.2992 1002.76 -29.2667C1000.29 -32.2342 1000.79 -33.718 997.82 -36.1906C994.853 -38.6633 993.864 -39.1582 992.875 -41.6308C991.887 -44.1035 991.392 -44.1035 991.392 -47.5653C991.392 -51.0271 991.392 -53.0055 986.448 -53.5C981.503 -53.9946 974.087 -56.9616 971.615 -59.9291C969.143 -62.8966 966.67 -65.8639 963.209 -66.3585C959.748 -66.8531 961.726 -67.3476 958.265 -66.853C954.804 -66.3585 949.86 -64.3801 947.882 -64.3801C945.904 -64.3801 940.466 -62.8966 938.488 -66.853C936.51 -70.8095 935.521 -71.7986 936.016 -75.2605C936.51 -78.7223 936.51 -87.13 937.005 -89.108C937.499 -91.0861 935.521 -92.075 937.993 -95.5371C940.466 -98.9992 939.971 -99.9884 941.454 -102.461C942.938 -104.934 944.915 -110.868 943.926 -114.33C942.938 -117.792 941.454 -121.254 942.443 -123.232C943.432 -125.211 942.443 -124.221 945.904 -126.694C949.365 -129.167 951.343 -129.167 951.343 -132.629C951.343 -136.091 949.365 -138.069 948.871 -140.542C948.376 -143.015 946.399 -148.949 946.399 -149.938C946.399 -150.927 947.882 -154.39 947.388 -157.357C946.893 -160.324 948.376 -168.731 948.376 -168.731C948.376 -168.731 948.377 -171.699 951.838 -172.688C955.299 -173.677 956.782 -174.171 959.254 -176.15C961.726 -178.128 963.209 -181.59 964.198 -183.568C965.187 -185.546 968.648 -191.976 968.648 -191.976" stroke="#E3E3E3" stroke-width="2" stroke-miterlimit="22.9256"/>
<path d="M1211.98 118.726C1211.98 118.726 1199.55 91.4047 1197.57 87.4483C1195.59 83.4919 1193.61 73.6007 1190.65 69.6443C1187.68 65.6879 1184.71 63.7098 1181.75 58.7642C1178.78 53.8187 1179.77 48.8731 1173.83 43.9275C1167.9 38.9819 1163.95 30.0799 1159.99 27.1126C1156.04 24.1454 1137.25 3.37363 1135.27 -1.57168C1133.29 -6.51698 1120.44 -20.3648 1116.48 -22.3429C1112.53 -24.321 1082.86 -42.1252 1079.89 -45.0925C1076.93 -48.0597 1058.14 -59.929 1058.14 -59.929C1058.14 -59.929 1047.26 -85.6458 1046.27 -86.635C1045.28 -87.6241 1036.38 -104.934 1036.38 -105.923C1036.38 -106.912 1016.61 -137.079 1014.63 -140.047C1012.65 -143.014 1009.68 -145.981 1007.71 -148.949C1005.73 -151.916 991.884 -166.258 986.94 -171.699C981.995 -177.139 978.04 -185.052 974.085 -187.524C970.129 -189.997 951.341 -209.285 945.407 -216.209C939.474 -223.132 926.125 -240.936 924.641 -241.925C923.158 -242.915 900.908 -266.159 897.447 -270.61C893.987 -275.061 880.142 -292.865 878.659 -293.854C877.176 -294.843 863.332 -301.272 861.848 -303.745C860.365 -306.218 854.432 -305.228 851.96 -314.13C849.488 -323.032 847.51 -326 847.51 -326" stroke="#E3E3E3" stroke-width="2" stroke-miterlimit="22.9256"/>
<path d="M809.921 -320.56C809.921 -320.56 818.834 -301.272 819.823 -297.315C820.811 -293.359 819.823 -290.391 824.767 -287.424C829.711 -284.457 832.678 -283.468 837.622 -279.511C842.566 -275.555 843.555 -275.555 847.511 -271.599C851.466 -267.642 853.444 -263.686 856.41 -257.751C859.377 -251.816 861.355 -246.871 864.321 -239.947C867.288 -233.023 865.311 -234.012 871.244 -226.099C877.177 -218.187 879.154 -214.23 886.076 -210.274C892.999 -206.317 897.943 -203.35 903.876 -199.393C909.809 -195.437 907.831 -195.437 912.776 -188.513C917.72 -181.589 917.72 -180.601 924.642 -173.677C931.564 -166.753 933.542 -164.774 939.475 -162.796C945.408 -160.818 953.319 -157.851 954.308 -155.873C955.297 -153.894 978.041 -150.927 981.007 -150.927C983.974 -150.927 983.974 -152.905 991.885 -150.927C999.796 -148.949 1012.65 -147.96 1017.6 -147.96C1022.54 -147.96 1022.54 -152.905 1026.5 -147.96C1030.45 -143.014 1031.44 -144.003 1033.42 -138.069C1035.39 -132.134 1032.43 -132.134 1038.36 -127.188C1044.29 -122.243 1044.29 -119.276 1051.22 -117.297C1058.14 -115.319 1065.06 -116.308 1070.01 -112.352C1074.95 -108.395 1076.93 -105.428 1078.9 -100.482C1080.88 -95.5367 1077.92 -93.5587 1084.84 -88.6131C1091.76 -83.6675 1097.69 -82.6783 1100.66 -78.7219C1103.63 -74.7655 1105.6 -56.9615 1105.6 -56.9615C1105.6 -56.9615 1113.52 -43.1139 1114.5 -40.1467C1115.49 -37.1794 1130.33 -15.4187 1130.33 -15.4187L1153.07 0.406885L1162.96 -2.56036C1162.96 -2.56036 1168.89 -2.56061 1171.86 -0.582269C1174.82 1.39608 1177.79 1.39579 1181.75 7.33055C1185.7 13.2653 1183.72 14.2548 1185.7 20.1892C1187.68 26.1237 1190.65 29.0912 1191.64 32.0585C1192.62 35.0257 1199.55 37.9932 1200.54 41.9496C1201.52 45.906 1204.45 53.2632 1204.45 53.2632L1203.5 59.7536C1203.5 59.7536 1208.45 63.7098 1213.39 70.6337C1218.33 77.5576 1222.29 78.5465 1229.21 83.4921C1236.13 88.4377 1240.09 89.4266 1240.09 92.3941" stroke="#E3E3E3" stroke-width="2" stroke-miterlimit="22.9256"/>
<path d="M1256.38 146.364L1246.02 128.002C1246.02 128.002 1245.03 118.111 1244.04 114.154C1243.05 110.198 1244.04 108.22 1242.07 100.307C1240.09 92.3941 1240.01 91.7015 1240.01 91.7015C1240.01 91.7015 1239.1 83.4921 1237.12 80.5248C1235.14 77.5576 1229.21 71.6231 1228.22 68.6556C1227.23 65.6881 1227.23 58.7644 1227.23 54.808C1227.23 50.8516 1227.23 34.0365 1227.23 34.0365C1227.23 34.0365 1228.22 20.1892 1227.23 15.2436C1226.24 10.298 1224.27 -5.52789 1224.27 -5.52789C1224.27 -5.52789 1224.27 -11.4626 1222.29 -14.4299C1220.31 -17.3971 1216.36 -17.3971 1219.32 -21.3535C1222.29 -25.3099 1226.24 -45.0923 1227.23 -48.0595C1228.22 -51.0267 1229.21 -57.9507 1228.22 -61.9071C1227.23 -65.8635 1227.23 -75.7544 1225.26 -78.7219C1223.28 -81.6894 1220.31 -87.6242 1219.32 -89.6023C1218.33 -91.5803 1217.34 -97.5154 1217.34 -99.4934C1217.34 -101.471 1218.33 -112.352 1218.33 -114.33C1218.33 -116.308 1217.34 -129.167 1217.34 -133.123C1217.34 -137.079 1210.42 -141.036 1208.44 -145.981C1206.47 -150.927 1205.48 -153.895 1205.48 -156.862C1205.48 -159.829 1201.52 -162.796 1203.5 -163.785C1205.48 -164.775 1212.4 -168.731 1212.4 -171.698C1212.4 -174.666 1214.38 -179.611 1216.36 -185.546C1218.33 -191.481 1216.36 -196.426 1217.34 -203.35C1218.33 -210.274 1219.32 -232.034 1219.32 -232.034C1219.32 -232.034 1216.36 -236.979 1214.38 -242.914C1212.4 -248.849 1209.43 -250.827 1209.43 -253.795C1209.43 -256.762 1209.43 -262.697 1209.43 -262.697C1209.43 -262.697 1199.54 -283.468 1199.54 -285.446C1199.54 -287.424 1200.53 -291.381 1201.52 -297.315C1202.51 -303.25 1198.56 -310.174 1201.52 -320.56" stroke="#E3E3E3" stroke-width="2" stroke-miterlimit="22.9256"/>
<path d="M1285.82 139.871C1285.82 139.871 1294.48 133.936 1296.45 131.958C1298.43 129.98 1301.4 128.991 1306.34 127.013C1311.29 125.035 1317.22 124.046 1324.14 121.078C1331.06 118.111 1326.12 117.122 1334.03 117.122C1341.94 117.122 1341.69 117.013 1350.84 115.144C1359.99 113.274 1362.71 110.198 1372.6 108.22C1382.49 106.242 1386.44 105.253 1393.36 103.274C1400.29 101.296 1407.21 99.3176 1409.19 96.3504C1411.16 93.3832 1409.19 92.394 1413.14 89.4267C1417.1 86.4595 1421.05 85.4703 1424.02 80.5247C1426.98 75.5792 1426 75.5794 1430.94 68.6555C1435.88 61.7316 1438.85 52.8296 1441.82 49.8624C1444.78 46.8951 1454.67 46.8951 1456.65 45.9059C1458.63 44.9168 1482.36 34.0364 1482.36 34.0364C1482.36 34.0364 1490.27 24.1456 1494.23 23.1564C1498.18 22.1672 1499.17 22.1672 1506.09 22.1672C1513.02 22.1672 1515.98 22.1669 1521.92 21.178C1527.85 20.1891 1525.87 22.1672 1528.84 18.2108C1531.8 14.2544 1529.83 13.2652 1534.77 9.30879C1539.72 5.35237 1536.75 7.33074 1543.67 2.38515C1550.59 -2.56043 1553.56 -4.5385 1558.5 -6.51684C1563.45 -8.49519 1565.43 -8.49519 1568.39 -12.4516C1571.36 -16.408 1571.36 -18.3861 1576.3 -20.3644C1581.25 -22.3428 1585.2 -22.3428 1585.2 -22.3428" stroke="#E3E3E3" stroke-width="2" stroke-miterlimit="22.9256"/>
<path d="M1210.42 234.825C1210.42 234.825 1204.49 225.924 1202.51 223.945C1200.53 221.967 1200.53 219 1198.56 215.043C1196.58 211.087 1192.62 208.119 1190.65 204.163C1188.67 200.207 1188.67 200.207 1187.68 195.261C1186.69 190.315 1186.69 184.381 1185.7 181.413C1184.71 178.446 1180.76 175.479 1176.8 171.522C1172.85 167.566 1160.98 155.697 1158.01 154.707C1155.05 153.718 1151.09 150.751 1147.14 152.729C1143.18 154.707 1140.21 154.708 1136.26 157.675C1132.3 160.642 1135.27 163.61 1128.35 165.588C1121.43 167.566 1121.43 167.566 1116.48 168.555C1111.54 169.544 1110.55 167.566 1108.57 169.544C1106.59 171.522 1103.63 174.49 1101.65 174.49C1099.67 174.49 1087.8 175.479 1087.8 175.479L1068.52 184.381C1068.52 184.381 1060.61 183.887 1057.15 184.381C1053.69 184.875 1053.69 183.391 1050.23 184.875C1046.77 186.359 1043.8 188.338 1041.82 188.832C1039.84 189.326 1035.89 192.294 1032.43 192.294C1028.97 192.294 1026.99 191.305 1023.53 192.294C1020.07 193.283 1019.57 192.788 1016.61 193.777C1013.64 194.766 1011.17 193.777 1010.18 195.756C1009.19 197.734 1008.7 199.712 1008.7 200.701C1008.7 201.69 1011.66 205.152 1012.16 207.13C1012.65 209.109 1014.63 212.571 1015.62 214.549C1016.61 216.527 1016.61 217.516 1017.6 219.989C1018.58 222.462 1020.56 223.945 1021.55 226.913C1022.54 229.88 1022.54 231.858 1024.02 233.836C1025.51 235.815 1026.49 236.804 1026.49 237.793C1026.49 238.782 1026.99 240.266 1026.99 240.266" stroke="#E3E3E3" stroke-width="2" stroke-miterlimit="22.9256"/>
<path d="M1047.34 -84.6426C1047.34 -84.6426 1043.8 -79.2161 1040.34 -77.7327C1036.88 -76.2492 1032.92 -73.7765 1030.45 -72.2928C1027.98 -70.809 1024.52 -69.3253 1018.09 -66.358C1011.66 -63.3908 1004.24 -58.4449 1001.77 -56.4669C999.301 -54.4888 997.323 -52.5107 996.829 -50.0378C996.334 -47.5649 991.884 -28.2774 991.884 -28.2774C991.884 -28.2774 983.973 -16.4082 982.49 -14.9244C981.007 -13.4406 981.007 -12.4512 978.04 -6.5167C975.073 -0.582227 959.746 24.6403 959.746 24.6403L956.285 40.9605C956.285 40.9605 958.757 47.3899 958.263 49.8625C957.768 52.3352 956.779 67.1716 957.274 69.6446C957.768 72.1175 957.768 74.5901 954.802 78.5466C951.835 82.503 950.352 85.4702 949.363 87.9431C948.374 90.4161 945.711 106.514 945.711 106.514" stroke="#E3E3E3" stroke-width="2" stroke-miterlimit="22.9256"/>
<path d="M947.176 106.801L947.386 130.97C947.386 130.97 948.375 136.905 946.398 139.872C944.42 142.839 927.115 174.985 927.115 174.985C927.115 174.985 927.609 176.963 927.115 181.909C926.62 186.854 924.643 188.338 924.643 190.316C924.643 192.295 925.631 194.273 927.115 198.724C928.598 203.175 930.081 210.099 930.576 211.088C931.07 212.077 938.981 221.968 938.981 222.957C938.981 223.946 939.476 226.913 946.398 230.87C953.319 234.826 957.275 235.815 962.219 236.805C967.164 237.794 975.074 238.783 975.074 238.783C975.074 238.783 977.547 241.751 978.536 246.696C979.524 251.641 980.513 253.125 981.997 254.609C983.48 256.092 985.952 261.532 986.941 261.532C987.93 261.532 991.391 261.038 991.391 261.038C991.391 261.038 989.907 270.929 988.919 272.413C987.93 273.896 983.571 278.459 983.974 280.325C984.377 282.192 983.974 291.7 983.974 293.678C983.974 295.657 984.963 306.043 983.48 309.01C981.997 311.977 979.03 318.9 977.052 322.857C975.074 326.814 976.063 331.759 976.558 333.243C977.052 334.727 974.086 345.607 974.086 345.607C974.086 345.607 976.558 349.069 981.502 354.014C986.446 358.96 1026.5 395.062 1026.5 395.062C1026.5 395.062 1046.27 409.899 1048.25 412.866C1050.23 415.834 1062.09 422.757 1066.05 425.725C1070.01 428.692 1071.98 435.616 1073.96 437.594C1075.94 439.572 1082.85 441.961 1086.82 443.529C1090.79 445.096 1088.79 443.529 1100.66 446.496C1112.53 449.463 1135.76 450.453 1136.75 450.453C1137.74 450.453 1142.19 452.925 1147.63 455.893C1153.07 458.86 1162.46 464.3 1167.9 466.278C1173.34 468.257 1170.87 462.322 1177.3 471.718C1183.72 481.115 1182.24 481.61 1187.19 486.555C1192.13 491.5 1184.71 490.512 1195.59 494.963C1206.47 499.414 1221.3 496.941 1222.29 497.435C1223.28 497.93 1248.5 498.919 1249.48 498.919C1250.47 498.919 1315.24 497.93 1315.24 497.93C1315.24 497.93 1331.68 494.346 1339.96 492.984C1348.25 491.623 1351.83 491.995 1356.78 491.995C1361.72 491.995 1370.62 488.038 1375.56 487.049C1380.51 486.061 1421.05 467.267 1421.05 467.267L1434.4 473.202L1504.12 463.311C1504.12 463.311 1509.06 463.311 1514.99 459.355C1520.93 455.398 1521.92 453.42 1524.88 451.442C1527.85 449.463 1529.83 451.442 1532.79 446.496C1535.76 441.551 1534.5 442.965 1536.75 438.583C1539 434.201 1535.76 429.681 1542.68 429.681C1549.6 429.681 1553.56 429.681 1557.51 429.681C1561.47 429.681 1559.49 428.692 1563.45 426.714C1567.4 424.735 1572 419.5 1572 419.5C1572 419.5 1572.35 417.812 1576.3 409.899C1580.26 401.986 1580.26 400.008 1583.23 393.084C1586.19 386.16 1589.16 382.204 1590.15 379.237C1591.14 376.269 1591.14 373.302 1596.08 371.324C1601.02 369.345 1603 368.356 1604.98 364.4C1606.96 360.443 1604.98 356.487 1610.91 347.585C1616.85 338.683 1613.88 331.759 1613.88 325.825C1613.88 319.89 1605.97 291.206 1605.97 291.206L1598.06 257.576L1605.97 232.848L1624.76 212.077C1624.76 212.077 1628.71 206.142 1628.71 204.164C1628.71 202.186 1622.78 185.371 1622.78 185.371L1627.72 177.458L1637.61 174.491L1629.7 155.697V143.828C1629.7 143.828 1625.75 123.056 1624.76 118.111C1623.77 113.166 1622.78 107.231 1623.77 100.307C1624.76 93.3835 1625.75 86.4598 1626.74 84.4815C1627.72 82.5031 1630.69 87.449 1630.69 77.5579C1630.69 67.6667 1633.66 67.6666 1630.69 63.7102C1627.72 59.7538 1625.75 61.7322 1624.76 54.8083C1623.77 47.8843 1627.72 48.8735 1622.78 44.9171C1617.84 40.9607 1615.86 40.9607 1615.86 40.9607C1615.86 40.9607 1613.88 12.2763 1612.89 9.30908C1611.9 6.34184 1615.86 8.31992 1609.92 4.36351C1603.99 0.407098 1608.94 2.38518 1602.01 -0.582062C1595.09 -3.5493 1593.11 -2.56042 1594.1 -5.52766C1595.09 -8.4949 1599.05 -12.4516 1595.09 -14.4297C1591.14 -16.4077 1590.15 -14.4297 1585.2 -22.3425C1580.26 -30.2553 1577.29 -34.212 1571.36 -37.1792C1565.43 -40.1465 1555.04 -41.63 1553.56 -43.1137C1552.08 -44.5975 1538.23 -54.4887 1538.23 -54.4887C1538.23 -54.4887 1525.87 -64.8741 1524.39 -65.8633C1522.9 -66.8525 1522.9 -67.3468 1516.48 -69.3251C1510.05 -71.3035 1502.14 -74.7653 1502.14 -74.7653C1502.14 -74.7653 1476.43 -88.6126 1472.47 -91.5801C1468.52 -94.5476 1454.67 -99.493 1448.74 -100.482C1442.81 -101.471 1439.84 -97.5149 1434.9 -102.46C1429.95 -107.406 1429.95 -109.879 1426.49 -111.857C1423.03 -113.835 1401.27 -133.123 1400.29 -134.112C1399.3 -135.101 1391.39 -138.563 1386.44 -140.047C1381.5 -141.53 1363.7 -150.433 1356.28 -152.411C1348.86 -154.389 1340.95 -156.861 1336.01 -157.851C1331.07 -158.84 1324.64 -162.302 1319.2 -162.302C1313.76 -162.302 1311.78 -161.807 1307.33 -163.785C1302.88 -165.764 1239.6 -192.964 1238.61 -192.964C1237.62 -192.964 1235.15 -194.447 1231.68 -197.415C1228.22 -200.382 1229.71 -200.382 1226.74 -200.877C1223.77 -201.372 1217.16 -201.666 1217.16 -201.666" stroke="#E3E3E3" stroke-width="3" stroke-miterlimit="22.9256"/>
<path d="M1132.41 213.234L1123 216C1123 216 1118.46 217.022 1110.55 221.967C1102.64 226.913 1097.69 230.869 1093.74 231.858C1089.78 232.848 1091.76 234.826 1082.86 235.815C1073.96 236.804 1073.96 236.804 1067.04 237.793C1060.12 238.782 1061.11 239.771 1053.19 239.771C1045.28 239.771 1046.27 239.771 1040.34 238.782C1034.41 237.793 1036.38 236.804 1033.42 237.793C1030.45 238.782 1026.66 239.045 1026.66 239.045C1026.66 239.045 1011.66 244.717 1007.71 247.684C1003.75 250.652 998.312 254.113 994.851 257.575C991.39 261.037 990.896 261.532 986.94 261.532C982.985 261.532 977.052 261.532 975.074 261.532C973.096 261.532 938.486 264.499 935.519 264.499C932.553 264.499 928.598 265.488 928.598 265.488C928.598 265.488 925.631 269.445 922.664 270.434C919.698 271.423 889.043 281.314 889.043 281.314L859.377 304.064" stroke="#E3E3E3" stroke-width="2" stroke-miterlimit="22.9256"/>
<path d="M873.221 -322.043C873.221 -322.043 858.388 -302.261 855.421 -301.272C852.455 -300.283 849.488 -300.283 847.51 -297.316C845.533 -294.349 842.566 -288.414 841.577 -285.447C840.589 -282.479 838.61 -271.599 837.622 -265.664C836.633 -259.729 834.655 -243.904 833.666 -240.937C832.677 -237.969 830.7 -225.111 829.711 -223.133C828.722 -221.154 825.755 -215.219 825.755 -215.219L821.8 -206.317C821.8 -206.317 815.867 -200.383 815.867 -198.405C815.867 -196.427 796.09 -141.036 796.09 -141.036C796.09 -141.036 785.212 -129.167 783.235 -126.2C781.257 -123.232 778.29 -121.254 776.312 -118.287C774.335 -115.319 773.346 -111.363 772.357 -109.385C771.368 -107.407 770.379 -105.429 767.412 -103.45C764.446 -101.472 759.502 -94.5482 759.502 -94.5482L756.535 -49.0491C756.535 -49.0491 752.58 -39.1582 748.624 -36.1906C744.669 -33.2231 740.713 -28.2778 740.713 -28.2778L732.802 -11.4627L731.813 -1.57183L726.869 21.1777C726.869 21.1777 727.858 26.1233 728.847 30.0797C729.836 34.0361 730.825 36.0145 730.825 39.9709C730.825 43.9273 729.836 45.9057 727.858 48.8729C725.88 51.8401 724.892 57.7749 724.892 57.7749C724.892 57.7749 718.958 61.7316 717.969 63.7097C716.981 65.6877 686.326 88.4373 686.326 88.4373C686.326 88.4373 681.381 94.3721 678.415 98.3285C675.448 102.285 673.47 102.285 670.504 106.241C667.537 110.198 665.56 113.165 665.56 113.165L663.582 123.056C663.582 123.056 662.593 130.969 660.615 133.936C658.638 136.904 657.649 137.893 655.671 140.86C653.693 143.828 652.704 148.773 651.716 151.74C650.727 154.708 648.749 164.599 648.749 164.599L631.938 175.479C631.938 175.479 628.972 186.359 626.994 189.327C625.016 192.294 624.027 193.283 624.027 196.25C624.027 199.218 624.027 201.196 625.016 204.163C626.005 207.13 623.039 209.109 626.005 210.098C628.972 211.087 630.95 215.043 634.905 216.032C638.86 217.022 644.794 224.934 644.794 224.934C644.794 224.934 644.793 227.902 650.727 231.858C656.66 235.815 657.649 236.804 662.593 239.771C667.538 242.738 672.482 245.706 677.426 250.652C682.37 255.597 682.371 255.597 684.348 261.532C686.326 267.466 686.326 265.488 688.304 271.423C690.281 277.358 702.148 303.074 702.148 303.074C702.148 303.074 703.137 307.031 703.137 309.998C703.137 312.966 702.147 315.933 704.125 317.911C706.103 319.889 707.092 323.846 709.07 326.813C711.047 329.78 711.464 333.518 711.464 333.518" stroke="#E3E3E3" stroke-width="2" stroke-miterlimit="22.9256"/>
<path d="M956.704 38.9873C956.704 38.9873 962.219 41.9492 967.163 44.9164C972.107 47.8837 972.107 48.8731 981.007 50.8512C989.907 52.8293 991.884 52.8296 997.818 54.8076C1003.75 56.7857 1004.74 57.7751 1007.71 59.7532C1010.67 61.7313 1015.62 61.7313 1020.56 61.7313C1025.51 61.7313 1025.51 59.7532 1030.45 62.7205C1035.39 65.6877 1037.37 69.6441 1043.31 71.6225C1049.24 73.6008 1050.23 74.5897 1060.12 80.5245C1070 86.4592 1070.99 86.4592 1078.9 90.4156C1086.82 94.372 1091.76 95.3612 1095.72 95.3612C1099.67 95.3612 1100.66 93.3831 1104.62 95.3612C1108.57 97.3393 1110.55 96.3504 1112.53 95.3612C1114.5 94.372 1114.5 95.3612 1117.47 98.3285C1120.44 101.296 1121.43 103.274 1124.39 105.252C1127.36 107.23 1124.39 106.242 1131.31 108.22C1138.24 110.198 1140.21 110.198 1143.18 110.198C1146.15 110.198 1160.34 97.8215 1160.34 97.8215" stroke="#E3E3E3" stroke-width="2" stroke-miterlimit="22.9256"/>
<path d="M1533.78 -325.01C1536.37 -320.559 1554.55 -312.152 1564.44 -302.261C1574.33 -292.37 1578.28 -284.456 1589.16 -278.522C1600.04 -272.587 1606.96 -268.631 1615.86 -258.74C1624.76 -248.849 1638.11 -237.474 1638.11 -237.474C1638.11 -237.474 1644.04 -229.561 1648.49 -226.594C1652.94 -223.626 1655.91 -219.67 1656.9 -218.186C1657.89 -216.703 1660.36 -211.262 1660.36 -211.262L1677.17 -176.149L1679.64 -170.214C1679.64 -170.214 1701.89 -136.584 1702.38 -135.595C1702.88 -134.607 1710.79 -125.21 1710.79 -125.21L1716.72 -121.748L1736.5 -113.34C1736.5 -113.34 1740.46 -105.428 1741.94 -102.955C1743.42 -100.482 1771.11 -60.9176 1771.11 -60.9176L1777.54 -51.521C1777.54 -51.521 1783.97 -27.288 1784.46 -25.8042C1784.95 -24.3204 1788.91 -11.4621 1788.91 -11.4621C1788.91 -11.4621 1789.9 -7.50592 1789.9 -5.52758C1789.9 -3.54923 1790.89 10.2981 1790.89 12.2764C1790.89 14.2548 1790.39 21.673 1790.39 21.673L1814.62 53.8192C1814.62 53.8192 1825.99 65.1938 1825.99 66.183C1825.99 67.1722 1829.95 72.118 1830.44 73.6015C1830.94 75.085 1837.36 85.9653 1837.36 85.9653L1837.86 105.747C1837.86 105.747 1839.34 120.09 1839.34 121.573C1839.34 123.057 1841.81 132.948 1841.81 132.948C1841.81 132.948 1845.27 150.752 1846.26 153.719C1847.25 156.687 1849.72 163.61 1850.71 164.6C1851.7 165.589 1854.17 167.072 1855.16 168.061C1856.15 169.051 1863.07 179.931 1862.58 180.92C1862.09 181.909 1863.57 186.855 1863.57 188.833C1863.57 190.811 1864.56 199.218 1863.57 202.68C1862.58 206.142 1858.13 215.044 1858.13 216.033C1858.13 217.022 1859.61 221.968 1859.61 221.968L1859.12 227.903C1859.12 227.903 1853.19 242.739 1852.2 244.717C1851.21 246.696 1850.22 250.652 1850.22 253.619C1850.22 256.587 1849.23 258.565 1851.21 258.565C1853.19 258.565 1859.12 258.565 1859.12 260.543C1859.12 262.521 1859.12 266.478 1859.12 268.456C1859.12 270.434 1857.14 274.391 1857.14 274.391L1852.2 277.358C1852.2 277.358 1851.21 281.315 1849.23 286.26C1847.25 291.206 1847.25 293.184 1847.25 293.184C1847.25 293.184 1840.33 296.151 1837.36 297.14C1834.4 298.129 1831.43 297.141 1831.43 300.108C1831.43 303.075 1825.5 321.868 1825.5 321.868C1825.5 321.868 1824.51 324.836 1825.5 330.77C1826.49 336.705 1826.49 340.661 1827.48 347.585C1828.46 354.509 1829.45 373.302 1829.45 373.302L1828.46 379.237L1773.09 460.343C1773.09 460.343 1770.12 464.3 1768.14 466.278C1766.17 468.257 1765.18 468.257 1764.19 471.224C1763.2 474.191 1761.22 480.126 1761.22 480.126L1738.48 491.995L1721.67 502.875L1705.85 515.734L1686.07 524.636L1652.45 542.44L1635.64 560.244C1635.64 560.244 1626.74 566.179 1622.78 571.124C1618.83 576.069 1617.84 575.081 1615.86 578.048C1613.88 581.015 1601.03 603.765 1598.06 607.721C1595.09 611.677 1595.09 615.634 1592.13 616.623C1589.16 617.612 1585.2 619.591 1585.2 619.591C1585.2 619.591 1576.3 629.482 1574.33 632.449C1572.35 635.416 1565.43 643.329 1560.48 647.285C1555.54 651.242 1550.59 653.22 1546.64 655.199C1542.68 657.177 1537.74 658.166 1532.79 662.122C1527.85 666.079 1527.85 668.057 1520.93 668.057C1514.01 668.057 1501.15 670.035 1496.21 671.024C1491.26 672.013 1484.34 673.002 1478.41 674.98C1472.47 676.959 1465.55 679.926 1459.62 680.915C1453.68 681.904 1449.73 681.905 1446.76 681.905C1443.8 681.905 1442.81 680.915 1439.84 682.893C1436.87 684.872 1421.05 692.785 1418.09 694.763C1415.12 696.741 1398.31 699.708 1398.31 699.708L1365.68 703.665L1344.91 704.654C1344.91 704.654 1343.92 705.643 1335.02 708.61C1326.12 711.578 1326.12 711.577 1326.12 713.556C1326.12 715.534 1327.11 720.479 1324.14 722.458C1321.18 724.436 1319.2 725.425 1312.28 725.425C1305.36 725.425 1295.47 725.425 1295.47 725.425L1241.08 728.392C1241.08 728.392 1226.25 729.382 1224.27 730.371C1222.29 731.36 1213.39 732.349 1200.54 733.338C1187.68 734.327 1184.71 734.328 1180.76 735.316C1176.8 736.305 1172.85 739.273 1172.85 739.273V751.142" stroke="#E3E3E3" stroke-width="2" stroke-miterlimit="22.9256"/>
<path d="M695.228 339.178L687.316 355.498L691.272 370.335C691.272 370.335 694.239 377.259 694.239 379.237C694.239 381.215 691.272 419.79 691.272 419.79L726.871 482.104L732.804 494.963L759.504 542.44L779.281 566.179C779.281 566.179 788.18 578.048 789.169 580.026C790.158 582.004 800.047 585.961 800.047 585.961L811.419 593.379C811.419 593.379 814.385 596.347 814.88 597.83C815.374 599.314 819.824 606.237 819.824 607.721C819.824 609.205 818.835 610.688 822.296 612.667C825.757 614.645 845.535 627.503 845.535 627.503C845.535 627.503 853.445 632.449 855.423 634.427C857.401 636.406 872.234 643.329 872.234 643.329C872.234 643.329 899.922 659.155 901.9 660.144C903.877 661.133 978.043 701.687 979.031 703.665C980.02 705.643 993.864 712.567 993.864 712.567C993.864 712.567 1032.43 724.436 1035.4 725.425C1038.36 726.415 1042.32 729.382 1044.3 730.371C1046.27 731.36 1071 749.164 1071 749.164" stroke="#E3E3E3" stroke-width="2" stroke-miterlimit="22.9256"/>
<path d="M1387.97 242.837L1403.25 236.804L1421.05 235.815L1426.99 238.782L1432.92 234.826H1438.85C1438.85 234.826 1456.65 240.76 1460.11 241.255C1463.57 241.75 1478.41 242.244 1478.41 242.244C1478.41 242.244 1478.9 239.771 1480.38 239.771C1481.87 239.771 1486.32 242.738 1490.27 244.222C1494.23 245.706 1498.18 248.674 1500.66 250.157C1503.13 251.64 1512.52 253.619 1512.52 253.619C1512.52 253.619 1515.98 253.619 1517.96 254.608C1519.94 255.597 1523.89 256.586 1523.89 256.586L1542.68 253.619L1560.48 259.059L1565.43 256.091C1565.43 256.091 1582.73 258.564 1583.72 258.564C1584.71 258.564 1592.13 260.542 1593.11 261.037C1594.1 261.532 1613.88 277.358 1613.88 277.358C1613.88 277.358 1626.74 282.303 1630.2 282.797C1633.66 283.292 1638.11 283.787 1640.09 283.787C1642.06 283.787 1659.86 292.194 1659.86 292.194C1659.86 292.194 1667.28 292.194 1668.27 292.194C1669.26 292.194 1691.51 302.085 1691.51 302.085L1702.88 304.064L1703.87 308.515C1703.87 308.515 1708.81 312.471 1709.8 313.46C1710.79 314.449 1732.05 335.221 1732.05 335.221C1732.05 335.221 1735.51 338.683 1736.99 340.166C1738.48 341.65 1743.92 345.111 1743.92 345.111C1743.92 345.111 1749.35 346.595 1753.31 347.584C1757.27 348.574 1760.23 348.574 1760.23 348.574C1760.23 348.574 1760.73 353.024 1765.18 354.508C1769.63 355.992 1774.57 357.97 1778.53 358.959C1782.48 359.948 1798.8 365.388 1798.8 365.388C1798.8 365.388 1805.72 367.366 1806.71 368.356C1807.7 369.345 1816.6 372.312 1817.59 372.312C1818.58 372.312 1829.45 371.817 1835.39 373.301C1841.32 374.785 1842.31 375.279 1843.79 375.774C1845.27 376.268 1883.84 402.974 1883.84 402.974C1883.84 402.974 1891.75 406.931 1891.75 407.92C1891.75 408.909 1897.19 417.317 1897.68 418.306C1898.18 419.295 1912.52 446.495 1912.52 446.495C1912.52 446.495 1921.42 454.408 1924.38 456.386C1927.35 458.365 1932.29 462.816 1934.27 466.278C1936.25 469.739 1944.16 478.642 1946.14 481.114C1948.12 483.587 1952.07 486.06 1952.07 487.049C1952.07 488.038 1957.02 496.445 1957.02 496.445C1957.02 496.445 1960.97 497.929 1965.92 501.391C1970.86 504.853 1969.38 503.369 1972.34 506.831C1975.31 510.293 1974.32 511.282 1977.78 513.26C1981.24 515.239 1982.23 515.239 1985.69 515.733C1989.15 516.228 2000.03 516.228 2001.51 515.733C2003 515.239 2010.41 511.777 2011.9 511.282C2013.38 510.788 2017.34 510.788 2023.27 510.293C2029.2 509.798 2032.17 509.798 2035.14 510.788C2038.1 511.777 2037.61 510.293 2041.07 513.755C2044.53 517.217 2044.53 516.722 2050.96 522.657C2057.39 528.592 2055.9 528.592 2059.36 530.075C2062.82 531.559 2067.27 532.548 2071.72 532.548C2076.17 532.548 2079.64 530.57 2081.12 530.075C2082.6 529.581 2083.1 529.086 2084.58 530.57C2086.06 532.053 2098.42 532.548 2098.42 532.548C2098.42 532.548 2104.36 530.075 2106.33 528.592C2108.31 527.108 2106.33 526.119 2112.27 527.108C2118.2 528.097 2124.13 531.064 2126.11 532.548C2128.09 534.032 2130.07 534.526 2133.03 537.494" stroke="#E3E3E3" stroke-width="2" stroke-miterlimit="22.9256"/>
<path d="M1171.5 220C1171.5 220 1175.32 214.549 1178.29 214.054C1181.25 213.56 1180.76 213.065 1183.23 210.592C1185.7 208.12 1187.19 206.141 1188.18 204.658C1189.16 203.174 1189.78 202.41 1189.78 202.41" stroke="#E3E3E3" stroke-width="2" stroke-miterlimit="22.9256"/>
<path d="M1061.83 264.499C1061.83 264.499 1063.58 254.607 1063.58 252.135C1063.58 249.662 1062.59 245.211 1065.56 244.222C1068.52 243.233 1069.02 242.244 1073.47 242.244C1077.92 242.244 1080.39 243.728 1080.88 241.749C1081.38 239.771 1081.87 237.793 1081.87 237.793C1081.87 237.793 1082.86 235.814 1083.85 229.88C1084.84 223.945 1085.83 222.956 1089.29 219.494C1092.75 216.032 1090.77 215.538 1094.73 214.054C1098.68 212.57 1097.69 213.065 1103.63 211.087C1109.56 209.108 1112.03 208.614 1115 207.13C1117.97 205.647 1117.47 207.13 1119.94 203.174C1122.41 199.217 1121.92 197.734 1124.39 194.272C1126.86 190.81 1125.38 189.326 1129.34 187.348C1133.29 185.37 1130.82 182.897 1137.25 182.402C1143.68 181.908 1144.17 180.424 1146.64 179.93C1149.11 179.435 1152.33 179.535 1152.33 179.535" stroke="#E3E3E3" stroke-width="2" stroke-miterlimit="22.9256"/>
<path d="M1170.41 -1.3252C1170.41 -1.3252 1169.39 3.86882 1168.4 6.83606C1167.41 9.80331 1168.4 9.80329 1165.93 13.7597C1163.45 17.7161 1162.46 17.7159 1161.97 21.178C1161.48 24.6401 1159.24 26.4777 1159.99 27.1127" stroke="#E3E3E3" stroke-width="2" stroke-miterlimit="22.9256"/>
<path d="M1016.61 193.778C1016.61 193.778 1018.09 188.832 1013.15 186.359C1008.2 183.887 1007.71 186.36 1005.73 183.887C1003.75 181.414 1002.27 180.425 1002.27 178.447C1002.27 176.468 1005.73 173.006 1010.18 171.523C1014.63 170.039 1015.62 169.545 1019.57 170.534C1023.53 171.523 1028.47 173.996 1029.46 175.479C1030.45 176.963 1027.98 179.93 1030.94 176.963C1033.91 173.996 1030.94 177.952 1034.41 172.512C1037.87 167.072 1037.87 168.061 1038.36 165.094C1038.86 162.126 1035.39 160.643 1039.84 159.653C1044.29 158.664 1048.74 158.17 1050.23 158.17C1051.71 158.17 1054.18 159.654 1055.17 161.632C1056.16 163.61 1055.67 163.61 1056.16 165.588C1056.66 167.566 1057.15 167.072 1061.6 168.061C1066.05 169.05 1065.06 171.028 1069.02 169.05C1072.97 167.072 1073.47 167.567 1076.43 165.094C1079.4 162.621 1077.92 161.632 1081.38 160.643C1084.84 159.653 1084.34 161.137 1087.31 160.148C1090.28 159.159 1093.74 154.708 1096.21 150.751C1098.68 146.795 1098.68 145.806 1099.18 143.333C1099.67 140.86 1098.68 138.882 1101.65 138.882C1104.61 138.882 1102.64 142.344 1105.6 138.882C1108.57 135.42 1108.57 133.936 1110.05 132.453C1111.54 130.969 1104.61 130.969 1113.02 128.496C1121.43 126.024 1132.8 118.606 1136.26 116.133C1139.72 113.66 1143.18 110.198 1143.18 110.198L1144.02 110.002" stroke="#E3E3E3" stroke-width="2" stroke-miterlimit="22.9256"/>
<path d="M1088.37 159.667L1087.81 175.479" stroke="#E3E3E3" stroke-width="2" stroke-miterlimit="22.9256"/>
</svg>
