<svg width="18" height="18" viewBox="0 0 18 18" fill="none" xmlns="http://www.w3.org/2000/svg">
<path fill-rule="evenodd" clip-rule="evenodd" d="M5 2H2V16H13V10C13 9.44771 13.4477 9 14 9C14.5523 9 15 9.44771 15 10V16.8C15 17.4627 14.4627 18 13.8 18H1.2C0.537258 18 0 17.4627 0 16.8V1.2C0 0.537257 0.53726 0 1.2 0H5C5.55228 0 6 0.447715 6 1C6 1.55228 5.55228 2 5 2ZM17.7391 0.326376C18.1111 0.734553 18.0818 1.36704 17.6736 1.73908L12.1879 6.73908C11.8154 7.07862 11.2484 7.08783 10.865 6.76057L7.35076 3.76057C6.93071 3.40199 6.88088 2.77079 7.23945 2.35074C7.59803 1.9307 8.22923 1.88086 8.64928 2.23944L11.4926 4.6667L16.3264 0.260938C16.7346 -0.111098 17.3671 -0.0817998 17.7391 0.326376ZM6 4V6H4V4H6ZM4 10H11V8H4V10ZM11 14H4V12H11V14Z" fill="black"/>
</svg>
