<svg width="22" height="22" viewBox="0 0 22 22" fill="none" xmlns="http://www.w3.org/2000/svg">
<path fill-rule="evenodd" clip-rule="evenodd" d="M16.94 22C7.5988 22 0 14.4012 0 5.06C0 2.2693 2.2704 0 5.06 0C5.346 0 5.6287 0.0242 5.9026 0.0715C6.1699 0.1144 6.4394 0.1826 6.7001 0.2728C7.0587 0.3971 7.3271 0.6974 7.4118 1.067L8.9188 7.6274C9.0013 7.9882 8.8968 8.3666 8.6405 8.635C8.4898 8.7912 8.4865 8.7945 7.1225 9.5084C8.2269 11.8998 10.1464 13.8127 12.4905 14.8797C13.2044 13.5146 13.2088 13.5102 13.365 13.3606C13.6345 13.1032 14.014 13.0031 14.3737 13.0823L20.9341 14.5882C21.3026 14.6729 21.6029 14.9413 21.7272 15.2988C21.8174 15.5584 21.8845 15.8268 21.9296 16.1029C21.9758 16.3746 22 16.6562 22 16.94C22 19.7307 19.7307 22 16.94 22Z" fill="white"/>
</svg>
