<svg width="12" height="14" viewBox="0 0 12 14" fill="none" xmlns="http://www.w3.org/2000/svg">
<path fill-rule="evenodd" clip-rule="evenodd" d="M5.99998 6.29954C5.43716 6.29954 4.97914 5.82844 4.97914 5.24954C4.97914 4.67064 5.43716 4.19954 5.99998 4.19954C6.5628 4.19954 7.02081 4.67064 7.02081 5.24954C7.02081 5.82844 6.5628 6.29954 5.99998 6.29954ZM6.00027 2.7997C4.6868 2.7997 3.61832 3.8987 3.61832 5.2497C3.61832 6.6007 4.6868 7.6997 6.00027 7.6997C7.31374 7.6997 8.38221 6.6007 8.38221 5.2497C8.38221 3.8987 7.31374 2.7997 6.00027 2.7997ZM6.00005 12.3523C4.86012 11.2435 1.91672 8.13059 1.91672 5.54549C1.91672 3.25999 3.74809 1.40009 6.00005 1.40009C8.25201 1.40009 10.0834 3.25999 10.0834 5.54549C10.0834 8.13059 7.13998 11.2435 6.00005 12.3523ZM6.00011 0C2.99818 0 0.555664 2.4871 0.555664 5.5454C0.555664 9.3779 5.3529 13.6507 5.55707 13.8306C5.68501 13.9433 5.84222 14 6.00011 14C6.158 14 6.31521 13.9433 6.44315 13.8306C6.64732 13.6507 11.4446 9.3779 11.4446 5.5454C11.4446 2.4871 9.00204 0 6.00011 0Z" fill="#9F9F9F"/>
</svg>
