<svg width="13" height="22" viewBox="0 0 13 22" fill="none" xmlns="http://www.w3.org/2000/svg">
<path d="M3.77344 14.3691V13.3574C3.77344 12.4824 3.96029 11.7214 4.33398 11.0742C4.70768 10.4271 5.39128 9.73893 6.38477 9.00977C7.3418 8.32617 7.9707 7.77018 8.27148 7.3418C8.58138 6.91341 8.73633 6.4349 8.73633 5.90625C8.73633 5.3138 8.51758 4.86263 8.08008 4.55273C7.64258 4.24284 7.0319 4.08789 6.24805 4.08789C4.88086 4.08789 3.32227 4.53451 1.57227 5.42773L0.0820312 2.43359C2.11458 1.29427 4.27018 0.724609 6.54883 0.724609C8.42643 0.724609 9.91667 1.17578 11.0195 2.07812C12.1315 2.98047 12.6875 4.18359 12.6875 5.6875C12.6875 6.6901 12.4596 7.55599 12.0039 8.28516C11.5482 9.01432 10.6823 9.83464 9.40625 10.7461C8.53125 11.3932 7.97526 11.8854 7.73828 12.2227C7.51042 12.5599 7.39648 13.002 7.39648 13.5488V14.3691H3.77344ZM3.33594 19.0449C3.33594 18.2793 3.54102 17.7005 3.95117 17.3086C4.36133 16.9167 4.95833 16.7207 5.74219 16.7207C6.4987 16.7207 7.08203 16.9212 7.49219 17.3223C7.91146 17.7233 8.12109 18.2975 8.12109 19.0449C8.12109 19.765 7.91146 20.3346 7.49219 20.7539C7.07292 21.1641 6.48958 21.3691 5.74219 21.3691C4.97656 21.3691 4.38411 21.1686 3.96484 20.7676C3.54557 20.3574 3.33594 19.7832 3.33594 19.0449Z" fill="black"/>
</svg>
