<svg width="69" height="74" viewBox="0 0 69 74" fill="none" xmlns="http://www.w3.org/2000/svg">
<path d="M29.5422 28.8457C26.2711 32.0395 22.1822 33.6364 17.2756 33.6364C12.3689 33.6364 8.24592 32.0055 4.90667 28.7438C1.63555 25.4821 0 21.5069 0 16.8182C0 12.1295 1.63555 8.15427 4.90667 4.89256C8.24592 1.63085 12.3689 0 17.2756 0C22.1822 0 26.2711 1.63085 29.5422 4.89256C32.8133 8.08632 34.4489 12.0615 34.4489 16.8182C34.4489 21.5748 32.8133 25.584 29.5422 28.8457ZM7.25778 61.9724L53.8711 10.2948L60.1067 13.7603L13.3911 65.5399L7.25778 61.9724ZM12.5733 21.5069C13.8 22.73 15.3333 23.3416 17.1733 23.3416C19.0133 23.3416 20.5467 22.73 21.7733 21.5069C23 20.2158 23.6133 18.6529 23.6133 16.8182C23.6133 14.9835 23 13.4545 21.7733 12.2314C20.5467 11.0083 19.0133 10.3967 17.1733 10.3967C15.3333 10.3967 13.8 11.0083 12.5733 12.2314C11.4148 13.4545 10.8356 14.9835 10.8356 16.8182C10.8356 18.6529 11.4148 20.2158 12.5733 21.5069ZM64.0933 69.1074C60.8222 72.3691 56.7333 74 51.8267 74C46.92 74 42.8311 72.3691 39.56 69.1074C36.2889 65.8457 34.6533 61.8705 34.6533 57.1818C34.6533 52.4931 36.2889 48.5179 39.56 45.2562C42.8311 41.9945 46.92 40.3636 51.8267 40.3636C56.7333 40.3636 60.8222 41.9945 64.0933 45.2562C67.3644 48.5179 69 52.4931 69 57.1818C69 61.8705 67.3644 65.8457 64.0933 69.1074ZM47.2267 61.8705C48.4533 63.0937 49.9867 63.7052 51.8267 63.7052C53.6667 63.7052 55.1659 63.0597 56.3244 61.7686C57.5511 60.4775 58.1644 58.9486 58.1644 57.1818C58.1644 55.3471 57.5511 53.8182 56.3244 52.595C55.1659 51.3039 53.6667 50.6584 51.8267 50.6584C49.9867 50.6584 48.4533 51.3039 47.2267 52.595C46.0681 53.8182 45.4889 55.3471 45.4889 57.1818C45.4889 59.0165 46.0681 60.5794 47.2267 61.8705Z" fill="#EBBA34"/>
</svg>
