<svg width="14" height="14" viewBox="0 0 14 14" fill="none" xmlns="http://www.w3.org/2000/svg">
<path fill-rule="evenodd" clip-rule="evenodd" d="M10.1111 5.83333C10.1111 8.19588 8.19588 10.1111 5.83333 10.1111C3.47078 10.1111 1.55556 8.19588 1.55556 5.83333C1.55556 3.47078 3.47078 1.55556 5.83333 1.55556C8.19588 1.55556 10.1111 3.47078 10.1111 5.83333ZM9.37154 10.4715C8.39014 11.2213 7.16375 11.6667 5.83333 11.6667C2.61167 11.6667 0 9.05499 0 5.83333C0 2.61167 2.61167 0 5.83333 0C9.05499 0 11.6667 2.61167 11.6667 5.83333C11.6667 7.16375 11.2213 8.39014 10.4715 9.37154L13.7722 12.6722C14.0759 12.976 14.0759 13.4685 13.7722 13.7722C13.4685 14.0759 12.976 14.0759 12.6722 13.7722L9.37154 10.4715Z" fill="black"/>
</svg>
