<svg width="24" height="22" viewBox="0 0 24 22" fill="none" xmlns="http://www.w3.org/2000/svg">
<path d="M1.09184 10.5694L6.30288 12.6437L8.31988 19.5617C8.44894 20.0048 8.95695 20.1686 9.29415 19.8745L12.1989 17.3491C12.5034 17.0845 12.937 17.0713 13.2552 17.3176L18.4943 21.3743C18.855 21.6539 19.3661 21.4431 19.4565 20.9783L23.2944 1.28947C23.3932 0.781672 22.9254 0.358054 22.472 0.54506L1.08573 9.34392C0.557963 9.56099 0.562562 10.3579 1.09184 10.5694ZM7.99482 11.5395L18.1791 4.84982C18.3622 4.72995 18.5505 4.99389 18.3933 5.14938L9.98829 13.4818C9.69286 13.7751 9.50229 14.1676 9.44831 14.5937L9.162 16.8566C9.12408 17.1587 8.72612 17.1887 8.64795 16.8963L7.54681 12.7698C7.42069 12.2992 7.60448 11.7965 7.99482 11.5395Z" fill="white"/>
</svg>
