<svg width="24" height="24" viewBox="0 0 24 24" fill="none" xmlns="http://www.w3.org/2000/svg">
<path d="M17.1809 14.2447C16.8972 14.1033 15.5158 13.4277 15.2586 13.3344C15.0013 13.2392 14.8129 13.193 14.6244 13.4757C14.4388 13.7537 13.8979 14.3841 13.7349 14.5707C13.57 14.7544 13.406 14.7686 13.1261 14.6414C12.8434 14.5 11.936 14.2032 10.8618 13.242C10.025 12.4929 9.46338 11.5742 9.29754 11.2915C9.13358 11.0088 9.27963 10.8533 9.42004 10.7119C9.54819 10.5847 9.70367 10.3868 9.84502 10.2191C9.9826 10.0486 10.0278 9.93548 10.1249 9.75173C10.2191 9.55385 10.1711 9.39836 10.1013 9.25796C10.0307 9.11661 9.46809 7.73142 9.23252 7.17923C9.00636 6.62892 8.77361 6.69865 8.59929 6.69865C8.43721 6.68452 8.24969 6.68452 8.06123 6.68452C7.87277 6.68452 7.5684 6.75425 7.31021 7.02281C7.05296 7.3055 6.3255 7.98396 6.3255 9.35502C6.3255 10.7261 7.33377 12.0547 7.47417 12.2526C7.61458 12.4364 9.45773 15.2633 12.2799 16.4789C12.9527 16.7616 13.4767 16.9312 13.8856 17.0716C14.5584 17.2855 15.1719 17.2553 15.6572 17.1856C16.1981 17.0998 17.3222 16.5062 17.5569 15.8419C17.7972 15.1775 17.7972 14.6263 17.7265 14.4991C17.6567 14.3719 17.4721 14.3012 17.1894 14.174L17.1809 14.2447ZM12.0576 21.1876H12.0425C10.3746 21.1876 8.72179 20.7353 7.27911 19.8872L6.93988 19.6855L3.40623 20.6043L4.35325 17.1696L4.12804 16.8162C3.19515 15.3311 2.6995 13.6208 2.6995 11.8597C2.6995 6.72881 6.89748 2.54496 12.0679 2.54496C14.5688 2.54496 16.9161 3.52025 18.6839 5.28708C20.4507 7.03883 21.425 9.38611 21.425 11.8738C21.4213 17.0037 17.2223 21.1885 12.0632 21.1885L12.0576 21.1876ZM20.0285 3.9424C17.8801 1.86556 15.0532 0.692383 12.0425 0.692383C5.84021 0.692383 0.790383 5.71865 0.787556 11.8992C0.787556 13.8743 1.30488 15.8004 2.29054 17.5013L0.692383 23.3078L6.6619 21.7511C8.30717 22.6397 10.1579 23.1118 12.0425 23.1146H12.0481C18.2532 23.1146 23.3049 18.0864 23.3078 11.9049C23.3078 8.91213 22.1393 6.09558 20.0144 3.97915" fill="white"/>
</svg>
