<svg width="24" height="24" viewBox="0 0 24 24" fill="none" xmlns="http://www.w3.org/2000/svg">
<circle cx="12" cy="12" r="12" fill="#FDD900"/>
<path d="M12.9766 13.3906H10.3984L10 6H13.375L12.9766 13.3906ZM10.0312 16.125C10.0312 15.651 10.1719 15.2839 10.4531 15.0234C10.7344 14.7578 11.1432 14.625 11.6797 14.625C12.2109 14.625 12.612 14.7578 12.8828 15.0234C13.1589 15.2839 13.2969 15.651 13.2969 16.125C13.2969 16.5938 13.1536 16.9609 12.8672 17.2266C12.5859 17.487 12.1901 17.6172 11.6797 17.6172C11.1641 17.6172 10.7604 17.487 10.4688 17.2266C10.1771 16.9609 10.0312 16.5938 10.0312 16.125Z" fill="black"/>
</svg>
