<svg width="25" height="24" viewBox="0 0 25 24" fill="none" xmlns="http://www.w3.org/2000/svg">
<g clip-path="url(#clip0)">
<path fill-rule="evenodd" clip-rule="evenodd" d="M10.4707 10C13.2282 10 15.4707 7.7575 15.4707 5C15.4707 2.2425 13.2282 0 10.4707 0C7.7132 0 5.4707 2.2425 5.4707 5C5.4707 7.7575 7.7132 10 10.4707 10ZM23.9461 0.537789C23.8745 0.465179 23.7667 0.428873 23.6225 0.428873C23.4924 0.428873 23.384 0.476579 23.2972 0.571991L19.7583 4.46872V4.46827L23.297 0.571777C23.3837 0.476365 23.4922 0.428659 23.6223 0.428659C23.7666 0.428659 23.8745 0.465035 23.9461 0.537789ZM23.3088 8.88764C23.2826 8.85924 23.2592 8.82613 23.2387 8.7883L20.8707 4.52727L20.8706 4.52733L23.2385 8.78808C23.259 8.82601 23.2825 8.85919 23.3088 8.88764ZM19.0051 8.90686C18.9346 8.8353 18.8994 8.72849 18.8994 8.58642V0.858014C18.8994 0.571777 19.0425 0.428659 19.3287 0.428659C19.4719 0.428659 19.5793 0.464474 19.6508 0.536105C19.5793 0.464617 19.472 0.428873 19.3289 0.428873C19.0427 0.428873 18.8996 0.571991 18.8996 0.858228V8.58663C18.8996 8.72856 18.9348 8.8353 19.0051 8.90686ZM20.1867 0.858014V3.35891L22.9798 0.283429C23.1486 0.0977376 23.3726 0 23.6223 0C23.8315 0 24.0671 0.0525887 24.2474 0.23289C24.4277 0.413191 24.4803 0.64882 24.4803 0.858014C24.4803 1.08081 24.3962 1.2786 24.2532 1.43751L24.2518 1.43899L22.006 3.91115L24.3667 8.16158L24.3673 8.16273C24.4391 8.29071 24.4803 8.4337 24.4803 8.58642C24.4803 8.82958 24.3734 9.03353 24.2181 9.18877C24.0625 9.34439 23.8597 9.44443 23.6223 9.44443C23.4715 9.44443 23.318 9.41085 23.1775 9.32752C23.0377 9.24457 22.9349 9.12661 22.8629 8.9947L20.7858 5.25718L20.1867 5.91585V8.58642C20.1867 8.79561 20.1341 9.03124 19.9538 9.21154C19.7735 9.39184 19.5379 9.44443 19.3287 9.44443C19.1195 9.44443 18.8839 9.39184 18.7036 9.21154C18.5233 9.03124 18.4707 8.79561 18.4707 8.58642V0.858014C18.4707 0.64882 18.5233 0.413191 18.7036 0.23289C18.8839 0.0525887 19.1195 0 19.3287 0C19.5379 0 19.7735 0.0525887 19.9538 0.23289C20.1341 0.413191 20.1867 0.64882 20.1867 0.858014ZM0.470703 22C0.470703 16.4772 4.94786 12 10.4707 12C15.9936 12 20.4707 16.4772 20.4707 22V24H0.470703V22ZM12.4707 18C12.4707 17.4477 12.9184 17 13.4707 17H15.4707C16.023 17 16.4707 17.4477 16.4707 18C16.4707 18.5523 16.023 19 15.4707 19H13.4707C12.9184 19 12.4707 18.5523 12.4707 18Z" fill="#9F9F9F"/>
</g>
<defs>
<clipPath id="clip0">
<rect width="24" height="24" fill="white" transform="translate(0.470703)"/>
</clipPath>
</defs>
</svg>
