<svg width="25" height="32" viewBox="0 0 25 32" fill="none" xmlns="http://www.w3.org/2000/svg">
<path d="M3.4904 31.5V26.8543H0V22.6429H3.4904V19.2563H0V13.8726H3.4904V0.5H13.438C17.452 0.5 20.3752 1.31046 22.2077 2.93137C24.0692 4.55229 25 6.78105 25 9.61765C25 11.2965 24.6219 12.874 23.8656 14.3501C23.1094 15.8263 21.8441 17.0131 20.0698 17.9104C18.3246 18.8077 15.9395 19.2563 12.9145 19.2563H10.0785V22.6429H16.7976V26.8543H10.0785V31.5H3.4904ZM10.0785 13.8726H12.26C14.1216 13.8726 15.5905 13.5542 16.6667 12.9174C17.772 12.2806 18.3246 11.253 18.3246 9.83474C18.3246 7.20075 16.5794 5.88375 13.089 5.88375H10.0785V13.8726Z" fill="#9F9F9F"/>
</svg>
