<svg width="18" height="17" viewBox="0 0 18 17" fill="none" xmlns="http://www.w3.org/2000/svg">
<path fill-rule="evenodd" clip-rule="evenodd" d="M14.0054 17C13.8632 17 13.7201 16.9668 13.5887 16.8987L8.99955 14.5094L4.41129 16.8987C4.10709 17.0556 3.73989 17.0287 3.46448 16.8278C3.18728 16.6269 3.04958 16.287 3.10808 15.9507L3.98199 10.9031L0.273944 7.32915C0.0273413 7.09148 -0.0617598 6.73453 0.0435415 6.40807C0.148843 6.08341 0.430546 5.84574 0.77075 5.79731L5.90081 5.05471L8.19404 0.457399C8.49824 -0.152466 9.50176 -0.152466 9.80596 0.457399L12.0992 5.05471L17.2292 5.79731C17.5695 5.84574 17.8512 6.08341 17.9565 6.40807C18.0618 6.73453 17.9727 7.09148 17.7261 7.32915L14.018 10.9031L14.8919 15.9507C14.9504 16.287 14.8118 16.6269 14.5355 16.8278C14.3789 16.9426 14.1926 17 14.0054 17Z" fill="#9F9F9F"/>
</svg>
