<svg width="32" height="31" viewBox="0 0 32 31" fill="none" xmlns="http://www.w3.org/2000/svg">
<path d="M4.6402 11.047L0.570438 28.547C0.278787 29.8011 1.23089 31 2.51845 31H29.4815C30.769 31 31.7211 29.8011 31.4295 28.547L27.3597 11.047C27.1491 10.1411 26.3418 9.5 25.4117 9.5H6.58822C5.65818 9.5 4.85087 10.1411 4.6402 11.047Z" fill="#9F9F9F"/>
<path fill-rule="evenodd" clip-rule="evenodd" d="M16 8C17.3807 8 18.5 6.88071 18.5 5.5C18.5 4.11929 17.3807 3 16 3C14.6193 3 13.5 4.11929 13.5 5.5C13.5 6.88071 14.6193 8 16 8ZM16 10.5C18.7614 10.5 21 8.26142 21 5.5C21 2.73858 18.7614 0.5 16 0.5C13.2386 0.5 11 2.73858 11 5.5C11 8.26142 13.2386 10.5 16 10.5Z" fill="#9F9F9F"/>
<path d="M15.7928 16.3003H13.5488L10.8428 19.7103L10.8098 19.6883C10.9088 19.3693 10.9308 19.1053 10.9308 18.6653V16.3003H9.22583V24.0003H10.9308V21.2283C10.9308 20.7883 10.9088 20.5683 10.8098 20.2383L10.8428 20.2273L13.9998 24.0003H16.3098L13.2408 20.5463C12.9328 20.1943 12.8008 20.0623 12.5698 19.9303V19.8863C12.8008 19.7433 12.9878 19.5563 13.2848 19.2153L15.7928 16.3003Z" fill="white"/>
<path d="M19.8723 16.1353C17.3863 16.1353 15.7253 17.7523 15.7253 20.1393C15.7253 22.5483 17.3863 24.1653 19.8173 24.1653C22.3583 24.1653 23.5793 22.3393 23.5793 19.9193V19.5673H19.7513V20.9973H21.1593C21.4673 20.9973 21.7313 20.9753 21.8633 20.8763L21.8853 20.8983C21.7863 21.7013 21.2253 22.5153 19.7733 22.5153C18.3873 22.5153 17.4743 21.5583 17.4743 20.1173C17.4743 18.7313 18.4203 17.7853 19.8173 17.7853C20.5433 17.7853 21.3023 18.0493 21.8853 18.4783L22.8533 17.0923C21.9953 16.4653 21.0053 16.1353 19.8723 16.1353Z" fill="white"/>
</svg>
