<svg width="12" height="14" viewBox="0 0 12 14" fill="none" xmlns="http://www.w3.org/2000/svg">
<path fill-rule="evenodd" clip-rule="evenodd" d="M4.5 2.33333C4.5 1.90378 4.83579 1.55556 5.25 1.55556H6.75C7.16421 1.55556 7.5 1.90378 7.5 2.33333V3.11111H4.5V2.33333ZM3 3.11111V2.33333C3 1.04467 4.00736 0 5.25 0H6.75C7.99264 0 9 1.04467 9 2.33333V3.11111H10.5H11.25C11.6642 3.11111 12 3.45933 12 3.88889C12 4.31844 11.6642 4.66667 11.25 4.66667H10.5V13.2222C10.5 13.6518 10.1642 14 9.75 14H2.25C1.83579 14 1.5 13.6518 1.5 13.2222V4.66667H0.75C0.335786 4.66667 0 4.31844 0 3.88889C0 3.45933 0.335786 3.11111 0.75 3.11111H1.5H3ZM3 4.66667H9V12.4444H3V4.66667Z" fill="#9F9F9F"/>
</svg>
