<svg width="14" height="14" viewBox="0 0 14 14" fill="none" xmlns="http://www.w3.org/2000/svg">
<path fill-rule="evenodd" clip-rule="evenodd" d="M3.65441 2.24183C3.04976 2.24183 2.4829 2.48633 2.0588 2.93067C1.17842 3.85302 1.17842 5.3544 2.0595 6.27822L6.9996 11.4544L11.9404 6.27822C12.8215 5.3544 12.8215 3.85302 11.9404 2.93067C11.0922 2.04125 9.59736 2.04272 8.74917 2.93067L7.49508 4.24465C7.23194 4.52063 6.76725 4.52063 6.50412 4.24465L5.25002 2.92993C4.82593 2.48633 4.25977 2.24183 3.65441 2.24183ZM6.99969 13.2223C6.81424 13.2223 6.63578 13.1454 6.50491 13.0071L1.06864 7.3119C-0.356213 5.81856 -0.356213 3.38897 1.06864 1.89564C1.75727 1.17532 2.67545 0.777832 3.65451 0.777832C4.63357 0.777832 5.55245 1.17532 6.24038 1.89564L6.99969 2.69135L7.75901 1.89637C8.44764 1.17532 9.36582 0.777832 10.3456 0.777832C11.3239 0.777832 12.2428 1.17532 12.9307 1.89564C14.3563 3.38897 14.3563 5.81856 12.9314 7.3119L7.49517 13.0078C7.36361 13.1454 7.18585 13.2223 6.99969 13.2223Z" fill="#EB5757"/>
</svg>
