<svg width="12" height="12" viewBox="0 0 12 12" fill="none" xmlns="http://www.w3.org/2000/svg">
<path fill-rule="evenodd" clip-rule="evenodd" d="M10.2003 10.1668C10.2003 10.5041 9.93152 10.7779 9.60032 10.7779C9.26912 10.7779 9.00032 10.5041 9.00032 10.1668C9.00032 9.82944 9.26912 9.55566 9.60032 9.55566C9.93152 9.55566 10.2003 9.82944 10.2003 10.1668ZM6.00043 8.33279H1.20043L1.21003 2.22168H7.80043L7.79083 8.33279H6.00043ZM2.99968 10.1668C2.99968 10.5041 2.73088 10.7779 2.39968 10.7779C2.06848 10.7779 1.79968 10.5041 1.79968 10.1668C1.79968 9.82944 2.06848 9.55566 2.39968 9.55566C2.73088 9.55566 2.99968 9.82944 2.99968 10.1668ZM10.8003 6.79369V8.33369H9.00032V5.32764L10.8003 6.79369ZM11.775 6.02272L9 3.76161V2.22222C9 1.54817 8.5122 1 7.9122 1H1.0872C0.4878 1 0 1.54817 0 2.22222V8.33333C0 8.86683 0.3078 9.31661 0.7326 9.48344C0.6486 9.69489 0.6 9.92467 0.6 10.1667C0.6 11.1774 1.4076 12 2.4 12C3.3924 12 4.2 11.1774 4.2 10.1667C4.2 9.95094 4.1568 9.74744 4.089 9.55556H6H7.911C7.8432 9.74744 7.8 9.95094 7.8 10.1667C7.8 11.1774 8.6076 12 9.6 12C10.5924 12 11.4 11.1774 11.4 10.1667C11.4 9.95094 11.3568 9.74744 11.289 9.55556H11.4C11.7318 9.55556 12 9.28239 12 8.94444V6.5C12 6.31422 11.9172 6.13883 11.775 6.02272Z" fill="white"/>
</svg>
