<svg width="12" height="12" viewBox="0 0 12 12" fill="none" xmlns="http://www.w3.org/2000/svg">
<path fill-rule="evenodd" clip-rule="evenodd" d="M11.1374 1.80458C11.3978 1.54423 11.3978 1.12212 11.1374 0.861766C10.8771 0.601417 10.455 0.601417 10.1946 0.861766L5.99935 5.05703L1.80409 0.861766C1.54374 0.601417 1.12163 0.601418 0.861278 0.861766C0.600928 1.12212 0.600928 1.54423 0.861278 1.80458L5.05654 5.99984L0.861278 10.1951C0.600929 10.4554 0.600929 10.8776 0.861278 11.1379C1.12163 11.3983 1.54374 11.3983 1.80409 11.1379L5.99935 6.94265L10.1946 11.1379C10.455 11.3983 10.8771 11.3983 11.1374 11.1379C11.3978 10.8776 11.3978 10.4554 11.1374 10.1951L6.94216 5.99984L11.1374 1.80458Z" fill="white"/>
</svg>
