<svg width="12" height="12" viewBox="0 0 12 12" fill="none" xmlns="http://www.w3.org/2000/svg">
<g clip-path="url(#clip0)">
<path fill-rule="evenodd" clip-rule="evenodd" d="M5.13867 1.13807C5.39902 0.877722 5.39902 0.455612 5.13867 0.195262C4.87832 -0.0650874 4.45621 -0.0650874 4.19586 0.195262L0.431565 3.95956C0.0410409 4.35008 0.0410408 4.98325 0.431565 5.37377L4.19586 9.13807C4.45621 9.39842 4.87832 9.39842 5.13867 9.13807C5.39902 8.87772 5.39902 8.45561 5.13867 8.19526L2.27674 5.33333H10.0006V11.3333C10.0006 11.7015 10.2991 12 10.6673 12C11.0355 12 11.3339 11.7015 11.3339 11.3333V5.33333C11.3339 4.59695 10.737 4 10.0006 4H2.27674L5.13867 1.13807Z" fill="white"/>
</g>
<defs>
<clipPath id="clip0">
<rect width="12" height="12" fill="white"/>
</clipPath>
</defs>
</svg>
