<svg width="12" height="12" viewBox="0 0 12 12" fill="none" xmlns="http://www.w3.org/2000/svg">
<path fill-rule="evenodd" clip-rule="evenodd" d="M7.50039 0.399902H3.40039V5.3999H2.00039C1.66902 5.3999 1.40039 5.66853 1.40039 5.9999C1.40039 6.33127 1.66902 6.5999 2.00039 6.5999H3.40039V7.3999H2.00039C1.66902 7.3999 1.40039 7.66853 1.40039 7.9999C1.40039 8.33127 1.66902 8.5999 2.00039 8.5999H3.40039V10.9999C3.40039 11.3313 3.66902 11.5999 4.00039 11.5999C4.33176 11.5999 4.60039 11.3313 4.60039 10.9999V8.5999H8.00039C8.33176 8.5999 8.60039 8.33127 8.60039 7.9999C8.60039 7.66853 8.33176 7.3999 8.00039 7.3999H4.60039V6.5999H7.50039C9.21247 6.5999 10.6004 5.21199 10.6004 3.4999C10.6004 1.78782 9.21247 0.399902 7.50039 0.399902ZM7.50039 5.3999H4.60039V1.5999H7.50039C8.54973 1.5999 9.40039 2.45056 9.40039 3.4999C9.40039 4.54924 8.54973 5.3999 7.50039 5.3999Z" fill="white"/>
</svg>
