<svg width="48" height="38" viewBox="0 0 48 38" fill="none" xmlns="http://www.w3.org/2000/svg">
<path fill-rule="evenodd" clip-rule="evenodd" d="M40.7995 32.9997H7.19948C5.87708 32.9997 4.79948 31.9544 4.79948 30.6664V7.9166L22.5595 20.8665C22.9867 21.1791 23.4931 21.3331 23.9995 21.3331C24.5059 21.3331 25.0123 21.1791 25.4395 20.8665L43.1995 7.9166V30.6664C43.1995 31.9544 42.1219 32.9997 40.7995 32.9997V32.9997ZM39.2005 4.99995L24.0013 16.0832L8.80208 4.99995H39.2005ZM40.8 0.333252H7.2C3.2304 0.333252 0 3.47389 0 7.33318V30.6663C0 34.5256 3.2304 37.6662 7.2 37.6662H40.8C44.7696 37.6662 48 34.5256 48 30.6663V7.33318C48 3.47389 44.7696 0.333252 40.8 0.333252V0.333252Z" fill="#1990FE"/>
</svg>
