<svg width="24" height="24" viewBox="0 0 24 24" fill="none" xmlns="http://www.w3.org/2000/svg">
<circle cx="12" cy="12" r="12" fill="#FDD900"/>
<path d="M10.2401 14.3834V13.8315C10.2401 13.3543 10.342 12.9391 10.5458 12.5862C10.7496 12.2332 11.1225 11.8578 11.6644 11.4601C12.1864 11.0872 12.5295 10.784 12.6935 10.5503C12.8626 10.3166 12.9471 10.0556 12.9471 9.76727C12.9471 9.44411 12.8278 9.19802 12.5891 9.02899C12.3505 8.85995 12.0174 8.77543 11.5898 8.77543C10.8441 8.77543 9.99396 9.01904 9.03942 9.50626L8.22656 7.87309C9.33523 7.25164 10.511 6.94092 11.7539 6.94092C12.7781 6.94092 13.5909 7.18701 14.1925 7.6792C14.799 8.17139 15.1023 8.82764 15.1023 9.64795C15.1023 10.1948 14.978 10.6671 14.7294 11.0649C14.4808 11.4626 14.0085 11.91 13.3125 12.4072C12.8352 12.7602 12.532 13.0286 12.4027 13.2126C12.2784 13.3965 12.2163 13.6376 12.2163 13.9359V14.3834H10.2401ZM10.0014 16.9338C10.0014 16.5162 10.1133 16.2005 10.337 15.9867C10.5607 15.7729 10.8864 15.6661 11.3139 15.6661C11.7266 15.6661 12.0447 15.7754 12.2685 15.9942C12.4972 16.2129 12.6115 16.5261 12.6115 16.9338C12.6115 17.3266 12.4972 17.6373 12.2685 17.866C12.0398 18.0897 11.7216 18.2016 11.3139 18.2016C10.8963 18.2016 10.5732 18.0922 10.3445 17.8734C10.1158 17.6497 10.0014 17.3365 10.0014 16.9338Z" fill="black"/>
</svg>
