<svg width="18" height="18" viewBox="0 0 18 18" fill="none" xmlns="http://www.w3.org/2000/svg">
<path fill-rule="evenodd" clip-rule="evenodd" d="M10.6496 9.00015L15.6579 3.99175C16.114 3.53559 16.114 2.79828 15.6579 2.34212C15.2017 1.88596 14.4644 1.88596 14.0083 2.34212L9 7.35051L3.99171 2.34212C3.53556 1.88596 2.79826 1.88596 2.34211 2.34212C1.88596 2.79828 1.88596 3.53559 2.34211 3.99175L7.3504 9.00015L2.34211 14.0085C1.88596 14.4647 1.88596 15.202 2.34211 15.6582C2.5696 15.8857 2.86826 16 3.16691 16C3.46556 16 3.76422 15.8857 3.99171 15.6582L9 10.6498L14.0083 15.6582C14.2358 15.8857 14.5344 16 14.8331 16C15.1317 16 15.4304 15.8857 15.6579 15.6582C16.114 15.202 16.114 14.4647 15.6579 14.0085L10.6496 9.00015Z" fill="black"/>
</svg>
