<svg width="18" height="18" viewBox="0 0 18 18" fill="none" xmlns="http://www.w3.org/2000/svg">
<path d="M4.21335 17.7188V15.1056H2.25V12.7366H4.21335V10.8317H2.25V7.80331H4.21335V0.28125H9.8089C12.0668 0.28125 13.7111 0.737132 14.7418 1.6489C15.7889 2.56066 16.3125 3.81434 16.3125 5.40993C16.3125 6.35425 16.0998 7.2416 15.6744 8.07195C15.249 8.90231 14.5373 9.56985 13.5393 10.0746C12.5576 10.5793 11.216 10.8317 9.5144 10.8317H7.91918V12.7366H11.6986V15.1056H7.91918V17.7188H4.21335ZM7.91918 7.80331H9.14627C10.1934 7.80331 11.0196 7.62421 11.625 7.26602C12.2467 6.90783 12.5576 6.32983 12.5576 5.53204C12.5576 4.05042 11.5759 3.30961 9.61257 3.30961H7.91918V7.80331Z" fill="black"/>
</svg>
