<svg width="18" height="18" viewBox="0 0 18 18" fill="none" xmlns="http://www.w3.org/2000/svg">
<path fill-rule="evenodd" clip-rule="evenodd" d="M15.2998 14.2499H2.6998C2.2039 14.2499 1.7998 13.8579 1.7998 13.3749V4.84377L8.45981 9.69997C8.62 9.81722 8.80991 9.87497 8.99981 9.87497C9.1897 9.87497 9.37961 9.81722 9.53981 9.69997L16.1998 4.84377V13.3749C16.1998 13.8579 15.7957 14.2499 15.2998 14.2499ZM14.7002 3.75003L9.00048 7.90624L3.30078 3.75003H14.7002ZM15.3 2H2.7C1.2114 2 0 3.17774 0 4.62497V13.3749C0 14.8221 1.2114 15.9999 2.7 15.9999H15.3C16.7886 15.9999 18 14.8221 18 13.3749V4.62497C18 3.17774 16.7886 2 15.3 2Z" fill="black"/>
</svg>
