<svg width="20" height="20" viewBox="0 0 20 20" fill="none" xmlns="http://www.w3.org/2000/svg">
<circle cx="10" cy="10" r="10" fill="#F78C07"/>
<path fill-rule="evenodd" clip-rule="evenodd" d="M14.2003 14.1668C14.2003 14.5041 13.9315 14.7779 13.6003 14.7779C13.2691 14.7779 13.0003 14.5041 13.0003 14.1668C13.0003 13.8294 13.2691 13.5557 13.6003 13.5557C13.9315 13.5557 14.2003 13.8294 14.2003 14.1668ZM10.0004 12.3328H5.20043L5.21003 6.22168H11.8004L11.7908 12.3328H10.0004ZM6.99968 14.1668C6.99968 14.5041 6.73088 14.7779 6.39968 14.7779C6.06848 14.7779 5.79968 14.5041 5.79968 14.1668C5.79968 13.8294 6.06848 13.5557 6.39968 13.5557C6.73088 13.5557 6.99968 13.8294 6.99968 14.1668ZM14.8003 10.7937V12.3337H13.0003V9.32764L14.8003 10.7937ZM15.775 10.0227L13 7.76161V6.22222C13 5.54817 12.5122 5 11.9122 5H5.0872C4.4878 5 4 5.54817 4 6.22222V12.3333C4 12.8668 4.3078 13.3166 4.7326 13.4834C4.6486 13.6949 4.6 13.9247 4.6 14.1667C4.6 15.1774 5.4076 16 6.4 16C7.3924 16 8.2 15.1774 8.2 14.1667C8.2 13.9509 8.1568 13.7474 8.089 13.5556H10H11.911C11.8432 13.7474 11.8 13.9509 11.8 14.1667C11.8 15.1774 12.6076 16 13.6 16C14.5924 16 15.4 15.1774 15.4 14.1667C15.4 13.9509 15.3568 13.7474 15.289 13.5556H15.4C15.7318 13.5556 16 13.2824 16 12.9444V10.5C16 10.3142 15.9172 10.1388 15.775 10.0227Z" fill="white"/>
</svg>
