<svg width="18" height="18" viewBox="0 0 18 18" fill="none" xmlns="http://www.w3.org/2000/svg">
<g clip-path="url(#clip0)">
<path fill-rule="evenodd" clip-rule="evenodd" d="M6.63175 2.89471C7.67668 2.89471 8.52645 3.74449 8.52645 4.78942C8.52645 5.83435 7.67668 6.68413 6.63175 6.68413C5.58681 6.68413 4.73704 5.83435 4.73704 4.78942C4.73704 3.74449 5.58681 2.89471 6.63175 2.89471ZM6.63148 8.57883C8.72134 8.57883 10.4209 6.87928 10.4209 4.78942C10.4209 2.69955 8.72134 1 6.63148 1C4.54162 1 2.84206 2.69955 2.84206 4.78942C2.84206 6.87928 4.54162 8.57883 6.63148 8.57883ZM17.6739 2.17994C17.2789 1.837 16.6811 1.87774 16.3372 2.27278L14.5694 4.30486L13.9688 3.63319C13.6211 3.24288 13.0224 3.20972 12.6311 3.55929C12.2418 3.90792 12.2077 4.50759 12.5572 4.89696L13.8731 6.3682C14.0531 6.56904 14.3098 6.68367 14.5789 6.68367H14.5855C14.8574 6.68177 15.116 6.56335 15.2941 6.35872L17.7677 3.51666C18.1106 3.12161 18.0689 2.52289 17.6739 2.17994ZM0 17.105C0 13.4482 2.97564 10.4735 6.63148 10.4735C10.2873 10.4735 13.263 13.4482 13.263 17.105C13.263 17.628 12.8395 18.0524 12.3156 18.0524C11.7917 18.0524 11.3683 17.628 11.3683 17.105C11.3683 14.4932 9.24334 12.3683 6.63148 12.3683C4.01962 12.3683 1.89471 14.4932 1.89471 17.105C1.89471 17.628 1.47124 18.0524 0.947354 18.0524C0.423467 18.0524 0 17.628 0 17.105Z" fill="black"/>
</g>
<defs>
<clipPath id="clip0">
<rect width="18" height="18" fill="white"/>
</clipPath>
</defs>
</svg>
