<svg width="14" height="14" viewBox="0 0 14 14" fill="none" xmlns="http://www.w3.org/2000/svg">
<path fill-rule="evenodd" clip-rule="evenodd" d="M5.99349 1.32775C6.29723 1.02401 6.29723 0.531547 5.99349 0.227806C5.68975 -0.0759353 5.19729 -0.0759353 4.89355 0.227806L0.501865 4.61949C0.0462534 5.0751 0.0462533 5.81379 0.501865 6.2694L4.89355 10.6611C5.19729 10.9648 5.68975 10.9648 5.99349 10.6611C6.29723 10.3573 6.29723 9.86488 5.99349 9.56114L2.65457 6.22222H11.6657V13.2222C11.6657 13.6518 12.014 14 12.4435 14C12.8731 14 13.2213 13.6518 13.2213 13.2222V6.22222C13.2213 5.36311 12.5248 4.66667 11.6657 4.66667H2.65457L5.99349 1.32775Z" fill="#9F9F9F"/>
</svg>
