<svg width="20" height="20" viewBox="0 0 20 20" fill="none" xmlns="http://www.w3.org/2000/svg">
<circle cx="10" cy="10" r="10" fill="#818181"/>
<g clip-path="url(#clip0)">
<path fill-rule="evenodd" clip-rule="evenodd" d="M9.13867 5.13807C9.39902 4.87772 9.39902 4.45561 9.13867 4.19526C8.87832 3.93491 8.45621 3.93491 8.19586 4.19526L4.43157 7.95956C4.04104 8.35008 4.04104 8.98325 4.43157 9.37377L8.19586 13.1381C8.45621 13.3984 8.87832 13.3984 9.13867 13.1381C9.39902 12.8777 9.39902 12.4556 9.13867 12.1953L6.27674 9.33333H14.0006V15.3333C14.0006 15.7015 14.2991 16 14.6673 16C15.0355 16 15.3339 15.7015 15.3339 15.3333V9.33333C15.3339 8.59695 14.737 8 14.0006 8H6.27674L9.13867 5.13807Z" fill="white"/>
</g>
<defs>
<clipPath id="clip0">
<rect width="12" height="12" fill="white" transform="translate(4 4)"/>
</clipPath>
</defs>
</svg>
