<svg width="65" height="65" viewBox="0 0 65 65" fill="none" xmlns="http://www.w3.org/2000/svg">
<circle cx="32.5" cy="32.5" r="32.5" fill="#FDD900"/>
<path fill-rule="evenodd" clip-rule="evenodd" d="M11.0957 18.0069C10.9849 18.1316 10.8862 18.2631 10.7998 18.4001C10.3141 18.765 10 19.3458 10 20C10 20.6543 10.3141 21.2352 10.7998 21.6C10.8863 21.737 10.9849 21.8685 11.0957 21.9931L18.5051 30.3287C19.239 31.1543 20.5031 31.2287 21.3287 30.4948C22.1542 29.761 22.2286 28.4969 21.4948 27.6713L16.4536 22H54C55.1046 22 56 21.1046 56 20C56 18.8955 55.1046 18 54 18H16.4536L21.4948 12.3287C22.2286 11.5032 22.1542 10.239 21.3287 9.5052C20.5031 8.77137 19.239 8.84573 18.5051 9.67129L11.0957 18.0069ZM55.2002 42.4C55.1137 42.2631 55.0151 42.1316 54.9043 42.007L47.4949 33.6713C46.761 32.8458 45.4969 32.7714 44.6713 33.5052C43.8458 34.2391 43.7714 35.5032 44.5052 36.3288L49.5464 42L12 42C10.8954 42 10 42.8955 10 44C10 45.1046 10.8954 46 12 46L49.5464 46L44.5052 51.6713C43.7714 52.4969 43.8458 53.761 44.6713 54.4949C45.4969 55.2287 46.761 55.1544 47.4949 54.3288L54.9043 45.9932C55.0151 45.8685 55.1138 45.737 55.2002 45.6C55.6859 45.2351 56 44.6543 56 44C56 43.3458 55.6859 42.7649 55.2002 42.4Z" fill="black"/>
</svg>
