<svg width="110" height="110" viewBox="0 0 110 110" fill="none" xmlns="http://www.w3.org/2000/svg">
<path fill-rule="evenodd" clip-rule="evenodd" d="M49.4224 24.2236C47.6342 22.5132 45.2546 21.6648 42.9912 22.0076C41.5322 22.2286 40.1568 22.9501 39.1456 24.2069C38.1417 25.4548 37.5991 27.0997 37.539 29.0183L37.0018 47.9648H29.4062L30.1151 55.5444L40.1752 71.0919L40.6188 94.0557C40.6494 95.1598 41.5694 96.03 42.6735 95.9993C43.7777 95.9687 44.6479 95.0487 44.6172 93.9446L44.1425 69.8601L34.0064 54.1951L33.7978 51.9648H40.8901L41.537 29.1435L41.5371 29.1409C41.5764 27.8994 41.9132 27.1481 42.2622 26.7143C42.6043 26.2891 43.0557 26.0435 43.5902 25.9625C44.712 25.7926 46.3142 26.3741 47.3773 27.9764L48.5323 29.7172L50.2211 28.4874C52.6156 26.7439 54.1319 26.4652 55.0085 26.6842C55.7881 26.8789 56.823 27.6792 57.7085 30.2711L58.4786 32.5255L60.5656 31.3766C62.1564 30.5009 63.2394 30.5572 63.9366 30.8642C64.6785 31.1908 65.4734 32.0157 66.0156 33.628L66.7481 35.8061L68.8043 34.7801C70.6172 33.8754 71.8389 33.9517 72.4571 34.2656C72.9598 34.5208 73.6661 35.2549 73.6661 37.3557V58.1607L72.5713 60.93L70.4532 68.8356V94.0001C70.4532 95.1047 71.3486 96.0001 72.4532 96.0001C73.5577 96.0001 74.4532 95.1047 74.4532 94.0001V69.3622L76.3756 62.187L77.6661 58.9226V37.3557C77.6661 34.3751 76.5934 31.8795 74.2679 30.6989C72.6434 29.8742 70.7783 29.8904 68.9572 30.4293C68.152 29.0078 67.0259 27.8538 65.5484 27.2033C64.0205 26.5306 62.3547 26.4995 60.6739 27.0045C59.6144 24.9015 58.1059 23.3349 55.9778 22.8034C53.8362 22.2685 51.6031 22.9302 49.4224 24.2236Z" fill="white"/>
<path fill-rule="evenodd" clip-rule="evenodd" d="M85.6275 40.9233H75.6699V36.9233H85.6275V40.9233Z" fill="white"/>
<path fill-rule="evenodd" clip-rule="evenodd" d="M85.6275 51.9644H75.6699V47.9644H85.6275V51.9644Z" fill="white"/>
<path fill-rule="evenodd" clip-rule="evenodd" d="M86.6406 19V70.5972H94.9408V19H86.6406ZM82.6406 18.476C82.6406 16.3237 84.5349 15 86.3179 15H95.2636C97.0466 15 98.9408 16.3237 98.9408 18.476V71.1212C98.9408 73.2735 97.0466 74.5972 95.2636 74.5972H86.3179C84.5349 74.5972 82.6406 73.2735 82.6406 71.1212V18.476Z" fill="white"/>
<path fill-rule="evenodd" clip-rule="evenodd" d="M98.9414 24.166V65.4312H105.274V24.166H98.9414ZM94.9414 23.3677C94.9414 21.3128 96.7779 20.166 98.3503 20.166H105.865C107.437 20.166 109.274 21.3128 109.274 23.3677V66.2295C109.274 68.2844 107.437 69.4312 105.865 69.4312H98.3503C96.7779 69.4312 94.9414 68.2844 94.9414 66.2295V23.3677Z" fill="white"/>
<path fill-rule="evenodd" clip-rule="evenodd" d="M25.6348 36.9233H39.2455V40.9233H25.6348V36.9233Z" fill="white"/>
<path fill-rule="evenodd" clip-rule="evenodd" d="M24.6465 47.9644H32.8642V51.9644H24.6465V47.9644Z" fill="white"/>
<path fill-rule="evenodd" clip-rule="evenodd" d="M15.334 19V70.5972H23.6342V19H15.334ZM11.334 18.476C11.334 16.3237 13.2282 15 15.0112 15H23.9569C25.74 15 27.6342 16.3237 27.6342 18.476V71.1212C27.6342 73.2735 25.74 74.5972 23.9569 74.5972H15.0112C13.2282 74.5972 11.334 73.2735 11.334 71.1212V18.476Z" fill="white"/>
<path fill-rule="evenodd" clip-rule="evenodd" d="M5 24.166V65.4312H11.3322V24.166H5ZM1 23.3677C1 21.3128 2.8365 20.166 4.4089 20.166H11.9233C13.4957 20.166 15.3322 21.3128 15.3322 23.3677V66.2295C15.3322 68.2844 13.4957 69.4312 11.9233 69.4312H4.4089C2.83651 69.4312 1 68.2844 1 66.2295V23.3677Z" fill="white"/>
<path fill-rule="evenodd" clip-rule="evenodd" d="M35.5033 34.157C35.0478 34.5915 34.4869 35.7771 34.779 38.7274L30.7985 39.1215C30.4762 35.8669 30.8914 33.0284 32.7422 31.2628C34.6448 29.4478 37.3455 29.4269 39.8987 30.0186L38.9957 33.9153C36.8427 33.4164 35.907 33.7718 35.5033 34.157Z" fill="white"/>
</svg>
