<svg width="65" height="65" viewBox="0 0 65 65" fill="none" xmlns="http://www.w3.org/2000/svg">
<circle cx="32.5" cy="32.5" r="32.5" fill="#FDD900"/>
<path fill-rule="evenodd" clip-rule="evenodd" d="M45.6 9.79977C45.2351 9.31412 44.6542 9 44 9C43.3458 9 42.7649 9.31414 42.4 9.79981C42.2631 9.88629 42.1315 9.9849 42.0069 10.0957L33.6713 17.5051C32.8457 18.239 32.7714 19.5031 33.5052 20.3287C34.239 21.1542 35.5032 21.2286 36.3287 20.4948L42 15.4536V27.0561H29.0625C27.4056 27.0561 26.0625 28.3992 26.0625 30.0561V38.8318H15C13.3431 38.8318 12 40.1749 12 41.8318V53C12 54.1046 12.8954 55 14 55C15.1046 55 16 54.1046 16 53V42.8318H27.0625C28.7194 42.8318 30.0625 41.4886 30.0625 39.8318V31.0561H43C44.6569 31.0561 46 29.7129 46 28.0561V15.4536L51.6713 20.4948C52.4969 21.2286 53.761 21.1542 54.4948 20.3287C55.2287 19.5031 55.1543 18.239 54.3288 17.5051L45.9931 10.0957C45.8685 9.98488 45.7369 9.88625 45.6 9.79977Z" fill="black"/>
</svg>
