<svg width="24" height="24" viewBox="0 0 24 24" fill="none" xmlns="http://www.w3.org/2000/svg">
<path fill-rule="evenodd" clip-rule="evenodd" d="M0 18V12.7114C0 12.5429 0.0425793 12.3771 0.123784 12.2295L2.71506 7.51808C2.89081 7.19853 3.22658 7 3.59127 7H14.5194C14.8232 7 15.1105 7.13809 15.3002 7.3753L19 12H23C23.5523 12 24 12.4477 24 13V18C24 18.5523 23.5523 19 23 19H22C22 16.7909 20.2091 15 18 15C15.7909 15 14 16.7909 14 19H10C10 16.7909 8.20914 15 6 15C3.79086 15 2 16.7909 2 19H1C0.447716 19 0 18.5523 0 18ZM10 11.8V8.2C10 8.08954 10.0895 8 10.2 8H13.9C13.963 8 14.0222 8.02964 14.06 8.08L16.76 11.68C16.8589 11.8118 16.7648 12 16.6 12H10.2C10.0895 12 10 11.9105 10 11.8ZM3.94472 8.11056L2.14472 11.7106C2.07823 11.8435 2.17493 12 2.32361 12H8.8C8.91046 12 9 11.9105 9 11.8V8.2C9 8.08954 8.91046 8 8.8 8H4.12361C4.04785 8 3.9786 8.0428 3.94472 8.11056ZM6 22C7.65685 22 9 20.6569 9 19C9 17.3431 7.65685 16 6 16C4.34315 16 3 17.3431 3 19C3 20.6569 4.34315 22 6 22ZM6 20C6.55228 20 7 19.5523 7 19C7 18.4477 6.55228 18 6 18C5.44772 18 5 18.4477 5 19C5 19.5523 5.44772 20 6 20ZM18 22C19.6569 22 21 20.6569 21 19C21 17.3431 19.6569 16 18 16C16.3431 16 15 17.3431 15 19C15 20.6569 16.3431 22 18 22ZM18 20C18.5523 20 19 19.5523 19 19C19 18.4477 18.5523 18 18 18C17.4477 18 17 18.4477 17 19C17 19.5523 17.4477 20 18 20Z" fill="#818181"/>
</svg>
