<svg width="65" height="65" viewBox="0 0 65 65" fill="none" xmlns="http://www.w3.org/2000/svg">
<circle cx="32.5" cy="32.5" r="32.5" fill="#FDD900"/>
<path fill-rule="evenodd" clip-rule="evenodd" d="M53.4142 11.5858C54.1953 12.3668 54.1953 13.6332 53.4142 14.4142L15.4142 52.4142C14.6332 53.1953 13.3668 53.1953 12.5858 52.4142C11.8047 51.6332 11.8047 50.3668 12.5858 49.5858L50.5858 11.5858C51.3668 10.8047 52.6332 10.8047 53.4142 11.5858ZM21.5 25C23.9853 25 26 22.9853 26 20.5C26 18.0147 23.9853 16 21.5 16C19.0147 16 17 18.0147 17 20.5C17 22.9853 19.0147 25 21.5 25ZM21.5 29C26.1944 29 30 25.1944 30 20.5C30 15.8056 26.1944 12 21.5 12C16.8056 12 13 15.8056 13 20.5C13 25.1944 16.8056 29 21.5 29ZM49 43.5C49 45.9853 46.9853 48 44.5 48C42.0147 48 40 45.9853 40 43.5C40 41.0147 42.0147 39 44.5 39C46.9853 39 49 41.0147 49 43.5ZM53 43.5C53 48.1944 49.1944 52 44.5 52C39.8056 52 36 48.1944 36 43.5C36 38.8056 39.8056 35 44.5 35C49.1944 35 53 38.8056 53 43.5Z" fill="black"/>
</svg>
