<svg width="18" height="18" viewBox="0 0 18 18" fill="none" xmlns="http://www.w3.org/2000/svg">
<path fill-rule="evenodd" clip-rule="evenodd" d="M1.38475 4.74404L4.31111 1.23241L2.92831 0.0800781L0.00195312 3.59171L1.38475 4.74404ZM6.57807 0.100098H17.8996V17.9001H1.09961V6.67425L6.57807 0.100098ZM7.42115 1.9001L2.89961 7.32594V16.1001H16.0996V1.9001H7.42115ZM8.60579 4.77642C8.97431 4.03937 10.0261 4.03937 10.3946 4.77642L12.7524 9.49196C12.8483 9.68374 12.9044 9.90622 12.8984 10.1414C12.8389 12.5024 11.2601 13.9 9.50022 13.9C7.74034 13.9 6.16156 12.5024 6.10199 10.1414C6.09606 9.90622 6.15213 9.68374 6.24802 9.49196L8.60579 4.77642ZM9.50022 7.01249L7.90558 10.2018C7.98081 11.6018 8.82673 12.1 9.50022 12.1C10.1737 12.1 11.0196 11.6018 11.0949 10.2018L9.50022 7.01249Z" fill="#00A454"/>
</svg>
