<svg width="65" height="65" viewBox="0 0 65 65" fill="none" xmlns="http://www.w3.org/2000/svg">
<circle cx="32.5" cy="32.5" r="32.5" fill="#FDD900"/>
<path fill-rule="evenodd" clip-rule="evenodd" d="M27.75 30.5V13H38.25C43.0825 13 47 16.9175 47 21.75C47 26.5825 43.0825 30.5 38.25 30.5H27.75ZM38.25 34.5H27.75V40H39C40.1046 40 41 40.8954 41 42C41 43.1046 40.1046 44 39 44H27.75V54C27.75 55.1046 26.8546 56 25.75 56C24.6454 56 23.75 55.1046 23.75 54V44H18C16.8954 44 16 43.1046 16 42C16 40.8954 16.8954 40 18 40H23.75V34.5H18C16.8954 34.5 16 33.6046 16 32.5C16 31.3954 16.8954 30.5 18 30.5H23.75V12C23.75 10.3431 25.0931 9 26.75 9H38.25C45.2916 9 51 14.7084 51 21.75C51 28.7916 45.2916 34.5 38.25 34.5Z" fill="black"/>
</svg>
