<svg width="110" height="110" viewBox="0 0 110 110" fill="none" xmlns="http://www.w3.org/2000/svg">
<path d="M40 38C40 41.3137 37.3137 44 34 44C30.6863 44 28 41.3137 28 38C28 34.6863 30.6863 32 34 32C37.3137 32 40 34.6863 40 38Z" fill="white"/>
<path d="M82 38C82 41.3137 79.3137 44 76 44C72.6863 44 70 41.3137 70 38C70 34.6863 72.6863 32 76 32C79.3137 32 82 34.6863 82 38Z" fill="white"/>
<path fill-rule="evenodd" clip-rule="evenodd" d="M27.8086 56.8257C29.1893 56.8257 30.3086 57.945 30.3086 59.3257C30.3086 68.1608 33.4567 74.5855 38.0076 78.8146C42.5961 83.0786 48.7654 85.2527 54.9996 85.2527C61.2338 85.2527 67.4031 83.0786 71.9916 78.8146C76.5425 74.5855 79.6906 68.1608 79.6906 59.3257C79.6906 57.945 80.8099 56.8257 82.1906 56.8257C83.5713 56.8257 84.6906 57.945 84.6906 59.3257C84.6906 69.4419 81.041 77.2307 75.3953 82.4772C69.7871 87.6889 62.3609 90.2527 54.9996 90.2527C47.6383 90.2527 40.2121 87.6889 34.6039 82.4772C28.9582 77.2307 25.3086 69.4419 25.3086 59.3257C25.3086 57.945 26.4279 56.8257 27.8086 56.8257Z" fill="white"/>
<path fill-rule="evenodd" clip-rule="evenodd" d="M55 105C82.6142 105 105 82.6142 105 55C105 27.3858 82.6142 5 55 5C27.3858 5 5 27.3858 5 55C5 82.6142 27.3858 105 55 105ZM55 110C85.3757 110 110 85.3757 110 55C110 24.6243 85.3757 0 55 0C24.6243 0 0 24.6243 0 55C0 85.3757 24.6243 110 55 110Z" fill="white"/>
</svg>
