<svg width="18" height="18" viewBox="0 0 18 18" fill="none" xmlns="http://www.w3.org/2000/svg">
<g clip-path="url(#clip0)">
<path fill-rule="evenodd" clip-rule="evenodd" d="M4.23185 0.435547H7.85002V1.28555C7.85002 1.66427 7.89943 1.87571 7.94462 1.98646C7.98182 2.07763 8.01318 2.09676 8.02929 2.10657C8.06361 2.12751 8.14319 2.16092 8.32046 2.18139C8.50179 2.20233 8.71296 2.2034 9.00044 2.2034C9.28793 2.2034 9.49903 2.20233 9.68026 2.1814C9.85742 2.16093 9.93657 2.12769 9.97074 2.10684C9.9867 2.0971 10.0183 2.07782 10.0555 1.98667C10.1007 1.87586 10.15 1.66435 10.15 1.28555V0.435547H13.7691L18.0645 4.87795L15.7543 8.72828L14.2586 7.65553V17.3499H3.74228V7.65514L2.2457 8.72814L-0.0644531 4.87788L4.23185 0.435547ZM4.95271 2.13555L2.0645 5.12193L2.75435 6.27167L3.78047 5.53598C4.47524 5.03785 5.44228 5.53443 5.44228 6.38932V15.6499H12.5586V6.38941C12.5586 5.53443 13.5258 5.03787 14.2206 5.53619L15.2458 6.27152L15.9356 5.12186L13.0481 2.13555H11.7742C11.6521 2.74756 11.3717 3.24349 10.8563 3.558C10.5283 3.75813 10.1764 3.83539 9.87534 3.87017C9.58702 3.90347 9.28236 3.90344 9.02371 3.90341H8.97719C8.71853 3.90344 8.41383 3.90347 8.12544 3.87017C7.82432 3.8354 7.47242 3.75816 7.1444 3.55812C6.62877 3.24366 6.34812 2.74771 6.22589 2.13555H4.95271Z" fill="#9F9F9F"/>
</g>
<defs>
<clipPath id="clip0">
<rect width="18" height="18" fill="white"/>
</clipPath>
</defs>
</svg>
