<svg width="18" height="18" viewBox="0 0 18 18" fill="none" xmlns="http://www.w3.org/2000/svg">
<path fill-rule="evenodd" clip-rule="evenodd" d="M15.3 14.4998C15.3 14.9966 14.8968 15.3998 14.4 15.3998C13.9032 15.3998 13.5 14.9966 13.5 14.4998C13.5 14.003 13.9032 13.5998 14.4 13.5998C14.8968 13.5998 15.3 14.003 15.3 14.4998ZM9.00037 11.7999H1.80037L1.81477 2.79991H11.7004L11.686 11.7999H9.00037ZM4.49963 14.4998C4.49963 14.9966 4.09643 15.3998 3.59963 15.3998C3.10283 15.3998 2.69963 14.9966 2.69963 14.4998C2.69963 14.003 3.10283 13.5998 3.59963 13.5998C4.09643 13.5998 4.49963 14.003 4.49963 14.4998ZM16.2 9.53209V11.8001H13.5V7.373L16.2 9.53209ZM17.6625 8.3971L13.5 5.0671V2.8C13.5 1.8073 12.7683 1 11.8683 1H1.6308C0.7317 1 0 1.8073 0 2.8V11.8C0 12.5857 0.4617 13.2481 1.0989 13.4938C0.9729 13.8052 0.9 14.1436 0.9 14.5C0.9 15.9886 2.1114 17.2 3.6 17.2C5.0886 17.2 6.3 15.9886 6.3 14.5C6.3 14.1823 6.2352 13.8826 6.1335 13.6H9H11.8665C11.7648 13.8826 11.7 14.1823 11.7 14.5C11.7 15.9886 12.9114 17.2 14.4 17.2C15.8886 17.2 17.1 15.9886 17.1 14.5C17.1 14.1823 17.0352 13.8826 16.9335 13.6H17.1C17.5977 13.6 18 13.1977 18 12.7V9.1C18 8.8264 17.8758 8.5681 17.6625 8.3971Z" fill="#9F9F9F"/>
</svg>
