<svg width="24" height="24" viewBox="0 0 24 24" fill="none" xmlns="http://www.w3.org/2000/svg">
<path fill-rule="evenodd" clip-rule="evenodd" d="M1 2C0.447715 2 0 2.44772 0 3V18C0 18.5523 0.447715 19 1 19H2C2 16.7909 3.79086 15 6 15C8.20914 15 10 16.7909 10 19H14C14 16.7909 15.7909 15 18 15C20.2091 15 22 16.7909 22 19H23C23.5523 19 24 18.5523 24 18V13L21.5528 8.10557C21.214 7.428 20.5215 7 19.7639 7H16V3C16 2.44772 15.5523 2 15 2H1ZM19.4363 8H17.5C17.2239 8 17 8.22386 17 8.5V11.5C17 11.7761 17.2239 12 17.5 12H21.1408C21.5242 12 21.765 11.5863 21.5756 11.253L19.871 8.253C19.7822 8.09661 19.6162 8 19.4363 8ZM6 22C7.65685 22 9 20.6569 9 19C9 17.3431 7.65685 16 6 16C4.34315 16 3 17.3431 3 19C3 20.6569 4.34315 22 6 22ZM6 20C6.55228 20 7 19.5523 7 19C7 18.4477 6.55228 18 6 18C5.44772 18 5 18.4477 5 19C5 19.5523 5.44772 20 6 20ZM18 22C19.6569 22 21 20.6569 21 19C21 17.3431 19.6569 16 18 16C16.3431 16 15 17.3431 15 19C15 20.6569 16.3431 22 18 22ZM18 20C18.5523 20 19 19.5523 19 19C19 18.4477 18.5523 18 18 18C17.4477 18 17 18.4477 17 19C17 19.5523 17.4477 20 18 20Z" fill="#818181"/>
</svg>
