<svg width="65" height="65" viewBox="0 0 65 65" fill="none" xmlns="http://www.w3.org/2000/svg">
<circle cx="32.5" cy="32.5" r="32.5" fill="#FDD900"/>
<path fill-rule="evenodd" clip-rule="evenodd" d="M26 23C28.7614 23 31 20.7614 31 18C31 15.2386 28.7614 13 26 13C23.2386 13 21 15.2386 21 18C21 20.7614 23.2386 23 26 23ZM26 27C30.9706 27 35 22.9706 35 18C35 13.0294 30.9706 9 26 9C21.0294 9 17 13.0294 17 18C17 22.9706 21.0294 27 26 27ZM23 33C18.5817 33 15 36.5817 15 41V53C15 54.1046 14.1046 55 13 55C11.8954 55 11 54.1046 11 53V41C11 34.3726 16.3726 29 23 29H31C37.6274 29 43 34.3726 43 41V41.5C43 42.6046 42.1046 43.5 41 43.5C39.8954 43.5 39 42.6046 39 41.5V41C39 36.5817 35.4183 33 31 33H23ZM55.4483 41.3793C56.2101 40.5795 56.1792 39.3135 55.3793 38.5517C54.5795 37.79 53.3135 37.8208 52.5517 38.6207L40.6667 51.1L35.4483 45.6207C34.6865 44.8208 33.4206 44.79 32.6207 45.5517C31.8208 46.3135 31.79 47.5795 32.5517 48.3793L38.4943 54.619C39.6765 55.8603 41.6568 55.8604 42.8391 54.619L55.4483 41.3793Z" fill="black"/>
</svg>
