<svg width="16" height="16" viewBox="0 0 16 16" fill="none" xmlns="http://www.w3.org/2000/svg">
<g clip-path="url(#clip0)">
<path fill-rule="evenodd" clip-rule="evenodd" d="M0.888889 7.11106C0.397969 7.11106 -2.93441e-07 7.50903 -2.71982e-07 7.99995C-2.50523e-07 8.49087 0.397969 8.88883 0.888889 8.88883L12.9651 8.88883L9.14924 12.7047C8.80211 13.0519 8.80211 13.6147 9.14924 13.9618C9.49637 14.309 10.0592 14.309 10.4063 13.9618L15.7397 8.62848C16.0868 8.28135 16.0868 7.71854 15.7397 7.37141L10.4063 2.03807C10.0592 1.69094 9.49637 1.69094 9.14924 2.03807C8.80211 2.38521 8.80211 2.94802 9.14924 3.29515L12.9651 7.11106L0.888889 7.11106Z" fill="black"/>
</g>
<defs>
<clipPath id="clip0">
<rect width="16" height="16" fill="white" transform="translate(0 16) rotate(-90)"/>
</clipPath>
</defs>
</svg>
