<svg width="72" height="72" viewBox="0 0 72 72" fill="none" xmlns="http://www.w3.org/2000/svg">
<g clip-path="url(#clip0)">
<path fill-rule="evenodd" clip-rule="evenodd" d="M2.00049 2H40.7505V40.75H2.00049V2ZM0.000488281 42.75V0H42.7505V42.75H0.000488281ZM8.14833 57.2536C10.0943 57.1952 12.5486 57.844 14.5931 58.5556C15.5991 58.9057 16.476 59.2602 17.1011 59.527C17.4132 59.6603 17.6616 59.7713 17.8308 59.8484C17.9153 59.8869 17.98 59.917 18.0229 59.9371L18.0706 59.9596L18.0817 59.9649L18.0844 59.9661L18.1103 59.9785L18.1378 59.9899L18.1438 59.9923L18.1604 59.9991L18.2224 60.0241C18.2762 60.0457 18.3547 60.077 18.4557 60.1165C18.6576 60.1955 18.9496 60.3077 19.3141 60.442C20.0425 60.7104 21.0634 61.0681 22.2352 61.4261C24.5525 62.1341 27.5595 62.875 30.071 62.875C32.5825 62.875 35.5896 62.1341 37.9068 61.4261C38.9738 61.1001 39.9156 60.7744 40.6255 60.5161V62.5347L48.376 63.8264C48.4169 67.1049 51.0873 69.75 54.3755 69.75H62.0005V72H64.0005V69.75H64.1255V66.25H72.0005V64.25H64.1255V53.875H72.0005V51.875H64.1255V48.375H64.0005V46.125H62.0005V48.375H54.3755C51.0873 48.375 48.4168 51.0202 48.376 54.2987L40.6255 55.5904V58.3822C40.4836 58.4362 40.3198 58.4978 40.1365 58.5653C39.4346 58.8239 38.4502 59.1688 37.3224 59.5134C35.0403 60.2106 32.2703 60.875 30.071 60.875C27.8717 60.875 25.1017 60.2106 22.8196 59.5134C21.6918 59.1688 20.7074 58.8239 20.0055 58.5653C19.6549 58.4361 19.3754 58.3287 19.1847 58.2541C19.0894 58.2168 19.0163 58.1876 18.9675 58.1681L18.9201 58.1489L18.8714 58.126C18.8226 58.1031 18.7516 58.0701 18.6604 58.0286C18.4781 57.9455 18.2149 57.8279 17.8863 57.6876C17.23 57.4074 16.3094 57.0352 15.2505 56.6667C13.165 55.9409 10.42 55.1845 8.08829 55.2545C5.9886 55.3176 3.54877 56.0712 1.69989 56.7667C0.761239 57.1198 -0.0528187 57.4688 -0.632713 57.7297C-0.922979 57.8603 -1.1554 57.9692 -1.31636 58.046C-1.39686 58.0844 -1.45954 58.1148 -1.50271 58.1359L-1.55264 58.1604L-1.56625 58.1672L-1.57177 58.1699C-1.57193 58.17 -1.57207 58.1701 -1.12493 59.0645L-0.705869 59.9027L-0.677759 59.959L-0.675776 59.958L-0.666061 59.9532L-0.624193 59.9326C-0.586517 59.9142 -0.529624 59.8866 -0.455196 59.8511C-0.306301 59.78 -0.0874739 59.6775 0.187836 59.5536C0.739091 59.3056 1.51349 58.9737 2.40409 58.6386C4.21369 57.9579 6.39548 57.3063 8.14833 57.2536ZM48.3755 56.3264L42.6255 57.2847V60.8404L48.3755 61.7988V56.3264ZM18.517 59.0645C18.1371 59.9895 18.1376 59.9898 18.1378 59.9899L18.517 59.0645ZM14.6255 22.75C15.3849 22.75 16.0005 22.1344 16.0005 21.375C16.0005 20.6156 15.3849 20 14.6255 20C13.8661 20 13.2505 20.6156 13.2505 21.375C13.2505 22.1344 13.8661 22.75 14.6255 22.75ZM14.6255 24.75C16.4894 24.75 18.0005 23.239 18.0005 21.375C18.0005 19.511 16.4894 18 14.6255 18C12.7615 18 11.2505 19.511 11.2505 21.375C11.2505 23.239 12.7615 24.75 14.6255 24.75ZM29.5005 21.375C29.5005 22.1344 28.8849 22.75 28.1255 22.75C27.3661 22.75 26.7505 22.1344 26.7505 21.375C26.7505 20.6156 27.3661 20 28.1255 20C28.8849 20 29.5005 20.6156 29.5005 21.375ZM31.5005 21.375C31.5005 23.239 29.9894 24.75 28.1255 24.75C26.2615 24.75 24.7505 23.239 24.7505 21.375C24.7505 19.511 26.2615 18 28.1255 18C29.9894 18 31.5005 19.511 31.5005 21.375ZM21.3755 34C28.3481 34 34.0005 28.3476 34.0005 21.375C34.0005 14.4024 28.3481 8.75 21.3755 8.75C14.4029 8.75 8.75049 14.4024 8.75049 21.375C8.75049 28.3476 14.4029 34 21.3755 34ZM21.3755 36C29.4527 36 36.0005 29.4522 36.0005 21.375C36.0005 13.2978 29.4527 6.75 21.3755 6.75C13.2983 6.75 6.75049 13.2978 6.75049 21.375C6.75049 29.4522 13.2983 36 21.3755 36ZM54.3755 50.375H62.0005V67.75H54.3755C52.1663 67.75 50.3755 65.9591 50.3755 63.75V54.375C50.3755 52.1659 52.1664 50.375 54.3755 50.375Z" fill="#818181"/>
</g>
<defs>
<clipPath id="clip0">
<rect width="72" height="72" fill="white"/>
</clipPath>
</defs>
</svg>
