<svg width="72" height="72" viewBox="0 0 72 72" fill="none" xmlns="http://www.w3.org/2000/svg">
<path fill-rule="evenodd" clip-rule="evenodd" d="M22.375 34.875V8.875H26.125V34.875H26H22.375ZM22.375 6.875H22.25V5.0625C22.25 3.99245 23.1174 3.125 24.1875 3.125C25.2576 3.125 26.125 3.99245 26.125 5.0625V6.875H22.375ZM22.375 37.125H22.25V63.125H26V37.125H22.375ZM26.125 65.125H26H22.25V66.9375C22.25 68.0076 23.1174 68.875 24.1875 68.875C25.2576 68.875 26.125 68.0076 26.125 66.9375V65.125ZM20.25 6.875V5.0625C20.25 2.88788 22.0129 1.125 24.1875 1.125C26.3621 1.125 28.125 2.88788 28.125 5.0625V6.875H43.75V65.125H28.125V66.9375C28.125 69.1121 26.3621 70.875 24.1875 70.875C22.0129 70.875 20.25 69.1121 20.25 66.9375V65.125H4.625V6.875H20.25ZM20.25 63.125H6.625V8.875H20.25V34.875V37.125V63.125ZM41.75 63.125H28.125V37.125V34.875V8.875H41.75V63.125ZM34.875 20.5C35.6344 20.5 36.25 19.8844 36.25 19.125C36.25 18.3656 35.6344 17.75 34.875 17.75C34.1156 17.75 33.5 18.3656 33.5 19.125C33.5 19.8844 34.1156 20.5 34.875 20.5ZM34.875 22.5C36.739 22.5 38.25 20.989 38.25 19.125C38.25 17.261 36.739 15.75 34.875 15.75C33.011 15.75 31.5 17.261 31.5 19.125C31.5 20.989 33.011 22.5 34.875 22.5ZM12.125 52.875C12.125 52.1156 12.7406 51.5 13.5 51.5C14.2594 51.5 14.875 52.1156 14.875 52.875C14.875 53.6344 14.2594 54.25 13.5 54.25C12.7406 54.25 12.125 53.6344 12.125 52.875ZM10.125 52.875C10.125 51.011 11.636 49.5 13.5 49.5C15.364 49.5 16.875 51.011 16.875 52.875C16.875 54.739 15.364 56.25 13.5 56.25C11.636 56.25 10.125 54.739 10.125 52.875ZM34.875 54.25C35.6344 54.25 36.25 53.6344 36.25 52.875C36.25 52.1156 35.6344 51.5 34.875 51.5C34.1156 51.5 33.5 52.1156 33.5 52.875C33.5 53.6344 34.1156 54.25 34.875 54.25ZM34.875 56.25C36.739 56.25 38.25 54.739 38.25 52.875C38.25 51.011 36.739 49.5 34.875 49.5C33.011 49.5 31.5 51.011 31.5 52.875C31.5 54.739 33.011 56.25 34.875 56.25ZM12.125 19.125C12.125 18.3656 12.7406 17.75 13.5 17.75C14.2594 17.75 14.875 18.3656 14.875 19.125C14.875 19.8844 14.2594 20.5 13.5 20.5C12.7406 20.5 12.125 19.8844 12.125 19.125ZM10.125 19.125C10.125 17.261 11.636 15.75 13.5 15.75C15.364 15.75 16.875 17.261 16.875 19.125C16.875 20.989 15.364 22.5 13.5 22.5C11.636 22.5 10.125 20.989 10.125 19.125ZM34.875 37.375C35.6344 37.375 36.25 36.7594 36.25 36C36.25 35.2406 35.6344 34.625 34.875 34.625C34.1156 34.625 33.5 35.2406 33.5 36C33.5 36.7594 34.1156 37.375 34.875 37.375ZM34.875 39.375C36.739 39.375 38.25 37.864 38.25 36C38.25 34.136 36.739 32.625 34.875 32.625C33.011 32.625 31.5 34.136 31.5 36C31.5 37.864 33.011 39.375 34.875 39.375ZM12.125 36C12.125 35.2406 12.7406 34.625 13.5 34.625C14.2594 34.625 14.875 35.2406 14.875 36C14.875 36.7594 14.2594 37.375 13.5 37.375C12.7406 37.375 12.125 36.7594 12.125 36ZM10.125 36C10.125 34.136 11.636 32.625 13.5 32.625C15.364 32.625 16.875 34.136 16.875 36C16.875 37.864 15.364 39.375 13.5 39.375C11.636 39.375 10.125 37.864 10.125 36ZM56.375 14.5H50.75V13.5C50.75 10.6036 51.8461 8.35789 53.5466 6.84634C55.2287 5.35115 57.4432 4.625 59.625 4.625C61.8068 4.625 64.0213 5.35114 65.7034 6.84633C67.4039 8.35787 68.5 10.6036 68.5 13.5V14.5H62.875V33.8625L66.0586 32.8013L66.691 34.6986L62.875 35.9706V39.4875L66.0586 38.4263L66.691 40.3236L62.875 41.5956V45.1125L66.0586 44.0513L66.691 45.9486L62.875 47.2206V50.7375L66.0586 49.6763L66.691 51.5736L62.875 52.8456V56.3625L66.0586 55.3013L66.691 57.1986L62.875 58.4706V59.4888C62.875 59.616 62.8548 59.7423 62.8151 59.8631L60.7651 66.108C60.4037 67.209 58.8463 67.209 58.4849 66.108L56.4349 59.8631C56.3952 59.7423 56.375 59.616 56.375 59.4888V55.0123L53.191 56.0736L52.5586 54.1763L56.375 52.9041V49.3873L53.191 50.4486L52.5586 48.5513L56.375 47.2791V43.7623L53.191 44.8236L52.5586 42.9263L56.375 41.6541V38.1373L53.191 39.1986L52.5586 37.3013L56.375 36.0291V32.5123L53.191 33.5736L52.5586 31.6763L56.375 30.4041V14.5ZM58.375 31.8457V35.3625L60.875 34.5291V31.0123L58.375 31.8457ZM60.875 28.9041L58.375 29.7375V14.5H60.875V28.9041ZM60.875 53.5123V57.0291L58.375 57.8625V54.3456L60.875 53.5123ZM59.625 63.1688L58.5554 59.9105L60.875 59.1373V59.3609L59.625 63.1688ZM58.375 52.2375V48.7206L60.875 47.8873V51.4041L58.375 52.2375ZM60.875 42.2623V45.7791L58.375 46.6125V43.0956L60.875 42.2623ZM58.375 40.9875V37.4706L60.875 36.6373V40.1541L58.375 40.9875ZM54.8753 8.34116C53.8077 9.29013 53.0161 10.6592 52.8055 12.5H66.4445C66.2339 10.6591 65.4423 9.29011 64.3747 8.34115C63.1037 7.21134 61.3807 6.625 59.625 6.625C57.8693 6.625 56.1463 7.21136 54.8753 8.34116Z" fill="#818181"/>
</svg>
