<svg width="72" height="72" viewBox="0 0 72 72" fill="none" xmlns="http://www.w3.org/2000/svg">
<path fill-rule="evenodd" clip-rule="evenodd" d="M36.25 6.5H4.25V69.875H6.75V9H33.75V69.875H36.25V6.5ZM38.25 69.875V4.5H2.25V69.875H0V71.875H2.25V72H6.75H33.75H38.25V71.875H72V69.875H38.25ZM31.75 69.875V11H8.75V69.875H31.75ZM11.375 37.125V45H13.375V37.125H11.375ZM55.25 6.5H44.75V38.5H67.75V19H57.25V38.25H55.25V6.5ZM67.75 6.5V17H57.25V6.5H67.75ZM42.75 4.5V40.5H69.75V4.5H42.75Z" fill="#818181"/>
</svg>
