<svg width="32" height="32" viewBox="0 0 32 32" fill="none" xmlns="http://www.w3.org/2000/svg">
<path d="M7.4904 31.5V26.8543H4V22.6429H7.4904V19.2563H4V13.8726H7.4904V0.5H17.438C21.452 0.5 24.3752 1.31046 26.2077 2.93137C28.0692 4.55229 29 6.78105 29 9.61765C29 11.2965 28.6219 12.874 27.8656 14.3501C27.1094 15.8263 25.8441 17.0131 24.0698 17.9104C22.3246 18.8077 19.9395 19.2563 16.9145 19.2563H14.0785V22.6429H20.7976V26.8543H14.0785V31.5H7.4904ZM14.0785 13.8726H16.26C18.1216 13.8726 19.5905 13.5542 20.6667 12.9174C21.772 12.2806 22.3246 11.253 22.3246 9.83473C22.3246 7.20075 20.5794 5.88375 17.089 5.88375H14.0785V13.8726Z" fill="#9F9F9F"/>
</svg>
