<svg width="32" height="32" viewBox="0 0 32 32" fill="none" xmlns="http://www.w3.org/2000/svg">
<path fill-rule="evenodd" clip-rule="evenodd" d="M2 3.5C0.895431 3.5 0 4.39543 0 5.5V22C0 23.1046 0.89543 24 2 24H3C3 21.7909 4.79086 20 7 20C9.20914 20 11 21.7909 11 24H16C17.1046 24 18 23.1046 18 22V5.5C18 4.39543 17.1046 3.5 16 3.5H2Z" fill="#9F9F9F"/>
<circle cx="7" cy="24" r="3" fill="#9F9F9F"/>
<circle cx="25.5" cy="24" r="3" fill="#9F9F9F"/>
<path fill-rule="evenodd" clip-rule="evenodd" d="M19.5 11.5V22C19.5 23.1046 20.3954 24 21.5 24C21.5 21.7909 23.2909 20 25.5 20C27.7091 20 29.5 21.7909 29.5 24C30.6046 24 31.5 23.1046 31.5 22V17.0193C31.5 16.5963 31.3659 16.1842 31.1169 15.8422L27.0991 10.3229C26.7227 9.80586 26.1217 9.5 25.4821 9.5H21.5C20.3954 9.5 19.5 10.3954 19.5 11.5ZM24.5 11H25.1554C25.4765 11 25.778 11.1542 25.966 11.4145L28.8549 15.4145C29.3325 16.0758 28.86 17 28.0442 17H24.5C23.9477 17 23.5 16.5523 23.5 16V12C23.5 11.4477 23.9477 11 24.5 11Z" fill="#9F9F9F"/>
</svg>
