<svg width="32" height="32" viewBox="0 0 32 32" fill="none" xmlns="http://www.w3.org/2000/svg">
<path d="M4.6402 12.047L0.570438 29.547C0.278787 30.8011 1.23089 32 2.51845 32H29.4815C30.769 32 31.7211 30.8011 31.4295 29.547L27.3597 12.047C27.1491 11.1411 26.3418 10.5 25.4117 10.5H6.58822C5.65818 10.5 4.85087 11.1411 4.6402 12.047Z" fill="#9F9F9F"/>
<path fill-rule="evenodd" clip-rule="evenodd" d="M16 9C17.3807 9 18.5 7.88071 18.5 6.5C18.5 5.11929 17.3807 4 16 4C14.6193 4 13.5 5.11929 13.5 6.5C13.5 7.88071 14.6193 9 16 9ZM16 11.5C18.7614 11.5 21 9.26142 21 6.5C21 3.73858 18.7614 1.5 16 1.5C13.2386 1.5 11 3.73858 11 6.5C11 9.26142 13.2386 11.5 16 11.5Z" fill="#9F9F9F"/>
<path d="M15.7926 17.3003H13.5486L10.8426 20.7103L10.8096 20.6883C10.9086 20.3693 10.9306 20.1053 10.9306 19.6653V17.3003H9.22559V25.0003H10.9306V22.2283C10.9306 21.7883 10.9086 21.5683 10.8096 21.2383L10.8426 21.2273L13.9996 25.0003H16.3096L13.2406 21.5463C12.9326 21.1943 12.8006 21.0623 12.5696 20.9303V20.8863C12.8006 20.7433 12.9876 20.5563 13.2846 20.2153L15.7926 17.3003Z" fill="white"/>
<path d="M19.872 17.1353C17.386 17.1353 15.725 18.7523 15.725 21.1393C15.725 23.5483 17.386 25.1653 19.817 25.1653C22.358 25.1653 23.579 23.3393 23.579 20.9193V20.5673H19.751V21.9973H21.159C21.467 21.9973 21.731 21.9753 21.863 21.8763L21.885 21.8983C21.786 22.7013 21.225 23.5153 19.773 23.5153C18.387 23.5153 17.474 22.5583 17.474 21.1173C17.474 19.7313 18.42 18.7853 19.817 18.7853C20.543 18.7853 21.302 19.0493 21.885 19.4783L22.853 18.0923C21.995 17.4653 21.005 17.1353 19.872 17.1353Z" fill="white"/>
</svg>
