<svg width="64" height="64" viewBox="0 0 64 64" fill="none" xmlns="http://www.w3.org/2000/svg">
<path fill-rule="evenodd" clip-rule="evenodd" d="M28.394 7.11111C22.4216 7.11111 17.58 11.8867 17.58 17.7778V24.8889H46.4175V17.7778C46.4175 11.8867 41.5759 7.11111 35.6034 7.11111H28.394ZM10.3706 17.7778V24.8889H5.40924C1.95009 24.8889 -0.619441 28.0485 0.130953 31.3792L6.53931 59.8236C7.08907 62.2638 9.28333 64 11.8176 64H52.1824C54.7167 64 56.9109 62.2638 57.4607 59.8236L63.869 31.3792C64.6194 28.0484 62.0499 24.8889 58.5908 24.8889H53.6269V17.7778C53.6269 7.95938 45.5575 0 35.6034 0H28.394C18.4399 0 10.3706 7.95938 10.3706 17.7778ZM7.65608 32L13.2634 56.8889H50.7366L56.3439 32H7.65608ZM18.4287 52.6825C17.5608 51.8146 17.5608 50.4076 18.4287 49.5398L23.524 44.4444L18.4287 39.3491C17.5608 38.4813 17.5608 37.0743 18.4287 36.2064C19.2965 35.3386 20.7035 35.3386 21.5714 36.2064L26.6667 41.3018L31.762 36.2064C32.6298 35.3386 34.0369 35.3386 34.9047 36.2064C35.7725 37.0743 35.7725 38.4813 34.9047 39.3491L29.8094 44.4444L34.9047 49.5398C35.7725 50.4076 35.7725 51.8146 34.9047 52.6825C34.0369 53.5503 32.6298 53.5503 31.762 52.6825L26.6667 47.5871L21.5714 52.6825C20.7035 53.5503 19.2965 53.5503 18.4287 52.6825Z" fill="#E3E3E3"/>
</svg>
