<svg width="64" height="64" viewBox="0 0 64 64" fill="none" xmlns="http://www.w3.org/2000/svg">
<g clip-path="url(#clip0)">
<path fill-rule="evenodd" clip-rule="evenodd" d="M16.7076 10.2483C13.9435 10.2483 11.3521 11.366 9.41341 13.3973C5.38879 17.6138 5.38879 24.4773 9.41661 28.7004L31.9999 52.3629L54.5864 28.7004C58.6142 24.4773 58.6142 17.6138 54.5864 13.3973C50.7089 9.33142 43.8754 9.33812 39.998 13.3973L34.265 19.4041C33.062 20.6657 30.9378 20.6657 29.7349 19.4041L24.0019 13.394C22.0631 11.366 19.475 10.2483 16.7076 10.2483ZM31.9986 60.4445C31.1508 60.4445 30.335 60.0932 29.7368 59.4607L4.88521 33.4257C-1.6284 26.599 -1.6284 15.4923 4.88521 8.66562C8.03324 5.37276 12.2306 3.55566 16.7063 3.55566C21.182 3.55566 25.3826 5.37276 28.5274 8.66562L31.9986 12.3032L35.4698 8.66897C38.6178 5.37276 42.8152 3.55566 47.2941 3.55566C51.7666 3.55566 55.9672 5.37276 59.112 8.66562C65.6288 15.4923 65.6288 26.599 59.1152 33.4257L34.2636 59.4641C33.6622 60.0932 32.8496 60.4445 31.9986 60.4445Z" fill="#E3E3E3"/>
</g>
<defs>
<clipPath id="clip0">
<rect width="64" height="64" fill="white"/>
</clipPath>
</defs>
</svg>
