<svg width="64" height="64" viewBox="0 0 64 64" fill="none" xmlns="http://www.w3.org/2000/svg">
<g clip-path="url(#clip0)">
<path fill-rule="evenodd" clip-rule="evenodd" d="M40.1525 23.8475C41.541 25.236 43.7923 25.236 45.1808 23.8475L51.5556 17.4728L57.9303 23.8475C59.3188 25.236 61.5701 25.236 62.9586 23.8475C64.3471 22.459 64.3471 20.2077 62.9586 18.8192L56.5839 12.4444L62.9586 6.06971C64.3471 4.68118 64.3471 2.42993 62.9586 1.0414C61.5701 -0.347132 59.3188 -0.347132 57.9303 1.0414L51.5556 7.41613L45.1808 1.0414C43.7923 -0.347132 41.541 -0.347132 40.1525 1.0414C38.764 2.42993 38.764 4.68118 40.1525 6.06971L46.5272 12.4444L40.1525 18.8192C38.764 20.2077 38.764 22.459 40.1525 23.8475ZM14.2222 21.3333H28.4444C30.4081 21.3333 32 19.7415 32 17.7778C32 15.8141 30.4081 14.2222 28.4444 14.2222H4.26667C4.14153 14.2222 4.01766 14.2276 3.89526 14.2382C2.70324 14.125 1.48235 14.6166 0.71132 15.6447C0.158298 16.382 -0.0650064 17.2643 0.0161735 18.1148C0.00546586 18.2381 0 18.3628 0 18.4889V59.7333C0 62.0897 1.91025 64 4.26667 64H59.7333C62.0897 64 64 62.0897 64 59.7333V35.5556C64 33.5919 62.4081 32 60.4444 32C58.4808 32 56.8889 33.5919 56.8889 35.5556V56.8889H7.11111V24.8889L28.8002 41.1558C30.6965 42.578 33.3039 42.578 35.2002 41.1558L43.4763 34.9487C45.0472 33.7705 45.3656 31.5419 44.1874 29.971C43.0092 28.4 40.7805 28.0816 39.2096 29.2598L32.0002 34.6669L14.2222 21.3333Z" fill="#E3E3E3"/>
</g>
<defs>
<clipPath id="clip0">
<rect width="64" height="64" fill="white"/>
</clipPath>
</defs>
</svg>
