<svg width="64" height="64" viewBox="0 0 64 64" fill="none" xmlns="http://www.w3.org/2000/svg">
<path fill-rule="evenodd" clip-rule="evenodd" d="M51.5556 17.4728L45.1808 23.8475C43.7923 25.236 41.541 25.236 40.1525 23.8475C38.764 22.459 38.764 20.2077 40.1525 18.8192L46.5272 12.4444L40.1525 6.06971C38.764 4.68118 38.764 2.42993 40.1525 1.0414C41.541 -0.347132 43.7923 -0.347132 45.1808 1.0414L51.5556 7.41613L57.9303 1.0414C59.3188 -0.347133 61.5701 -0.347133 62.9586 1.0414C64.3471 2.42993 64.3471 4.68118 62.9586 6.06971L56.5839 12.4444L62.9586 18.8192C64.3471 20.2077 64.3471 22.459 62.9586 23.8475C61.5701 25.236 59.3188 25.236 57.9303 23.8475L51.5556 17.4728ZM17.7778 7.11111H7.11111V56.8889H46.2222V35.5556C46.2222 33.5919 47.8141 32 49.7778 32C51.7415 32 53.3333 33.5919 53.3333 35.5556V59.7333C53.3333 62.0897 51.4231 64 49.0667 64H4.26667C1.91025 64 0 62.0897 0 59.7333V4.26667C0 1.91025 1.91026 1.05964e-07 4.26667 1.05964e-07H17.7778C19.7415 1.05964e-07 21.3333 1.59188 21.3333 3.55556C21.3333 5.51923 19.7415 7.11111 17.7778 7.11111ZM14.2222 14.2222V21.3333H21.3333V14.2222H14.2222ZM14.2222 35.5556H39.1111V28.4444H14.2222V35.5556ZM39.1111 49.7778H14.2222V42.6667H39.1111V49.7778Z" fill="#E3E3E3"/>
</svg>
