<svg width="81" height="22" viewBox="0 0 81 22" fill="none" xmlns="http://www.w3.org/2000/svg">
<path d="M1.20246 19.9528H1.81124C2.31945 19.9528 2.38502 20.1587 2.38502 20.3378C2.38502 20.509 2.32474 20.7389 1.81124 20.7389H1.20246V19.9528ZM1.85225 19.6135H1.20246V19.0361H2.63031V18.6885H0.828125V21.0782H1.80877C2.41236 21.0782 2.75895 20.8058 2.75895 20.3327C2.75895 20.065 2.63874 19.6135 1.85225 19.6135Z" fill="#1D1D1E"/>
<path d="M6.44601 20.7255V21.0758H4.69531V18.686H6.39939V19.0363H5.06965V19.6913H6.25745V20.0361H5.06965V20.7255H6.44601Z" fill="#1D1D1E"/>
<path d="M9.24663 20.0117H8.71386V19.0363H9.24663C9.66189 19.0363 9.87428 19.1993 9.87428 19.5253C9.87428 19.9264 9.53293 20.0117 9.24663 20.0117ZM9.24663 18.686H8.33984V21.0758H8.71386V20.3621H9.24663C9.86662 20.3621 10.2515 20.0413 10.2515 19.5253C10.2515 19.0068 9.86662 18.686 9.24663 18.686V18.686Z" fill="#1D1D1E"/>
<path d="M13.8672 20.7255V21.0758H12.1172V18.686H13.821V19.0363H12.4912V19.6913H13.6818V20.0361H12.4912V20.7255H13.8672Z" fill="#1D1D1E"/>
<path d="M18.2411 21.0758H17.8696L17.8671 19.4879L17.0996 20.7845H16.8973L16.1301 19.4933V21.0758H15.7617V18.686H16.0645L17.0014 20.2712L17.9379 18.686H18.2383L18.2411 21.0758Z" fill="#1D1D1E"/>
<path d="M24.3656 20.3624C24.3656 20.841 23.885 21.0922 23.4098 21.0922C23.0793 21.0922 22.7571 20.9745 22.5279 20.7686L22.4648 20.7127L22.6426 20.4159L22.7378 20.5041C22.9047 20.6564 23.142 20.7446 23.3905 20.7446C23.68 20.7446 23.9888 20.619 23.9888 20.3435C23.9888 20.0684 23.7048 20.0097 23.464 20.0097H22.8991V19.6645H23.4564C23.6201 19.6645 23.8931 19.6271 23.8931 19.3626C23.8931 19.1169 23.6305 19.0071 23.3715 19.0071C23.1693 19.0071 22.9619 19.0685 22.7897 19.1808L22.6832 19.2476L22.536 18.9189L22.6152 18.8736C22.8472 18.7319 23.1094 18.6567 23.3743 18.6567C23.8931 18.6567 24.2699 18.9457 24.2699 19.344C24.2699 19.5416 24.1854 19.7073 24.0378 19.8172C24.2449 19.9321 24.3656 20.1274 24.3656 20.3624V20.3624Z" fill="#1D1D1E"/>
<path d="M26.7988 20.1216L27.2194 19.2126L27.6424 20.1216H26.7988V20.1216ZM27.3694 18.686H27.0718L25.9492 21.0758H26.3565L26.6404 20.4609H27.7981L28.0848 21.0758H28.4917L27.3694 18.686Z" fill="#1D1D1E"/>
<path d="M30.6211 19.9504H31.23C31.7382 19.9504 31.8037 20.1563 31.8037 20.3354C31.8037 20.5066 31.7434 20.7364 31.23 20.7364H30.6211V19.9504ZM31.2709 19.6111H30.6211V19.0336H32.049V18.686H30.25V21.0758H31.2275C31.831 21.0758 32.1777 20.8033 32.1777 20.3302C32.1777 20.0626 32.0599 19.6111 31.2709 19.6111Z" fill="#1D1D1E"/>
<path d="M35.1744 20.7389C34.6581 20.7389 34.2845 20.3783 34.2845 19.8811C34.2845 19.3836 34.6581 19.023 35.1744 19.023C35.6906 19.023 36.0642 19.3836 36.0642 19.8811C36.0642 20.3783 35.6906 20.7389 35.1744 20.7389ZM35.1744 18.6699C34.4534 18.6699 33.9102 19.1915 33.9102 19.8811C33.9102 20.5707 34.4534 21.092 35.1744 21.092C35.8953 21.092 36.4414 20.5707 36.4414 19.8811C36.4414 19.1915 35.8953 18.6699 35.1744 18.6699Z" fill="#1D1D1E"/>
<path d="M39.9721 18.686V19.0363H39.1695V21.0758H38.7952V19.0363H37.9922V18.686H39.9721Z" fill="#1D1D1E"/>
<path d="M43.8672 21.0758H44.2415V18.686H43.8672V21.0758Z" fill="#1D1D1E"/>
<path d="M42.7192 20.7364H42.1293V19.8248H42.7192C43.2271 19.8248 43.2926 20.0626 43.2926 20.2712C43.2926 20.4692 43.2323 20.7364 42.7192 20.7364ZM42.7574 19.4854H42.1293V18.686H41.7578V21.0758H42.7164C43.3224 21.0758 43.6694 20.7818 43.6694 20.2685C43.6694 19.7634 43.3445 19.4854 42.7574 19.4854V19.4854Z" fill="#1D1D1E"/>
<path d="M50.8038 18.686V21.0758H50.4323V20.0361H49.1517V21.0758H48.7773V18.686H49.1517V19.6913H50.4323V18.686H50.8038Z" fill="#1D1D1E"/>
<path d="M53.4118 20.1216L53.832 19.2126L54.2554 20.1216H53.4118V20.1216ZM53.9823 18.686H53.6848L52.5625 21.0758H52.9694L53.2533 20.4609H54.4114L54.6981 21.0758H55.1074L53.9823 18.686V18.686Z" fill="#1D1D1E"/>
<path d="M60.9938 20.4342L61.2426 20.6802L61.1714 20.7526C60.964 20.9716 60.6528 21.092 60.3001 21.092C59.5824 21.092 59.0391 20.5707 59.0391 19.8811C59.0391 19.1915 59.5824 18.6699 60.3001 18.6699C60.6556 18.6699 60.964 18.7876 61.1714 19.0041L61.2426 19.0765L60.9938 19.3249L60.9205 19.2529C60.7593 19.0978 60.5599 19.023 60.3089 19.023C59.7983 19.023 59.4127 19.3918 59.4127 19.8811C59.4127 20.3701 59.7983 20.7389 60.3089 20.7389C60.5574 20.7389 60.7565 20.6617 60.9205 20.5066L60.9938 20.4342Z" fill="#1D1D1E"/>
<path d="M64.8282 20.7255V21.0758H63.0781V18.686H64.7822V19.0363H63.4521V19.6913H64.6403V20.0361H63.4521V20.7255H64.8282Z" fill="#1D1D1E"/>
<path d="M67.0927 19.9504H67.7018C68.2097 19.9504 68.2749 20.1563 68.2749 20.3354C68.2749 20.5066 68.215 20.7364 67.7018 20.7364H67.0927V19.9504ZM67.7429 19.6111H67.0927V19.0336H68.5209V18.686H66.7188V21.0758H67.6987C68.3023 21.0758 68.6492 20.8033 68.6492 20.3302C68.6492 20.0626 68.5289 19.6111 67.7429 19.6111Z" fill="#1D1D1E"/>
<path d="M71.2934 20.0468C70.9163 20.0468 70.7253 19.8783 70.7253 19.5469C70.7253 19.2072 70.9247 19.0363 71.3232 19.0363H71.8829V20.0468H71.2934V20.0468ZM71.3092 18.686C70.7172 18.686 70.3481 19.0175 70.3481 19.5496C70.3481 19.9024 70.5125 20.1669 70.8044 20.3007L70.25 21.0758H70.6839L71.1728 20.3861C71.2082 20.3889 71.244 20.3889 71.2798 20.3889H71.8829V21.0758H72.2573V18.686H71.3092V18.686Z" fill="#1D1D1E"/>
<path d="M75.7723 19.9502C75.7723 20.3166 75.4702 20.6107 75.0969 20.6107C74.7243 20.6107 74.4219 20.3166 74.4219 19.9502C74.4219 19.5841 74.7243 19.29 75.0969 19.29C75.4702 19.29 75.7723 19.5841 75.7723 19.9502Z" fill="#1D1D1E"/>
<path d="M78.0849 19.9502C78.0849 20.3166 77.7827 20.6107 77.4094 20.6107C77.0365 20.6107 76.7344 20.3166 76.7344 19.9502C76.7344 19.5841 77.0365 19.29 77.4094 19.29C77.7827 19.29 78.0849 19.5841 78.0849 19.9502Z" fill="#1D1D1E"/>
<path d="M80.4016 19.9502C80.4016 20.3166 80.0991 20.6107 79.7262 20.6107C79.3533 20.6107 79.0508 20.3166 79.0508 19.9502C79.0508 19.5841 79.3533 19.29 79.7262 19.29C80.0991 19.29 80.4016 19.5841 80.4016 19.9502Z" fill="#1D1D1E"/>
<path d="M35.6632 9.44085C35.6632 12.5897 33.0568 15.1407 29.8415 15.1407C26.6259 15.1407 24.0195 12.5897 24.0195 9.44085C24.0195 6.29363 26.6259 3.74268 29.8415 3.74268C33.0568 3.74268 35.6632 6.29363 35.6632 9.44085Z" fill="#FAD818"/>
<path d="M2.33932 2.63248H6.44165C7.90294 2.63248 9.64379 3.01182 9.64379 4.81055C9.64379 6.62484 7.90294 7.0058 6.44165 7.0058H2.33932V2.63248ZM6.8564 13.1336H2.33932V8.57952H6.8564C9.9958 8.57952 10.3575 9.87306 10.3575 10.8471C10.3575 11.8292 9.9958 13.1336 6.8564 13.1336V13.1336ZM9.89141 7.59583C10.8653 6.96802 11.3993 5.9609 11.3993 4.73802C11.3993 2.43576 9.56023 1.06201 6.48024 1.06201H0.601562V14.7073H6.8564C10.2352 14.7073 12.0953 13.3619 12.0953 10.9194C12.0953 9.34424 11.3139 8.17029 9.89141 7.59583V7.59583Z" fill="#1D1D1E"/>
<path d="M20.7635 7.6171L14.4878 9.7618C14.1874 8.05439 15.0377 6.60044 16.6789 6.03873C17.0712 5.90477 17.4634 5.84037 17.8459 5.84037C19.0435 5.84037 20.1334 6.47924 20.7635 7.6171V7.6171ZM21.9405 10.3866L21.7845 10.8083C21.4337 11.751 20.6255 12.4796 19.5098 12.8604C17.5983 13.5134 15.8222 12.8511 14.9572 11.1703L22.8921 8.45898L22.7633 8.09699C22.7553 8.07174 22.7489 8.04511 22.7423 8.01986L22.7359 7.99158C22.7231 7.93966 22.7103 7.89077 22.6957 7.84835C21.8919 5.59636 20.0112 4.25879 17.8895 4.25879C17.3218 4.25879 16.7369 4.3547 16.1501 4.55467C14.8029 5.01583 13.758 5.93306 13.2051 7.13854C12.6521 8.34403 12.6199 9.7713 13.1149 11.1608C13.9204 13.4175 15.7981 14.7175 18.0034 14.7175C18.6562 14.7175 19.3377 14.6042 20.029 14.368C21.5736 13.8392 22.7423 12.7834 23.236 11.4678L23.3483 11.1641L21.9405 10.3866V10.3866Z" fill="#1D1D1E"/>
<path d="M26.0479 9.44043L26.043 9.45396L26.0494 9.44895C26.0479 9.44722 26.0479 9.44544 26.0479 9.44043Z" fill="#1D1D1E"/>
<path d="M32.5769 5.28629L24.6015 7.98833C24.5088 8.36446 24.4616 8.75326 24.457 9.15121L33.4211 6.11408C33.1677 5.80098 32.8848 5.52405 32.5769 5.28629ZM33.6334 10.3866L33.477 10.81C33.125 11.7527 32.3162 12.478 31.2011 12.8604C29.2904 13.5134 27.5125 12.8511 26.6477 11.1719L34.5834 8.45898L34.4552 8.09699C34.4463 8.07174 34.4389 8.04511 34.4346 8.01986L34.4271 7.99158C34.4156 7.93966 34.4022 7.89077 34.3859 7.85C34.3314 7.69887 34.2726 7.54921 34.2076 7.40619L24.6471 10.6463C24.6929 10.8195 24.7459 10.9925 24.8064 11.1641C25.6119 13.4191 27.4889 14.7175 29.6969 14.7175C30.3483 14.7175 31.0288 14.6042 31.7211 14.368C33.2651 13.8392 34.4346 12.7834 34.9267 11.4662L35.0414 11.1657L33.6334 10.3866ZM29.5806 4.25879C29.0135 4.25879 28.4286 4.35635 27.8409 4.55633C26.91 4.87403 26.1217 5.41075 25.543 6.11105L30.6576 4.37834C30.3083 4.29979 29.9474 4.25879 29.5806 4.25879Z" fill="#1D1D1E"/>
<path d="M26.0479 9.44043L26.043 9.45396L26.0494 9.44895C26.0479 9.44722 26.0479 9.44544 26.0479 9.44043ZM26.0479 9.44043L26.043 9.45396L26.0494 9.44895C26.0479 9.44722 26.0479 9.44544 26.0479 9.44043ZM26.0479 9.44043L26.043 9.45396L26.0494 9.44895C26.0479 9.44722 26.0479 9.44544 26.0479 9.44043Z" fill="#1D1D1E"/>
<path d="M48.334 11.8306L49.5027 13.0092L49.239 13.2831C48.0156 14.5593 46.2023 15.2612 44.1336 15.2612C39.9042 15.2612 36.7148 12.2037 36.7148 8.14992C36.7148 4.09617 39.9042 1.04004 44.1336 1.04004C46.2153 1.04004 48.0284 1.7357 49.239 2.99917L49.5027 3.27307L48.334 4.4517L48.0462 4.17335C47.0287 3.19286 45.762 2.71596 44.1722 2.71596C40.9408 2.71596 38.5056 5.0514 38.5056 8.14992C38.5056 11.2485 40.9408 13.5853 44.1722 13.5853C45.7459 13.5853 47.0141 13.1022 48.0462 12.1092L48.334 11.8306Z" fill="#1D1D1E"/>
<path d="M51.5391 15.167H53.3087V0.339844H51.5391V15.167Z" fill="#1D1D1E"/>
<path d="M66.2216 4.50293V15.1677H64.4902V13.9276C63.6655 14.7758 62.481 15.2432 61.0839 15.2432C58.1935 15.2432 56.4688 13.5325 56.4688 10.6685V4.50293H58.2387V10.5929C58.2387 12.5632 59.2497 13.6049 61.161 13.6049C63.2219 13.6049 64.4515 12.3161 64.4515 10.1571V4.50293H66.2216Z" fill="#1D1D1E"/>
<path d="M74.9194 6.06487C77.0846 6.06487 78.5956 7.61495 78.5956 9.83384C78.5956 12.0543 77.0846 13.6042 74.9194 13.6042C72.7669 13.6042 71.2623 12.0543 71.2623 9.83384C71.2623 7.61495 72.7669 6.06487 74.9194 6.06487ZM74.9773 4.42673C73.4984 4.42673 72.2058 4.96181 71.2815 5.92793V0.339844H69.5117V15.167H71.2431V13.6941C72.1706 14.6806 73.495 15.2425 74.9773 15.2425C78.1006 15.2425 80.367 12.9685 80.367 9.83384C80.367 6.70053 78.1006 4.42673 74.9773 4.42673Z" fill="#1D1D1E"/>
</svg>
