<svg width="14" height="11" viewBox="0 0 14 11" fill="none" xmlns="http://www.w3.org/2000/svg">
<path fill-rule="evenodd" clip-rule="evenodd" d="M7.00002 6.2842C6.42111 6.2842 5.95001 5.8131 5.95001 5.23419C5.95001 4.65528 6.42111 4.18418 7.00002 4.18418C7.57893 4.18418 8.05003 4.65528 8.05003 5.23419C8.05003 5.8131 7.57893 6.2842 7.00002 6.2842ZM7.00019 2.78422C5.64917 2.78422 4.55016 3.88323 4.55016 5.23425C4.55016 6.58527 5.64917 7.68428 7.00019 7.68428C8.35121 7.68428 9.45022 6.58527 9.45022 5.23425C9.45022 3.88323 8.35121 2.78422 7.00019 2.78422ZM7.15388 8.73258C4.13964 8.80258 2.17332 6.22444 1.52091 5.23113C2.23912 4.10762 4.04794 1.80739 6.84658 1.73599C9.84892 1.65969 11.8264 4.24412 12.4788 5.23743C11.7613 6.36095 9.95182 8.66117 7.15388 8.73258ZM13.9076 4.88607C13.461 4.10766 10.9942 0.205813 6.81091 0.336714C2.94126 0.434715 0.690734 3.84376 0.0929262 4.88607C-0.0309754 5.10167 -0.0309754 5.36698 0.0929262 5.58258C0.533232 6.35049 2.91326 10.134 7.01741 10.134C7.07481 10.134 7.13221 10.1333 7.18961 10.1319C11.0586 10.0332 13.3098 6.62489 13.9076 5.58258C14.0308 5.36698 14.0308 5.10167 13.9076 4.88607Z" fill="#9F9F9F"/>
</svg>
