<svg width="18" height="14" viewBox="0 0 18 14" fill="none" xmlns="http://www.w3.org/2000/svg">
<path fill-rule="evenodd" clip-rule="evenodd" d="M0 1C0 0.447715 0.462394 0 1.03279 0H16.9672C17.5376 0 18 0.447715 18 1C18 1.55228 17.5376 2 16.9672 2H1.03279C0.462394 2 0 1.55228 0 1ZM0 7C0 6.44772 0.462394 6 1.03279 6H16.9672C17.5376 6 18 6.44772 18 7C18 7.55229 17.5376 8 16.9672 8H1.03279C0.462394 8 0 7.55229 0 7ZM0 13C0 12.4477 0.462394 12 1.03279 12H16.9672C17.5376 12 18 12.4477 18 13C18 13.5523 17.5376 14 16.9672 14H1.03279C0.462394 14 0 13.5523 0 13Z" fill="#818181"/>
</svg>
