<svg width="18" height="18" viewBox="0 0 18 18" fill="none" xmlns="http://www.w3.org/2000/svg">
<path fill-rule="evenodd" clip-rule="evenodd" d="M10.9995 4.78948C10.9995 3.74455 10.1025 2.89478 8.99953 2.89478C7.89653 2.89478 6.99953 3.74455 6.99953 4.78948C6.99953 5.83442 7.89653 6.68419 8.99953 6.68419C10.1025 6.68419 10.9995 5.83442 10.9995 4.78948ZM13 4.78942C13 6.87928 11.206 8.57883 9 8.57883C6.794 8.57883 5 6.87928 5 4.78942C5 2.69955 6.794 1 9 1C11.206 1 13 2.69955 13 4.78942ZM2 17C2 13.14 5.141 10 9 10C12.859 10 16 13.14 16 17C16 17.552 15.553 18 15 18C14.447 18 14 17.552 14 17C14 14.243 11.757 12 9 12C6.243 12 4 14.243 4 17C4 17.552 3.553 18 3 18C2.447 18 2 17.552 2 17Z" fill="#818181"/>
</svg>
