<svg width="18" height="18" viewBox="0 0 18 18" fill="none" xmlns="http://www.w3.org/2000/svg">
<g clip-path="url(#clip0)">
<path fill-rule="evenodd" clip-rule="evenodd" d="M4.69867 2.88229C3.92126 2.88229 3.19244 3.19664 2.64717 3.76794C1.51525 4.95382 1.51525 6.88417 2.64807 8.07194L8.99962 14.727L15.3521 8.07194C16.4849 6.88417 16.4849 4.95382 15.3521 3.76794C14.2615 2.62441 12.3396 2.62629 11.2491 3.76794L9.63667 5.45735C9.29835 5.81217 8.70089 5.81217 8.36258 5.45735L6.75017 3.767C6.2049 3.19664 5.47698 2.88229 4.69867 2.88229ZM8.99961 17C8.76116 17 8.53172 16.9012 8.36346 16.7233L1.37397 9.40094C-0.457988 7.48094 -0.457988 4.35718 1.37397 2.43718C2.25935 1.51106 3.43986 1 4.69866 1C5.95745 1 7.13886 1.51106 8.02334 2.43718L8.99961 3.46024L9.97587 2.43812C10.8613 1.51106 12.0418 1 13.3015 1C14.5594 1 15.7408 1.51106 16.6252 2.43718C18.4581 4.35718 18.4581 7.48094 16.6261 9.40094L9.63665 16.7242C9.46749 16.9012 9.23895 17 8.99961 17Z" fill="#9F9F9F"/>
</g>
<defs>
<clipPath id="clip0">
<rect width="18" height="18" fill="white"/>
</clipPath>
</defs>
</svg>
