<svg width="18" height="18" viewBox="0 0 18 18" fill="none" xmlns="http://www.w3.org/2000/svg">
<path fill-rule="evenodd" clip-rule="evenodd" d="M7.93934 0.646371C8.52513 0.0605859 9.47487 0.0605834 10.0607 0.646371L14.7071 5.29282C15.0976 5.68334 15.0976 6.31651 14.7071 6.70703C14.3166 7.09756 13.6834 7.09756 13.2929 6.70703L9 2.41414L4.70711 6.70703C4.31658 7.09756 3.68342 7.09756 3.29289 6.70703C2.90237 6.31651 2.90237 5.68334 3.29289 5.29282L7.93934 0.646371Z" fill="black"/>
<path fill-rule="evenodd" clip-rule="evenodd" d="M10.0607 17.3536C9.47487 17.9394 8.52512 17.9394 7.93934 17.3536L3.29289 12.7072C2.90237 12.3167 2.90237 11.6835 3.29289 11.293C3.68342 10.9024 4.31658 10.9024 4.70711 11.293L9 15.5859L13.2929 11.293C13.6834 10.9024 14.3166 10.9024 14.7071 11.293C15.0976 11.6835 15.0976 12.3167 14.7071 12.7072L10.0607 17.3536Z" fill="black"/>
</svg>
